<svg width="32" height="36" viewBox="0 0 32 36" fill="none" xmlns="http://www.w3.org/2000/svg">
<path d="M31.0377 0.401367L28.219 31.8977L15.5486 35.4014L2.91317 31.9026L0.0974121 0.401367H31.0377Z" fill="#264DE4"/>
<path d="M25.8059 29.8916L28.2147 2.97656H15.5676V32.7228L25.8059 29.8916Z" fill="#2965F1"/>
<path d="M6.55249 14.6606L6.89965 18.5241H15.5676V14.6606H6.55249Z" fill="#EBEBEB"/>
<path d="M15.5676 6.84082H15.5542H5.85498L6.20709 10.7044H15.5676V6.84082Z" fill="#EBEBEB"/>
<path d="M15.5676 28.7139V24.6942L15.5506 24.6987L11.2368 23.5369L10.961 20.4556H8.86486H7.07275L7.61542 26.5218L15.5498 28.7188L15.5676 28.7139Z" fill="#EBEBEB"/>
<path d="M20.3239 18.5241L19.8743 23.5348L15.5542 24.6978V28.7173L23.4949 26.5222L23.5531 25.8694L24.4634 15.6981L24.5579 14.6606L25.2571 6.84082H15.5542V10.7044H21.0122L20.6598 14.6606H15.5542V18.5241H20.3239Z" fill="white"/>
</svg>
