<svg width="28" height="36" viewBox="0 0 28 36" fill="none" xmlns="http://www.w3.org/2000/svg">
<path d="M12.883 0.401367H18.6125V26.6675C15.6777 27.2227 13.5173 27.4412 11.1797 27.4412C4.18178 27.4339 0.539062 24.3069 0.539062 18.3013C0.539062 12.5149 4.40299 8.75951 10.3906 8.75951C11.3198 8.75951 12.0276 8.83266 12.883 9.05176V0.401367ZM13.0838 13.7852C12.4127 13.566 11.8597 13.493 11.1518 13.493C8.2539 13.493 6.58004 15.261 6.58004 18.3595C6.58004 21.3762 8.18024 23.042 11.115 23.042C11.7491 23.042 12.2653 23.0062 13.0838 22.8966V13.7852Z" fill="#2BA977"/>
<path d="M27.9819 9.4647V22.6158C27.9819 27.1448 27.6427 29.3227 26.6472 31.2005C25.718 33.0057 24.494 34.1441 21.9648 35.4014L16.6482 32.8955C19.1774 31.7198 20.4015 30.6809 21.1832 29.0955C22.0016 27.4743 22.2597 25.5966 22.2597 20.6577V9.46481L27.9819 9.4647ZM21.6823 0.401367H27.4118V6.22434H21.6823V0.401367Z" fill="#2BA977"/>
</svg>
