<svg width="24" height="36" viewBox="0 0 24 36" fill="none" xmlns="http://www.w3.org/2000/svg">
<path d="M5.88899 35.4015C9.10899 35.4015 11.7223 32.7882 11.7223 29.5682V23.7349H5.88899C2.66899 23.7349 0.0556641 26.3482 0.0556641 29.5682C0.0556641 32.7882 2.66899 35.4015 5.88899 35.4015Z" fill="#0ACF83"/>
<path d="M0.0556641 17.9017C0.0556641 14.6817 2.66899 12.0684 5.88899 12.0684H11.7223V23.735H5.88899C2.66899 23.735 0.0556641 21.1217 0.0556641 17.9017Z" fill="#A259FF"/>
<path d="M0.0556641 6.23469C0.0556641 3.0147 2.66899 0.401367 5.88899 0.401367H11.7223V12.068H5.88899C2.66899 12.068 0.0556641 9.45469 0.0556641 6.23469Z" fill="#F24E1E"/>
<path d="M11.7222 0.401367H17.5555C20.7755 0.401367 23.3888 3.0147 23.3888 6.23469C23.3888 9.45469 20.7755 12.068 17.5555 12.068H11.7222V0.401367Z" fill="#FF7262"/>
<path d="M23.3888 17.9017C23.3888 21.1217 20.7755 23.735 17.5555 23.735C14.3355 23.735 11.7222 21.1217 11.7222 17.9017C11.7222 14.6817 14.3355 12.0684 17.5555 12.0684C20.7755 12.0684 23.3888 14.6817 23.3888 17.9017Z" fill="#1ABCFE"/>
</svg>
