<svg width="223" height="190" viewBox="0 0 223 190" fill="none" xmlns="http://www.w3.org/2000/svg">
<rect x="5.9502" y="54.7373" width="170" height="130" rx="11" stroke="white" stroke-width="10"/>
<path fill-rule="evenodd" clip-rule="evenodd" d="M20.9502 75.7402C20.9502 72.4265 23.6365 69.7402 26.9502 69.7402H154.95C158.264 69.7402 160.95 72.4265 160.95 75.7402V133.99L135.626 108.175C131.957 104.435 126.024 104.16 122.025 107.546L96.0759 129.519C92.8989 132.209 88.3877 132.65 84.7503 130.625L62.6122 118.303C59.7462 116.708 56.2802 116.62 53.3367 118.067L20.9502 133.99V75.7402ZM50.1488 89.173C50.1488 93.2967 46.8058 96.6396 42.6821 96.6396C38.5584 96.6396 35.2154 93.2967 35.2154 89.173C35.2154 85.0493 38.5584 81.7063 42.6821 81.7063C46.8058 81.7063 50.1488 85.0493 50.1488 89.173Z" fill="white"/>
<path fill-rule="evenodd" clip-rule="evenodd" d="M212.254 57.0332L75.0711 1.49106C66.8804 -1.82516 57.5522 2.12637 54.236 10.3171L35.3916 56.8605H46.1801L63.5051 14.0699C64.7487 10.9984 68.2468 9.51657 71.3183 10.7602L208.501 66.3023C211.572 67.5459 213.054 71.044 211.811 74.1155L175.672 163.373V182.614H149.374L159.714 186.801C167.905 190.117 177.233 186.165 180.549 177.975L221.08 77.8683C224.396 69.6776 220.444 60.3494 212.254 57.0332Z" fill="white"/>
</svg>
