<svg width="32" height="36" viewBox="0 0 32 36" fill="none" xmlns="http://www.w3.org/2000/svg">
<path d="M3.72437 31.8467L0.921631 0.401367H31.7517L28.949 31.8467L16.3025 35.4014" fill="#E34F26"/>
<path d="M16.3708 32.7695L26.5564 29.9668L28.949 3.0332H16.3708" fill="#EF652A"/>
<path d="M16.3708 14.7568H11.2439L10.9021 10.792H16.3708V6.96387H16.3025H6.66382L6.73218 7.98926L7.68921 18.6533H16.3708V14.7568ZM16.3708 24.8057H16.3025L11.9958 23.6436L11.7224 20.5674H9.67163H7.89429L8.3728 26.6514L16.3025 28.8389H16.3708V24.8057Z" fill="#EBEBEB"/>
<path d="M16.3025 14.7568V18.6533H21.0876L20.6091 23.6436L16.3025 24.8057V28.8389L24.2322 26.6514L24.3005 25.9678L25.1892 15.7822L25.3259 14.7568H24.2322H16.3025ZM16.3025 6.96387V9.35645V10.792H25.6677L25.7361 9.97168L25.9412 7.98926L26.0095 6.96387H16.3025Z" fill="white"/>
</svg>
