<svg width="36" height="36" viewBox="0 0 36 36" fill="none" xmlns="http://www.w3.org/2000/svg">
<path d="M35.2986 0.401367H0.298584V35.4014H35.2986V0.401367Z" fill="#F7DF1E"/>
<path d="M23.8097 27.7453C24.5147 28.8964 25.4319 29.7425 27.0542 29.7425C28.4169 29.7425 29.2875 29.0614 29.2875 28.1203C29.2875 26.9925 28.393 26.5931 26.893 25.937L26.0708 25.5842C23.6975 24.5731 22.1208 23.3064 22.1208 20.6286C22.1208 18.162 24.0003 16.2842 26.9375 16.2842C29.0286 16.2842 30.5319 17.012 31.6153 18.9175L29.0542 20.562C28.4903 19.5508 27.8819 19.1525 26.9375 19.1525C25.9742 19.1525 25.3636 19.7636 25.3636 20.562C25.3636 21.5486 25.9747 21.9481 27.3858 22.5592L28.208 22.9114C31.0025 24.1097 32.5803 25.3314 32.5803 28.0781C32.5803 31.0392 30.2542 32.6614 27.1303 32.6614C24.0758 32.6614 22.1025 31.2058 21.1369 29.2981L23.8097 27.7453ZM12.1914 28.0303C12.708 28.947 13.178 29.722 14.308 29.722C15.3886 29.722 16.0703 29.2992 16.0703 27.6553V16.472H19.3592V27.6997C19.3592 31.1053 17.3625 32.6553 14.448 32.6553C11.8147 32.6553 10.2897 31.2925 9.51416 29.6511L12.1914 28.0303Z" fill="black"/>
</svg>
