<svg width="31" height="36" viewBox="0 0 31 36" fill="none" xmlns="http://www.w3.org/2000/svg">
<path d="M3.20434 25.6446C1.30116 24.6825 0.150879 23.4277 0.150879 22.0474V29.2418C0.150879 31.4064 3.00566 33.2887 7.17803 34.1985V27.004C5.6513 26.6694 4.30234 26.2093 3.20434 25.6446Z" fill="#B9C8D0"/>
<path d="M4.08278 18.0529C3.7377 17.9065 3.40307 17.7601 3.09981 17.5928C1.26983 16.6307 0.161377 15.3968 0.161377 14.0479V21.1273C0.161377 21.2841 0.182291 21.4305 0.203205 21.5874C0.475089 23.0096 1.95999 24.2749 4.21872 25.1846C5.09712 25.5402 6.09054 25.8434 7.17807 26.0839V18.994C6.03825 18.7535 4.99255 18.4294 4.08278 18.0529Z" fill="#B9C8D0"/>
<path d="M12.8876 0.401367C5.84998 0.401367 0.150879 2.87969 0.150879 5.94362C0.150879 7.31349 1.30116 8.56834 3.19389 9.54085C3.5076 9.69771 3.84223 9.85456 4.19777 10.001C5.07616 10.3565 6.08004 10.6598 7.16758 10.9003L9.61453 8.69383L10.7439 7.66903L12.6471 5.94362L18.2102 0.903307C16.5894 0.579137 14.7908 0.401367 12.8876 0.401367Z" fill="#8EA5AF"/>
<path d="M4.20822 10.0012C3.85268 9.85479 3.51806 9.70839 3.20434 9.54108C1.30116 8.56857 0.150879 7.31372 0.150879 5.94385V13.1279C0.150879 13.2847 0.171793 13.4311 0.192707 13.588C0.454134 14.9788 1.88675 16.2232 4.07228 17.1329C4.46965 17.3002 4.87748 17.4466 5.31667 17.593C5.90227 17.7813 6.51924 17.9486 7.16758 18.0845V10.89C6.0905 10.66 5.08662 10.3567 4.20822 10.0012Z" fill="#B9C8D0"/>
<path d="M15.0626 29.2525C14.9371 28.6982 14.8639 28.1231 14.8534 27.5375C14.2155 27.5793 13.5568 27.6002 12.877 27.6002C11.8313 27.6002 10.817 27.548 9.84449 27.4434C8.90335 27.3388 8.0145 27.2029 7.16748 27.0146V34.2091C7.30342 34.2405 7.43936 34.2719 7.58576 34.2928C9.19615 34.6169 10.9948 34.7947 12.877 34.7947C14.9371 34.7947 16.8821 34.5751 18.6075 34.1987C16.8212 33.0805 15.5475 31.3034 15.0626 29.2525Z" fill="#ABB8C0"/>
<path d="M18.5762 0.986774C18.4507 0.955402 18.3357 0.934488 18.2102 0.913574L12.647 5.94343L10.7438 7.66884L9.61448 8.69364L7.17798 10.9001C8.89294 11.2765 10.838 11.4857 12.8875 11.4857C13.6614 11.4857 14.4143 11.4543 15.1463 11.402C17.6037 11.2138 19.8206 10.7119 21.5774 10.0008C21.9329 9.85437 22.2675 9.70797 22.5812 9.54066C24.474 8.56815 25.6138 7.3133 25.6138 5.94343C25.6138 3.76836 22.7486 1.89654 18.5762 0.986774Z" fill="#81989F"/>
<path d="M22.5707 9.54108C22.257 9.69794 21.9224 9.85479 21.5669 10.0012C19.8101 10.7123 17.6036 11.2142 15.1358 11.4024C14.4038 11.4547 13.6509 11.4861 12.877 11.4861C10.8275 11.4861 8.88244 11.277 7.16748 10.9005V18.095C8.84061 18.461 10.7333 18.6701 12.7306 18.6806H12.877C15.7109 18.6806 18.3252 18.2727 20.4375 17.593C20.8767 17.4466 21.295 17.3002 21.6819 17.1329C23.857 16.2232 25.3 14.9788 25.5615 13.588C25.5928 13.4416 25.6033 13.2847 25.6033 13.1279V5.94385C25.6138 7.31372 24.4739 8.56857 22.5707 9.54108Z" fill="#ABB8C0"/>
<path d="M25.5721 13.588C25.3106 14.9788 23.878 16.2232 21.6925 17.133C21.2951 17.3003 20.8873 17.4467 20.4481 17.5931C18.3358 18.2728 15.7215 18.6806 12.8876 18.6806H12.7412C10.7439 18.6702 8.85121 18.461 7.17807 18.095C6.52974 17.9486 5.91277 17.7918 5.32717 17.6036C4.88797 17.4572 4.46969 17.3108 4.08278 17.1434C1.89725 16.2232 0.464632 14.9788 0.203205 13.588C0.171834 13.4416 0.161377 13.2848 0.161377 13.1279V14.0482C0.161377 15.3971 1.26983 16.631 3.09981 17.5931C3.40307 17.75 3.7377 17.9068 4.08278 18.0532C4.99255 18.4297 6.03825 18.7538 7.17807 19.0048C8.76755 19.3499 10.5557 19.559 12.438 19.5904H12.8876C16.3071 19.5904 19.4024 19.0048 21.6925 18.0532C22.0376 17.9068 22.3722 17.7604 22.6755 17.5931C24.5054 16.631 25.6139 15.3971 25.6139 14.0482V13.1279C25.6139 13.2848 25.6034 13.4416 25.5721 13.588Z" fill="#81989F"/>
<path d="M25.5721 21.5876C25.3211 22.9156 24.0035 24.1077 21.9853 25.007C21.8493 25.0698 21.7029 25.1325 21.5566 25.1848C21.2428 25.3103 20.9291 25.4253 20.584 25.5403C19.2874 25.9691 17.792 26.2932 16.1712 26.4815C15.7529 26.5337 15.3241 26.5651 14.8849 26.5965C14.2261 26.6383 13.5569 26.6697 12.8772 26.6697C11.936 26.6697 11.0158 26.6279 10.1374 26.5442C9.09172 26.4396 8.0983 26.2932 7.16762 26.0841C6.08008 25.8436 5.08666 25.5403 4.20826 25.1848C1.95999 24.275 0.464632 23.0097 0.203205 21.5876C0.171834 21.4412 0.161377 21.2843 0.161377 21.1274V22.0477C0.161377 23.4175 1.31165 24.6724 3.21484 25.6449C4.31284 26.1991 5.6618 26.6697 7.18853 27.0043C8.03555 27.1925 8.92441 27.3285 9.86554 27.4331C10.8381 27.5376 11.8524 27.5899 12.8981 27.5899C13.5673 27.5899 14.2261 27.569 14.8745 27.5272C15.3032 27.4958 15.7215 27.4644 16.1293 27.4121C17.7711 27.2239 19.2874 26.8997 20.605 26.4605C21.3265 26.22 21.9957 25.9482 22.5813 25.6449C22.6755 25.5926 22.7696 25.5403 22.8637 25.4985C24.5891 24.5574 25.6244 23.3548 25.6244 22.0477V21.1379C25.6244 21.1902 25.6139 21.232 25.6139 21.2843C25.6034 21.3889 25.593 21.4934 25.5721 21.5876Z" fill="#81989F"/>
<path d="M22.6754 17.5928C22.3536 17.7584 22.0257 17.9119 21.6924 18.0529C19.4023 19.0045 16.307 19.5901 12.8875 19.5901H12.4379C10.5452 19.5587 8.76745 19.3496 7.17798 19.0045V26.0944C8.10866 26.2931 9.10208 26.4499 10.1478 26.5545C11.0262 26.6382 11.9464 26.68 12.8875 26.68C13.5673 26.68 14.247 26.6591 14.8953 26.6068C15.3345 26.5754 15.7632 26.5336 16.1815 26.4918C17.8024 26.3035 19.2977 25.9794 20.5944 25.5506C20.929 25.4356 21.2532 25.3206 21.5669 25.1951C21.7133 25.1324 21.8493 25.0801 21.9957 25.0173C24.0139 24.118 25.3315 22.9259 25.5824 21.5979C25.6033 21.4933 25.6138 21.3887 25.6243 21.2841C25.6243 21.2319 25.6347 21.19 25.6347 21.1377V14.0479C25.6138 15.3968 24.5158 16.6307 22.6754 17.5928Z" fill="#ABB8C0"/>
<path d="M22.8427 35.4013C27.255 35.4013 30.8319 31.8244 30.8319 27.4121C30.8319 22.9997 27.255 19.4229 22.8427 19.4229C18.4304 19.4229 14.8535 22.9997 14.8535 27.4121C14.8535 31.8244 18.4304 35.4013 22.8427 35.4013Z" fill="#E5E9EC"/>
<path d="M22.8427 21.0746C26.4922 21.0746 29.462 23.9817 29.5666 27.6103V27.4116C29.5666 23.6889 26.555 20.6772 22.8323 20.6772C19.1095 20.6772 16.0979 23.6889 16.0979 27.4116V27.6103C16.2234 23.9921 19.1932 21.0746 22.8427 21.0746Z" fill="#3C9443"/>
<path d="M22.8428 34.1461C26.4923 34.1461 29.4621 31.239 29.5667 27.6104C29.4621 23.9818 26.4923 21.0747 22.8428 21.0747C19.1933 21.0747 16.2235 23.9818 16.1189 27.6104C16.2235 31.239 19.1933 34.1461 22.8428 34.1461Z" fill="#45AC4E"/>
<path d="M20.584 27.1714V30.9359L26.2831 27.7465L20.584 24.5571V27.1714Z" fill="#3C9443"/>
<path d="M20.584 26.8369V30.6119L26.2831 27.4121L20.584 24.2227V26.8369Z" fill="white"/>
</svg>
