<svg width="37" height="36" viewBox="0 0 37 36" fill="none" xmlns="http://www.w3.org/2000/svg">
<path d="M6.61306 0.401367H29.7554C33.2641 0.401367 36.1009 3.24325 36.1009 6.7582V29.0445C36.1009 32.5595 33.2641 35.4014 29.7554 35.4014H6.61306C3.10438 35.4014 0.267578 32.5595 0.267578 29.0445V6.7582C0.267578 3.24325 3.10438 0.401367 6.61306 0.401367Z" fill="#001E36"/>
<path d="M8.33008 24.9466V9.55554C8.33008 9.45084 8.37487 9.39101 8.47938 9.39101C8.7332 9.39101 8.97209 9.39101 9.31549 9.37606C9.67383 9.3611 10.0471 9.3611 10.4502 9.34614C10.8533 9.33118 11.2863 9.33118 11.7492 9.31623C12.212 9.30127 12.6599 9.30127 13.1079 9.30127C14.3322 9.30127 15.3474 9.45084 16.1835 9.76494C16.9301 10.0192 17.6169 10.438 18.1842 10.9914C18.662 11.4701 19.0353 12.0534 19.2742 12.6966C19.4981 13.3248 19.6176 13.9679 19.6176 14.641C19.6176 15.9273 19.319 16.9893 18.7217 17.8269C18.1245 18.6645 17.2884 19.2927 16.3179 19.6517C15.3026 20.0256 14.1829 20.1602 12.9586 20.1602C12.6002 20.1602 12.3613 20.1602 12.212 20.1453C12.0627 20.1303 11.8537 20.1303 11.57 20.1303V24.9316C11.5849 25.0363 11.5103 25.1261 11.4058 25.141C11.3908 25.141 11.3759 25.141 11.346 25.141H8.50924C8.3898 25.141 8.33008 25.0812 8.33008 24.9466ZM11.5849 12.2778V17.3034C11.794 17.3184 11.9881 17.3333 12.1672 17.3333H12.9586C13.5408 17.3333 14.1231 17.2436 14.6756 17.0641C15.1533 16.9295 15.5714 16.6453 15.8999 16.2714C16.2134 15.8974 16.3627 15.3889 16.3627 14.7308C16.3776 14.2671 16.2582 13.8034 16.0193 13.3996C15.7655 13.0107 15.4072 12.7115 14.9742 12.547C14.4217 12.3226 13.8245 12.2329 13.2124 12.2479C12.8242 12.2479 12.4808 12.2479 12.1971 12.2628C11.8985 12.2479 11.6895 12.2628 11.5849 12.2778Z" fill="#31A8FF"/>
<path d="M28.9341 16.3911C28.4862 16.1518 28.0084 15.9872 27.5008 15.8825C26.9484 15.7629 26.3959 15.6881 25.8286 15.6881C25.53 15.6731 25.2164 15.718 24.9327 15.7928C24.7386 15.8377 24.5744 15.9424 24.4699 16.0919C24.3952 16.2116 24.3505 16.3612 24.3505 16.4958C24.3505 16.6304 24.4102 16.765 24.4998 16.8847C24.6341 17.0492 24.8133 17.1838 25.0074 17.2885C25.3508 17.468 25.7091 17.6325 26.0675 17.7821C26.8737 18.0513 27.6501 18.4253 28.3668 18.874C28.8595 19.1881 29.2626 19.6069 29.5463 20.1154C29.7852 20.5941 29.9046 21.1176 29.8897 21.656C29.9046 22.359 29.6956 23.062 29.3074 23.6454C28.8893 24.2436 28.3071 24.7073 27.6352 24.9766C26.9036 25.2907 26.0077 25.4552 24.9327 25.4552C24.2459 25.4552 23.5741 25.3954 22.9022 25.2607C22.3796 25.171 21.857 25.0065 21.3793 24.7821C21.2748 24.7223 21.2001 24.6176 21.215 24.4979V21.8954C21.215 21.8505 21.23 21.7907 21.2748 21.7607C21.3196 21.7308 21.3643 21.7458 21.4091 21.7757C21.9914 22.1197 22.6036 22.359 23.2605 22.5086C23.8279 22.6582 24.4251 22.733 25.0223 22.733C25.5897 22.733 25.9928 22.6582 26.2616 22.5236C26.5005 22.4189 26.6647 22.1646 26.6647 21.8954C26.6647 21.686 26.5452 21.4915 26.3064 21.2971C26.0675 21.1026 25.5748 20.8783 24.8432 20.5941C24.0817 20.3248 23.38 19.9659 22.723 19.5172C22.2602 19.1881 21.872 18.7543 21.5883 18.2458C21.3494 17.7672 21.23 17.2436 21.2449 16.7201C21.2449 16.077 21.4241 15.4637 21.7525 14.9103C22.1258 14.312 22.6782 13.8334 23.3202 13.5342C24.022 13.1753 24.9029 13.0107 25.963 13.0107C26.5751 13.0107 27.2022 13.0556 27.8143 13.1454C28.2623 13.2052 28.6952 13.3248 29.0984 13.4894C29.1581 13.5043 29.2178 13.5642 29.2477 13.624C29.2626 13.6838 29.2775 13.7436 29.2775 13.8035V16.2415C29.2775 16.3013 29.2477 16.3612 29.2029 16.3911C29.0685 16.421 28.9939 16.421 28.9341 16.3911Z" fill="#31A8FF"/>
</svg>
