<svg width="36" height="36" viewBox="0 0 36 36" fill="none" xmlns="http://www.w3.org/2000/svg">
<path d="M17.902 0.401367C8.87854 0.401367 9.44167 4.27488 9.44167 4.27488L9.45278 8.28803H18.063V9.49198H6.03067C6.03067 9.49198 0.258301 8.84328 0.258301 17.8569C0.258301 26.8684 5.2976 26.5495 5.2976 26.5495H8.30541V22.367C8.30541 22.367 8.14325 17.3786 13.2647 17.3786H21.8039C21.8039 17.3786 26.6022 17.4556 26.6022 12.7883V5.07091C26.6022 5.07091 27.3308 0.401367 17.902 0.401367ZM13.1537 3.09952C14.01 3.09952 14.7031 3.78561 14.7031 4.63332C14.7031 5.48103 14.01 6.16711 13.1537 6.16711C12.9501 6.1674 12.7485 6.12792 12.5604 6.05095C12.3723 5.97397 12.2013 5.861 12.0574 5.71852C11.9135 5.57603 11.7993 5.40683 11.7216 5.22061C11.6438 5.0344 11.6039 4.83482 11.6042 4.63332C11.6042 3.78561 12.2973 3.09952 13.1537 3.09952Z" fill="url(#paint0_linear_56_283)"/>
<path d="M18.1574 35.4014C27.1808 35.4014 26.6177 31.5279 26.6177 31.5279L26.6065 27.5147H17.9963V26.3108H30.0275C30.0275 26.3108 35.801 26.9595 35.801 17.9469C35.801 8.93438 30.7617 9.25434 30.7617 9.25434H27.7539V13.4357C27.7539 13.4357 27.9161 18.4241 22.7946 18.4241H14.2554C14.2554 18.4241 9.45715 18.3471 9.45715 23.0145V30.7318C9.45715 30.7318 8.72852 35.4014 18.1574 35.4014ZM22.9057 32.7032C22.7021 32.7035 22.5005 32.664 22.3124 32.5871C22.1242 32.5101 21.9533 32.3971 21.8094 32.2546C21.6654 32.1121 21.5513 31.9429 21.4736 31.7567C21.3958 31.5705 21.3559 31.3709 21.3562 31.1694C21.3562 30.3228 22.0493 29.6367 22.9057 29.6367C23.762 29.6367 24.4551 30.3217 24.4551 31.1694C24.4551 32.0182 23.762 32.7032 22.9057 32.7032Z" fill="url(#paint1_linear_56_283)"/>
<defs>
<linearGradient id="paint0_linear_56_283" x1="3.67374" y1="3.46016" x2="21.0695" y2="21.0923" gradientUnits="userSpaceOnUse">
<stop stop-color="#387EB8"/>
<stop offset="1" stop-color="#366994"/>
</linearGradient>
<linearGradient id="paint1_linear_56_283" x1="14.4853" y1="14.5649" x2="33.1773" y2="32.6553" gradientUnits="userSpaceOnUse">
<stop stop-color="#FFE052"/>
<stop offset="1" stop-color="#FFC331"/>
</linearGradient>
</defs>
</svg>
