<svg width="41" height="36" viewBox="0 0 41 36" fill="none" xmlns="http://www.w3.org/2000/svg">
<path d="M20.5853 0.406816C15.896 1.66492 11.5553 4.07583 5.76945 10.7131C-0.0163767 17.3504 1.08015 22.8348 1.08015 22.8348C1.08015 22.8348 2.67775 19.0623 6.51742 15.0901C8.34194 13.2093 9.69445 12.5758 10.6312 12.5758C11.4627 12.5286 12.1635 13.2003 12.1635 14.0317V27.506C12.1635 28.8385 11.3029 29.1326 10.5096 29.1127C9.83787 29.1036 9.21336 28.8676 9.21336 28.8676C13.1565 34.5971 22.5932 35.4014 22.5932 35.4014L26.7342 30.9753L26.8286 31.0606L30.6211 34.2939C37.5616 30.1711 40.9092 22.5317 40.9092 22.5317C37.8085 25.8031 35.8405 26.5692 34.6677 26.5692C33.6275 26.5601 33.2208 25.9538 33.2208 25.9538C33.1645 25.6706 33.0701 21.5658 33.032 17.4629C32.9939 13.2166 33.032 8.96302 33.2408 8.95212C34.4408 6.70097 38.2623 2.16235 38.2623 2.16235C31.124 3.57114 27.2371 8.25136 27.2371 8.25136C26.0843 7.34364 23.7387 7.49432 23.7387 7.49432C24.8353 8.09886 25.9318 9.85803 25.9318 11.314V25.6488C25.9318 25.6488 23.539 27.7565 21.6964 27.7565C20.5998 27.7565 19.9281 27.1611 19.5596 26.6691C19.418 26.4803 19.2945 26.2715 19.2001 26.0446V8.34395C18.9442 8.53275 18.6319 8.63623 18.3215 8.64713C17.9239 8.64713 17.5172 8.44924 17.2431 7.87193C17.0343 7.43622 16.9018 6.78448 16.9018 5.82955C16.9018 2.5672 20.5889 0.401367 20.5889 0.401367L20.5853 0.406816Z" fill="black"/>
</svg>
