<svg width="258" height="385" viewBox="0 0 258 385" fill="none" xmlns="http://www.w3.org/2000/svg">
<path fill-rule="evenodd" clip-rule="evenodd" d="M143.358 0.972642C159.17 2.26359 174.141 6.67635 187.936 13.7082C191.42 23.1182 196.515 31.7461 202.885 39.2573C212.619 40.7656 220.088 44.6354 224.603 50.9778C232.468 62.0244 230.308 79.089 219.92 98.8669C219.51 89.4673 216.924 81.109 211.945 74.1159C204.429 63.5599 192.2 57.1458 176.544 54.5216C162.065 52.0947 144.616 52.9002 125.145 56.689C147.512 46.3546 168.411 40.2281 185.554 38.8365C191.366 38.3647 196.728 38.4378 201.562 39.0686C191.152 36.4215 180.455 34.6204 169.514 33.727C145.538 31.7697 122.022 34.3048 99.4966 40.7585C91.2316 55.7578 85.5555 71.7501 82.7749 88.6238C82.5169 90.1895 82.2849 91.7559 82.0788 93.323C114.042 136.707 151.696 158.937 183.919 177.962C185.872 179.115 187.805 180.257 189.717 181.39C209.139 192.913 226.191 203.601 238.4 217.654C250.196 231.232 257.489 247.973 257.942 271.706C243.345 245.112 222.958 229.589 203.733 218.207C197.364 214.436 191.103 211.11 185.231 207.991L185.183 207.965L185.097 207.92C181.942 206.244 178.899 204.627 176.015 203.033C167.695 198.438 160.666 194.024 155.782 188.861C155.63 188.701 155.4 188.639 155.188 188.703C154.976 188.768 154.818 188.945 154.781 189.163C152.631 201.576 161.265 211.265 173.844 220.957C178.719 224.714 184.233 228.505 190.01 232.476L190.01 232.476L190.029 232.489L190.38 232.73C191.96 233.816 193.559 234.915 195.168 236.031C202.813 241.331 210.732 247.019 218.166 253.443C233.035 266.29 245.931 282.058 250.796 303.501C255.507 324.266 252.704 350.445 236.7 384.577C241.374 348.194 236.725 321.772 226.972 302.097C216.889 281.76 201.383 268.695 185.228 259.3C173.764 252.633 161.928 247.794 151.485 243.523L151.485 243.523L151.48 243.521C147.234 241.785 143.22 240.143 139.552 238.511C135.519 236.716 131.914 234.935 128.871 233.058C140.905 248.008 155.009 262.508 170.963 276.387C126.132 257.003 89.5081 231.506 65.1545 203.203C40.1763 174.174 28.1392 142.239 33.3007 110.917C36.8848 89.1672 48.4207 69.7972 66.1762 53.4696C42.3925 64.8865 20.1652 80.79 0.224365 100.391C28.4295 37.1574 83.6171 -3.9044 143.358 0.972642ZM80.8367 111.213C80.5401 147.981 93.9974 184.755 118.587 219.464C121.792 220.518 124.66 220.756 127.197 220.299C129.99 219.797 132.343 218.462 134.271 216.521C138.11 212.656 140.262 206.404 140.991 199.487C141.722 192.554 141.033 184.863 139.103 178.027C137.177 171.203 133.993 165.156 129.67 161.59C108.123 143.81 91.482 127.65 80.8367 111.213Z" fill="url(#paint0_linear_306_7)"/>
<defs>
<linearGradient id="paint0_linear_306_7" x1="125.217" y1="0.58067" x2="125.217" y2="403.097" gradientUnits="userSpaceOnUse">
<stop offset="0.0729167" stop-color="#E3A455"/>
<stop offset="0.244792" stop-color="#F6DBA6"/>
<stop offset="0.434957" stop-color="#FFEBC4"/>
<stop offset="0.532623" stop-color="#F0BE79"/>
<stop offset="0.773898" stop-color="#EEBC70"/>
<stop offset="0.909722" stop-color="#855E36"/>
<stop offset="1" stop-color="#3F1F0F"/>
</linearGradient>
</defs>
</svg>
