<svg width="570" height="685" viewBox="0 0 570 685" fill="none" xmlns="http://www.w3.org/2000/svg">
<path fill-rule="evenodd" clip-rule="evenodd" d="M255.391 22.0386C255.391 33.6935 245.943 43.1416 234.288 43.1416C234.018 43.1416 233.749 43.1365 233.482 43.1265C200.333 43.1842 192.947 46.88 192.947 68.9837V285.055C205.682 287.345 214.657 292.852 214.657 299.282C214.657 305.712 205.682 311.219 192.947 313.509V456.876H171.18C178.925 431.027 171.18 416.444 171.18 416.444C171.18 416.444 169.109 445.048 152.977 476.038H119.445C154.807 432.99 147.228 408.973 147.228 408.973C147.228 408.973 142.187 428.222 114.654 456.876H89.7447C161.718 376.605 164.733 339.81 162 312.506C151.745 309.831 144.87 304.91 144.87 299.282C144.87 294.441 149.956 290.124 157.905 287.308C43.519 225.632 20.4613 98.9215 23.6384 44.91H10.2256V23.8328H212.376H213.26C213.21 23.2413 213.185 22.6429 213.185 22.0386C213.185 10.3837 222.633 0.935547 234.288 0.935547C245.943 0.935547 255.391 10.3837 255.391 22.0386ZM77.2308 45.3184C75.0599 57.9117 73.9287 70.8608 73.9287 84.0741C73.9287 141.085 94.9878 193.178 129.751 232.997C105.996 194.892 92.2717 149.887 92.2717 101.677C92.2717 82.2927 94.4906 63.4263 98.6883 45.3184H77.2308ZM125.918 128.064C125.918 98.0677 133.601 69.8657 147.106 45.3184H163.821C144.55 75.3878 133.376 111.144 133.376 149.51C133.376 163.822 134.931 177.771 137.881 191.196C130.16 171.652 125.918 150.353 125.918 128.064Z" fill="url(#paint0_linear_1_1377)"/>
<path fill-rule="evenodd" clip-rule="evenodd" d="M310.476 22.0386C310.476 33.6935 319.924 43.1416 331.579 43.1416C331.849 43.1416 332.118 43.1365 332.385 43.1265C365.534 43.1842 372.921 46.88 372.921 68.9837V285.055C360.185 287.345 351.21 292.852 351.21 299.282C351.21 305.712 360.185 311.219 372.921 313.509V456.876H394.687C386.943 431.027 394.687 416.444 394.687 416.444C394.687 416.444 396.758 445.048 412.89 476.038H446.423C411.06 432.99 418.639 408.973 418.639 408.973C418.639 408.973 423.68 428.222 451.213 456.876H476.123C404.149 376.605 401.135 339.81 403.867 312.506C414.122 309.831 420.997 304.91 420.997 299.282C420.997 294.441 415.911 290.124 407.962 287.308C522.348 225.632 545.406 98.9215 542.229 44.91H555.642V23.8328H353.491H352.607C352.657 23.2413 352.682 22.6429 352.682 22.0386C352.682 10.3837 343.234 0.935547 331.579 0.935547C319.924 0.935547 310.476 10.3837 310.476 22.0386ZM488.636 45.3184C490.807 57.9117 491.938 70.8608 491.938 84.0741C491.938 141.085 470.879 193.178 436.116 232.997C459.871 194.892 473.595 149.887 473.595 101.677C473.595 82.2927 471.377 63.4263 467.179 45.3184H488.636ZM439.949 128.064C439.949 98.0677 432.266 69.8657 418.761 45.3184H402.046C421.317 75.3878 432.491 111.144 432.491 149.51C432.491 163.822 430.936 177.771 427.986 191.196C435.707 171.652 439.949 150.353 439.949 128.064Z" fill="url(#paint1_linear_1_1377)"/>
<path d="M33.8918 509.427L57.1613 592.532L81.298 509.427H103.267V614.212H88.2355V533.708L65.3996 607.997C64.7251 610.31 63.7134 611.948 62.3644 612.911C61.1118 613.778 59.522 614.212 57.5949 614.212H48.923L26.9543 534.286V614.212H12.7902V525.903C12.7902 523.013 12.5975 521.037 12.2121 519.978C11.923 518.821 11.1522 518.05 9.8996 517.665C8.35793 517.087 7.10533 516.605 6.14178 516.22C5.2746 515.738 4.841 514.774 4.841 513.329C4.841 510.728 6.71991 509.427 10.4777 509.427H33.8918ZM205.855 614.212L195.304 580.97H164.953L154.402 614.212H139.515L167.41 528.071C168.951 523.061 169.53 520.17 169.144 519.399C168.759 518.532 167.843 517.906 166.398 517.521C164.567 517.135 163.122 516.653 162.062 516.075C161.099 515.401 160.617 514.341 160.617 512.896C160.617 510.583 162.399 509.427 165.964 509.427H187.355L222.332 614.212H205.855ZM191.836 570.274L179.839 533.13L168.132 570.274H191.836ZM260.748 526.048C260.748 522.965 260.411 520.845 259.736 519.688C259.158 518.532 258.339 517.81 257.279 517.521C255.738 517.135 254.485 516.653 253.521 516.075C252.654 515.401 252.221 514.389 252.221 513.04C252.221 510.631 253.955 509.427 257.424 509.427H276.502C280.356 509.427 284.692 509.571 289.51 509.86C294.327 510.053 298.326 510.438 301.506 511.017C310.949 512.847 318.609 517.858 324.486 526.048C330.364 534.142 333.303 546.234 333.303 562.325C333.303 573.406 331.857 582.271 328.967 588.919C326.076 595.471 322.222 600.626 317.404 604.384C312.876 607.949 307.721 610.502 301.939 612.044C296.255 613.489 289.269 614.212 280.982 614.212H260.748V526.048ZM286.475 603.95C295.436 603.95 302.807 600.626 308.588 593.978C314.369 587.233 317.26 576.682 317.26 562.325C317.26 548.354 314.851 537.755 310.033 530.528C305.215 523.302 298.037 519.688 288.498 519.688H282.139C278.188 519.688 276.213 521.471 276.213 525.036V598.747C276.213 602.216 278.188 603.95 282.139 603.95H286.475ZM368.106 561.169C368.106 545.463 372.008 532.6 379.813 522.579C387.714 512.558 398.698 507.548 412.766 507.548C426.737 507.548 437.625 512.558 445.43 522.579C453.331 532.6 457.282 545.463 457.282 561.169C457.282 576.971 453.331 589.931 445.43 600.048C437.625 610.069 426.737 615.079 412.766 615.079C398.698 615.079 387.714 610.069 379.813 600.048C372.008 589.931 368.106 576.971 368.106 561.169ZM384.293 561.169C384.293 574.851 386.991 585.402 392.387 592.821C397.879 600.241 404.672 603.95 412.766 603.95C420.86 603.95 427.605 600.241 433 592.821C438.396 585.402 441.094 574.851 441.094 561.169C441.094 547.583 438.396 537.08 433 529.661C427.605 522.242 420.86 518.532 412.766 518.532C404.672 518.532 397.879 522.242 392.387 529.661C386.991 537.08 384.293 547.583 384.293 561.169ZM516.221 614.212H500.757V526.192C500.757 523.205 500.516 521.134 500.034 519.978C499.649 518.821 498.878 518.099 497.721 517.81C496.18 517.328 494.686 516.894 493.241 516.509C491.892 516.027 491.218 515.015 491.218 513.474C491.218 510.872 493.096 509.571 496.854 509.571H510.874C514.439 509.571 516.221 511.113 516.221 514.196V550.04L548.163 509.571H557.846C559.677 509.571 560.833 510.246 561.315 511.595C561.893 512.847 561.652 514.052 560.593 515.208L526.772 557.122L569.698 614.212H551.776L516.221 566.228V614.212Z" fill="white"/>
<path d="M9.24707 676.603H4.44043V649.245C4.44043 648.317 4.36556 647.673 4.21582 647.313C4.09603 646.954 3.85645 646.729 3.49707 646.64C3.0179 646.49 2.55371 646.355 2.10449 646.235C1.68522 646.086 1.47559 645.771 1.47559 645.292C1.47559 644.483 2.05957 644.079 3.22754 644.079H7.58496C8.69303 644.079 9.24707 644.558 9.24707 645.517V656.657L19.1748 644.079H22.1846C22.7536 644.079 23.113 644.289 23.2627 644.708C23.4424 645.097 23.3675 645.472 23.0381 645.831L12.5264 658.858L25.8682 676.603H20.2979L9.24707 661.688V676.603ZM24.9248 664.968C24.9248 661.434 25.8382 658.559 27.665 656.343C29.5218 654.127 32.1423 653.019 35.5264 653.019C38.9105 653.019 41.516 654.127 43.3428 656.343C45.1995 658.559 46.1279 661.434 46.1279 664.968C46.1279 668.502 45.1995 671.377 43.3428 673.593C41.516 675.809 38.9105 676.917 35.5264 676.917C32.1423 676.917 29.5218 675.809 27.665 673.593C25.8382 671.377 24.9248 668.502 24.9248 664.968ZM30.001 664.968C30.001 667.963 30.54 670.194 31.6182 671.661C32.7262 673.099 34.029 673.817 35.5264 673.817C37.0238 673.817 38.3115 673.099 39.3896 671.661C40.4977 670.194 41.0518 667.963 41.0518 664.968C41.0518 661.973 40.4977 659.757 39.3896 658.319C38.3115 656.852 37.0238 656.118 35.5264 656.118C34.029 656.118 32.7262 656.852 31.6182 658.319C30.54 659.757 30.001 661.973 30.001 664.968ZM54.3936 676.603H49.6768V658.769C49.6768 657.84 49.6019 657.196 49.4521 656.837C49.3024 656.448 49.0778 656.208 48.7783 656.118C48.2992 655.998 47.9098 655.849 47.6104 655.669C47.3408 655.489 47.2061 655.19 47.2061 654.771C47.2061 653.992 47.79 653.603 48.958 653.603H52.6865C53.8245 653.603 54.3936 654.112 54.3936 655.13V656.028C54.6631 655.669 54.9775 655.325 55.3369 654.995C56.5049 653.857 58.0322 653.273 59.9189 653.243C61.9554 653.243 63.4977 653.947 64.5459 655.354C64.8454 655.834 65.1299 656.403 65.3994 657.062C65.7288 656.463 66.1481 655.879 66.6572 655.31C67.945 653.932 69.5771 653.243 71.5537 653.243C73.5902 653.243 75.1175 653.962 76.1357 655.399C77.1839 656.837 77.708 659.143 77.708 662.317V676.603H73.0361V662.452C73.0361 660.386 72.8265 658.933 72.4072 658.095C72.0179 657.256 71.404 656.837 70.5654 656.837C69.5173 656.837 68.4092 657.75 67.2412 659.577C66.7021 660.416 66.3128 661.359 66.0732 662.407V676.603H61.3564V662.452C61.3564 660.356 61.1618 658.903 60.7725 658.095C60.3831 657.256 59.7842 656.837 58.9756 656.837C57.8675 656.867 56.7145 657.78 55.5166 659.577C54.9775 660.446 54.6032 661.419 54.3936 662.497V676.603ZM82.5146 658.769C82.5146 657.84 82.4398 657.196 82.29 656.837C82.1403 656.478 81.9456 656.253 81.7061 656.163C81.2269 655.983 80.8226 655.804 80.4932 655.624C80.1937 655.444 80.0439 655.16 80.0439 654.771C80.0439 653.992 80.6279 653.603 81.7959 653.603H85.5244C86.6025 653.603 87.1715 654.037 87.2314 654.905C88.6689 653.647 90.4658 653.019 92.6221 653.019C95.5869 653.019 97.863 654.112 99.4502 656.298C101.037 658.484 101.831 661.404 101.831 665.058C101.831 668.472 100.993 671.302 99.3154 673.548C97.6383 675.794 95.2725 676.917 92.2178 676.917C90.2113 676.917 88.5492 676.408 87.2314 675.39V684.284H82.5146V658.769ZM97.0693 665.192C97.0693 662.407 96.5752 660.236 95.5869 658.679C94.6286 657.121 93.3857 656.343 91.8584 656.343C90.7204 656.343 89.6722 656.927 88.7139 658.095C87.7555 659.263 87.2764 660.805 87.2764 662.722V666.989C87.2764 669.385 87.7555 671.122 88.7139 672.2C89.6722 673.278 90.7503 673.817 91.9482 673.817C93.266 673.817 94.4489 673.069 95.4971 671.571C96.5452 670.074 97.0693 667.948 97.0693 665.192ZM110.681 676.603H105.919V648.167C105.919 647.239 105.844 646.61 105.694 646.28C105.545 645.921 105.305 645.681 104.976 645.562C104.526 645.382 104.152 645.202 103.853 645.022C103.553 644.843 103.403 644.543 103.403 644.124C103.403 643.405 103.987 643.046 105.155 643.046H108.974C110.112 643.046 110.681 643.51 110.681 644.438V676.603ZM119.216 665.821C119.306 667.858 119.965 669.64 121.192 671.167C122.45 672.694 124.112 673.563 126.179 673.772C126.868 673.862 127.631 673.832 128.47 673.683C129.308 673.533 130.102 673.278 130.851 672.919C131.569 672.59 132.108 672.485 132.468 672.604C132.827 672.724 133.127 672.979 133.366 673.368C133.546 673.728 133.531 674.102 133.321 674.491C133.112 674.881 132.827 675.18 132.468 675.39C131.689 675.869 130.656 676.258 129.368 676.558C128.08 676.857 126.643 676.962 125.056 676.872C122.061 676.692 119.5 675.509 117.374 673.323C115.278 671.137 114.229 668.082 114.229 664.159C114.229 660.685 115.173 657.96 117.06 655.983C118.976 654.007 121.522 653.019 124.696 653.019C127.392 653.019 129.608 653.932 131.345 655.759C133.082 657.556 133.95 660.296 133.95 663.979V665.821H119.216ZM119.216 662.632H129.144C129.144 660.386 128.679 658.739 127.751 657.69C126.853 656.642 125.804 656.118 124.606 656.118C123.199 656.118 121.956 656.717 120.878 657.915C119.83 659.083 119.276 660.655 119.216 662.632ZM142.306 676.603H137.544V648.167C137.544 647.239 137.484 646.61 137.364 646.28C137.244 645.921 137.05 645.696 136.78 645.606C136.331 645.457 135.927 645.292 135.567 645.112C135.238 644.933 135.073 644.618 135.073 644.169C135.073 643.42 135.657 643.046 136.825 643.046H140.599C141.737 643.046 142.306 643.51 142.306 644.438V661.239L150.122 653.603H155.692L145.585 663.261L156.546 676.603H150.976L142.306 666.271V676.603ZM163.913 666.091C161.787 665.342 160.065 664.414 158.747 663.306C157.429 662.198 156.771 660.835 156.771 659.218C156.771 657.271 157.459 655.729 158.837 654.591C160.244 653.423 162.296 652.809 164.991 652.749C166.159 652.719 167.312 652.809 168.45 653.019C169.618 653.228 170.711 653.558 171.729 654.007V658.634C170.352 657.526 169.124 656.792 168.046 656.433C166.998 656.043 166.009 655.864 165.081 655.894C163.973 655.924 163.09 656.178 162.431 656.657C161.772 657.106 161.427 657.795 161.397 658.724C161.368 659.562 161.802 660.311 162.7 660.97C163.629 661.599 164.916 662.228 166.563 662.856C168.929 663.755 170.621 664.758 171.64 665.866C172.658 666.944 173.167 668.217 173.167 669.685C173.167 671.961 172.373 673.743 170.786 675.03C169.229 676.288 167.028 676.917 164.183 676.917C162.805 676.917 161.517 676.722 160.319 676.333C159.121 675.944 158.208 675.479 157.579 674.94C156.98 674.431 156.651 673.967 156.591 673.548C156.561 673.129 156.651 672.769 156.86 672.47C157.22 671.931 157.669 671.646 158.208 671.616C158.777 671.586 159.316 671.796 159.825 672.245C160.394 672.694 161.083 673.069 161.892 673.368C162.7 673.638 163.479 673.757 164.228 673.728C165.845 673.638 166.998 673.203 167.687 672.425C168.405 671.646 168.69 670.703 168.54 669.595C168.48 669.056 168.136 668.487 167.507 667.888C166.878 667.289 165.68 666.69 163.913 666.091ZM175.054 664.968C175.054 661.434 175.967 658.559 177.794 656.343C179.651 654.127 182.271 653.019 185.655 653.019C189.039 653.019 191.645 654.127 193.472 656.343C195.328 658.559 196.257 661.434 196.257 664.968C196.257 668.502 195.328 671.377 193.472 673.593C191.645 675.809 189.039 676.917 185.655 676.917C182.271 676.917 179.651 675.809 177.794 673.593C175.967 671.377 175.054 668.502 175.054 664.968ZM180.13 664.968C180.13 667.963 180.669 670.194 181.747 671.661C182.855 673.099 184.158 673.817 185.655 673.817C187.153 673.817 188.44 673.099 189.519 671.661C190.627 670.194 191.181 667.963 191.181 664.968C191.181 661.973 190.627 659.757 189.519 658.319C188.44 656.852 187.153 656.118 185.655 656.118C184.158 656.118 182.855 656.852 181.747 658.319C180.669 659.757 180.13 661.973 180.13 664.968ZM219.931 676.737H216.292L211.71 661.419L207.442 676.737H203.894L198.862 657.556C198.713 657.106 198.578 656.732 198.458 656.433C198.368 656.133 198.203 655.924 197.964 655.804C197.694 655.654 197.425 655.504 197.155 655.354C196.886 655.175 196.751 654.92 196.751 654.591C196.751 653.932 197.305 653.603 198.413 653.603H202.456L205.915 668.247L209.688 653.827H213.956L218.044 668.427L221.728 653.603H224.243C224.752 653.603 225.127 653.737 225.366 654.007C225.606 654.246 225.681 654.606 225.591 655.085L219.931 676.737ZM240.819 674.581C240.49 675.03 239.786 675.539 238.708 676.108C237.63 676.647 236.162 676.917 234.306 676.917C232.299 676.917 230.622 676.333 229.274 675.165C227.957 673.967 227.298 672.41 227.298 670.493C227.298 667.948 228.436 665.911 230.712 664.384C233.018 662.856 235.908 662.093 239.382 662.093H240.819V661.015C240.819 659.487 240.415 658.289 239.606 657.421C238.798 656.552 237.765 656.118 236.507 656.118C235.399 656.118 234.47 656.403 233.722 656.972C232.973 657.541 232.599 658.514 232.599 659.892H227.567C227.567 657.765 228.391 656.088 230.038 654.86C231.715 653.632 233.916 653.019 236.642 653.019C239.517 653.019 241.718 653.737 243.245 655.175C244.772 656.612 245.536 658.574 245.536 661.06V676.603H240.819V674.581ZM240.819 665.372C238.034 665.282 235.863 665.672 234.306 666.54C232.778 667.379 232.015 668.547 232.015 670.044C232.015 671.302 232.344 672.185 233.003 672.694C233.662 673.203 234.41 673.458 235.249 673.458C236.687 673.458 237.974 672.964 239.112 671.976C240.25 670.957 240.819 669.744 240.819 668.337V665.372ZM264.628 649.2C264.628 648.242 264.523 647.583 264.313 647.224C264.134 646.864 263.879 646.64 263.55 646.55C263.071 646.43 262.681 646.28 262.382 646.101C262.112 645.891 261.978 645.576 261.978 645.157C261.978 644.409 262.517 644.034 263.595 644.034H269.524C270.722 644.034 272.07 644.079 273.567 644.169C275.065 644.229 276.308 644.349 277.296 644.528C280.231 645.097 282.612 646.655 284.438 649.2C286.265 651.716 287.179 655.474 287.179 660.476C287.179 663.92 286.729 666.675 285.831 668.741C284.933 670.778 283.735 672.38 282.237 673.548C280.83 674.656 279.228 675.45 277.431 675.929C275.664 676.378 273.493 676.603 270.917 676.603H264.628V649.2ZM272.624 673.413C275.409 673.413 277.7 672.38 279.497 670.313C281.294 668.217 282.192 664.938 282.192 660.476C282.192 656.133 281.444 652.839 279.946 650.593C278.449 648.347 276.218 647.224 273.253 647.224H271.276C270.049 647.224 269.435 647.778 269.435 648.886V671.796C269.435 672.874 270.049 673.413 271.276 673.413H272.624ZM294.007 665.821C294.097 667.858 294.756 669.64 295.983 671.167C297.241 672.694 298.903 673.563 300.97 673.772C301.659 673.862 302.422 673.832 303.261 673.683C304.099 673.533 304.893 673.278 305.642 672.919C306.36 672.59 306.899 672.485 307.259 672.604C307.618 672.724 307.918 672.979 308.157 673.368C308.337 673.728 308.322 674.102 308.112 674.491C307.903 674.881 307.618 675.18 307.259 675.39C306.48 675.869 305.447 676.258 304.159 676.558C302.871 676.857 301.434 676.962 299.847 676.872C296.852 676.692 294.291 675.509 292.165 673.323C290.069 671.137 289.021 668.082 289.021 664.159C289.021 660.685 289.964 657.96 291.851 655.983C293.767 654.007 296.313 653.019 299.487 653.019C302.183 653.019 304.399 653.932 306.136 655.759C307.873 657.556 308.741 660.296 308.741 663.979V665.821H294.007ZM294.007 662.632H303.935C303.935 660.386 303.47 658.739 302.542 657.69C301.644 656.642 300.595 656.118 299.397 656.118C297.99 656.118 296.747 656.717 295.669 657.915C294.621 659.083 294.067 660.655 294.007 662.632ZM317.097 676.603H312.335V648.167C312.335 647.239 312.275 646.61 312.155 646.28C312.035 645.921 311.841 645.696 311.571 645.606C311.122 645.457 310.718 645.292 310.358 645.112C310.029 644.933 309.864 644.618 309.864 644.169C309.864 643.42 310.448 643.046 311.616 643.046H315.39C316.528 643.046 317.097 643.51 317.097 644.438V661.239L324.913 653.603H330.483L320.376 663.261L331.337 676.603H325.767L317.097 666.271V676.603ZM331.067 664.968C331.067 661.434 331.981 658.559 333.808 656.343C335.664 654.127 338.285 653.019 341.669 653.019C345.053 653.019 347.659 654.127 349.485 656.343C351.342 658.559 352.271 661.434 352.271 664.968C352.271 668.502 351.342 671.377 349.485 673.593C347.659 675.809 345.053 676.917 341.669 676.917C338.285 676.917 335.664 675.809 333.808 673.593C331.981 671.377 331.067 668.502 331.067 664.968ZM336.144 664.968C336.144 667.963 336.683 670.194 337.761 671.661C338.869 673.099 340.172 673.817 341.669 673.817C343.166 673.817 344.454 673.099 345.532 671.661C346.64 670.194 347.194 667.963 347.194 664.968C347.194 661.973 346.64 659.757 345.532 658.319C344.454 656.852 343.166 656.118 341.669 656.118C340.172 656.118 338.869 656.852 337.761 658.319C336.683 659.757 336.144 661.973 336.144 664.968ZM356.358 658.769C356.358 657.84 356.284 657.196 356.134 656.837C355.984 656.448 355.744 656.208 355.415 656.118C354.996 655.998 354.621 655.849 354.292 655.669C353.963 655.459 353.798 655.16 353.798 654.771C353.798 653.992 354.382 653.603 355.55 653.603H359.233C360.401 653.603 360.985 654.112 360.985 655.13V656.028C361.345 655.579 361.779 655.175 362.288 654.815C363.576 653.767 365.223 653.243 367.229 653.243H369.206V657.556C366.541 656.987 364.369 657.391 362.692 658.769C361.974 659.308 361.405 660.071 360.985 661.06V676.603H356.358V658.769ZM384.479 674.581C384.15 675.03 383.446 675.539 382.368 676.108C381.29 676.647 379.823 676.917 377.966 676.917C375.959 676.917 374.282 676.333 372.935 675.165C371.617 673.967 370.958 672.41 370.958 670.493C370.958 667.948 372.096 665.911 374.372 664.384C376.678 662.856 379.568 662.093 383.042 662.093H384.479V661.015C384.479 659.487 384.075 658.289 383.267 657.421C382.458 656.552 381.425 656.118 380.167 656.118C379.059 656.118 378.131 656.403 377.382 656.972C376.633 657.541 376.259 658.514 376.259 659.892H371.228C371.228 657.765 372.051 656.088 373.698 654.86C375.375 653.632 377.576 653.019 380.302 653.019C383.177 653.019 385.378 653.737 386.905 655.175C388.433 656.612 389.196 658.574 389.196 661.06V676.603H384.479V674.581ZM384.479 665.372C381.694 665.282 379.523 665.672 377.966 666.54C376.438 667.379 375.675 668.547 375.675 670.044C375.675 671.302 376.004 672.185 376.663 672.694C377.322 673.203 378.071 673.458 378.909 673.458C380.347 673.458 381.634 672.964 382.772 671.976C383.91 670.957 384.479 669.744 384.479 668.337V665.372ZM410.399 675.3C409.711 675.809 408.737 676.228 407.479 676.558C406.222 676.857 404.709 676.962 402.942 676.872C399.948 676.722 397.387 675.554 395.261 673.368C393.164 671.152 392.116 668.082 392.116 664.159C392.116 660.745 393.06 658.035 394.946 656.028C396.863 654.022 399.438 653.019 402.673 653.019C405.278 653.019 407.375 653.662 408.962 654.95C410.549 656.208 411.418 657.84 411.567 659.847H406.626C406.626 658.649 406.252 657.735 405.503 657.106C404.784 656.448 403.766 656.118 402.448 656.118C401.041 656.118 399.783 656.822 398.675 658.229C397.597 659.637 397.058 661.614 397.058 664.159C397.058 666.974 397.701 669.235 398.989 670.942C400.307 672.619 401.999 673.563 404.065 673.772C404.754 673.862 405.518 673.832 406.356 673.683C407.195 673.533 407.959 673.293 408.647 672.964C409.366 672.634 409.92 672.515 410.31 672.604C410.729 672.664 411.043 672.874 411.253 673.233C411.433 673.623 411.418 674.012 411.208 674.401C410.998 674.761 410.729 675.06 410.399 675.3ZM422.124 675.884C422.124 679.028 421.525 681.215 420.327 682.442C419.129 683.67 417.392 684.284 415.116 684.284C412.72 684.284 410.968 683.715 409.86 682.577C408.752 681.469 408.198 679.942 408.198 677.995H413.005C413.005 679.403 413.244 680.331 413.724 680.78C414.203 681.229 414.667 681.454 415.116 681.454C415.805 681.454 416.344 681.08 416.733 680.331C417.123 679.612 417.317 678.13 417.317 675.884V658.724C417.317 657.825 417.257 657.196 417.138 656.837C417.048 656.478 416.853 656.253 416.554 656.163C416.045 656.013 415.625 655.864 415.296 655.714C414.996 655.534 414.847 655.22 414.847 654.771C414.847 653.992 415.431 653.603 416.599 653.603H420.417C421.555 653.603 422.124 654.097 422.124 655.085V675.884ZM422.573 646.325C422.573 647.194 422.259 647.942 421.63 648.571C421.031 649.17 420.282 649.47 419.384 649.47C418.515 649.47 417.767 649.17 417.138 648.571C416.539 647.942 416.239 647.194 416.239 646.325C416.239 645.487 416.539 644.768 417.138 644.169C417.767 643.54 418.515 643.226 419.384 643.226C420.282 643.226 421.031 643.54 421.63 644.169C422.259 644.768 422.573 645.487 422.573 646.325ZM439.688 674.581C439.359 675.03 438.655 675.539 437.577 676.108C436.499 676.647 435.032 676.917 433.175 676.917C431.168 676.917 429.491 676.333 428.144 675.165C426.826 673.967 426.167 672.41 426.167 670.493C426.167 667.948 427.305 665.911 429.581 664.384C431.887 662.856 434.777 662.093 438.251 662.093H439.688V661.015C439.688 659.487 439.284 658.289 438.476 657.421C437.667 656.552 436.634 656.118 435.376 656.118C434.268 656.118 433.34 656.403 432.591 656.972C431.842 657.541 431.468 658.514 431.468 659.892H426.437C426.437 657.765 427.26 656.088 428.907 654.86C430.584 653.632 432.785 653.019 435.511 653.019C438.386 653.019 440.587 653.737 442.114 655.175C443.642 656.612 444.405 658.574 444.405 661.06V676.603H439.688V674.581ZM439.688 665.372C436.903 665.282 434.732 665.672 433.175 666.54C431.647 667.379 430.884 668.547 430.884 670.044C430.884 671.302 431.213 672.185 431.872 672.694C432.531 673.203 433.28 673.458 434.118 673.458C435.556 673.458 436.843 672.964 437.981 671.976C439.119 670.957 439.688 669.744 439.688 668.337V665.372ZM460.892 660.116C460.892 655.235 462.104 651.237 464.53 648.122C466.986 645.007 470.4 643.45 474.772 643.45C479.115 643.45 482.499 645.007 484.925 648.122C487.381 651.237 488.608 655.235 488.608 660.116C488.608 665.028 487.381 669.056 484.925 672.2C482.499 675.315 479.115 676.872 474.772 676.872C470.4 676.872 466.986 675.315 464.53 672.2C462.104 669.056 460.892 665.028 460.892 660.116ZM465.923 660.116C465.923 664.369 466.761 667.648 468.438 669.954C470.146 672.26 472.257 673.413 474.772 673.413C477.288 673.413 479.384 672.26 481.062 669.954C482.739 667.648 483.577 664.369 483.577 660.116C483.577 655.894 482.739 652.629 481.062 650.323C479.384 648.017 477.288 646.864 474.772 646.864C472.257 646.864 470.146 648.017 468.438 650.323C466.761 652.629 465.923 655.894 465.923 660.116ZM496.829 676.603H492.067V648.167C492.067 647.239 492.007 646.61 491.888 646.28C491.768 645.921 491.573 645.696 491.304 645.606C490.854 645.457 490.45 645.292 490.091 645.112C489.761 644.933 489.597 644.618 489.597 644.169C489.597 643.42 490.181 643.046 491.349 643.046H495.122C496.26 643.046 496.829 643.51 496.829 644.438V661.239L504.646 653.603H510.216L500.108 663.261L511.069 676.603H505.499L496.829 666.271V676.603ZM517.718 676.603H512.956V658.769C512.956 657.84 512.866 657.196 512.687 656.837C512.537 656.448 512.312 656.208 512.013 656.118C511.534 655.968 511.144 655.804 510.845 655.624C510.575 655.444 510.44 655.175 510.44 654.815C510.44 654.007 511.024 653.603 512.192 653.603H516.011C517.149 653.603 517.718 654.112 517.718 655.13V676.603ZM518.032 646.325C518.032 647.194 517.718 647.942 517.089 648.571C516.49 649.17 515.756 649.47 514.888 649.47C513.989 649.47 513.226 649.17 512.597 648.571C511.998 647.942 511.698 647.194 511.698 646.325C511.698 645.487 511.998 644.768 512.597 644.169C513.226 643.54 513.989 643.226 514.888 643.226C515.756 643.226 516.49 643.54 517.089 644.169C517.718 644.768 518.032 645.487 518.032 646.325ZM526.253 665.821C526.343 667.858 527.002 669.64 528.229 671.167C529.487 672.694 531.149 673.563 533.216 673.772C533.905 673.862 534.668 673.832 535.507 673.683C536.345 673.533 537.139 673.278 537.888 672.919C538.606 672.59 539.146 672.485 539.505 672.604C539.864 672.724 540.164 672.979 540.403 673.368C540.583 673.728 540.568 674.102 540.358 674.491C540.149 674.881 539.864 675.18 539.505 675.39C538.726 675.869 537.693 676.258 536.405 676.558C535.118 676.857 533.68 676.962 532.093 676.872C529.098 676.692 526.537 675.509 524.411 673.323C522.315 671.137 521.267 668.082 521.267 664.159C521.267 660.685 522.21 657.96 524.097 655.983C526.013 654.007 528.559 653.019 531.733 653.019C534.429 653.019 536.645 653.932 538.382 655.759C540.119 657.556 540.987 660.296 540.987 663.979V665.821H526.253ZM526.253 662.632H536.181C536.181 660.386 535.716 658.739 534.788 657.69C533.89 656.642 532.841 656.118 531.644 656.118C530.236 656.118 528.993 656.717 527.915 657.915C526.867 659.083 526.313 660.655 526.253 662.632ZM549.298 676.603H544.626V658.769C544.626 657.84 544.566 657.211 544.446 656.882C544.356 656.522 544.147 656.283 543.817 656.163C543.338 655.983 542.934 655.819 542.604 655.669C542.275 655.519 542.11 655.22 542.11 654.771C542.11 653.992 542.694 653.603 543.862 653.603H547.591C548.729 653.603 549.298 654.112 549.298 655.13V656.478C549.747 655.879 550.286 655.34 550.915 654.86C552.293 653.782 553.985 653.243 555.991 653.243C557.968 653.243 559.585 653.947 560.843 655.354C562.131 656.732 562.774 659.113 562.774 662.497V676.603H558.013V662.362C558.013 660.296 557.728 658.888 557.159 658.14C556.62 657.361 555.916 656.972 555.048 656.972C553.7 657.002 552.368 657.84 551.05 659.487C550.301 660.386 549.717 661.509 549.298 662.856V676.603Z" fill="white"/>
<defs>
<linearGradient id="paint0_linear_1_1377" x1="129.131" y1="0.935524" x2="129.131" y2="498.952" gradientUnits="userSpaceOnUse">
<stop offset="0.0729167" stop-color="#E3A455"/>
<stop offset="0.244792" stop-color="#F6DBA6"/>
<stop offset="0.434957" stop-color="#FFEBC4"/>
<stop offset="0.532623" stop-color="#F0BE79"/>
<stop offset="0.773898" stop-color="#EEBC70"/>
<stop offset="0.909722" stop-color="#855E36"/>
<stop offset="1" stop-color="#3F1F0F"/>
</linearGradient>
<linearGradient id="paint1_linear_1_1377" x1="436.736" y1="0.935524" x2="436.736" y2="498.952" gradientUnits="userSpaceOnUse">
<stop offset="0.0729167" stop-color="#E3A455"/>
<stop offset="0.244792" stop-color="#F6DBA6"/>
<stop offset="0.434957" stop-color="#FFEBC4"/>
<stop offset="0.532623" stop-color="#F0BE79"/>
<stop offset="0.773898" stop-color="#EEBC70"/>
<stop offset="0.909722" stop-color="#855E36"/>
<stop offset="1" stop-color="#3F1F0F"/>
</linearGradient>
</defs>
</svg>
