<svg width="1080" height="444" viewBox="0 0 1080 444" fill="none" xmlns="http://www.w3.org/2000/svg">
<path fill-rule="evenodd" clip-rule="evenodd" d="M0 366.5V0L145 145L241 48.5L375.5 182.5L337.5 220.5L241.5 124.5L145 220.5L53.5 129.5V314L0 366.5ZM246.5 46.5L300.5 100.5H449H498C517.348 100.605 533 116.235 533 135.5C533 154.765 517.348 170.395 498 170.5H449H396L342 224.5H368.5L511 366.5H586.5L444.5 224.5H498V224.497C546.925 224.23 586.503 184.486 586.503 135.499C586.503 86.5111 546.925 46.7676 498 46.5H246.5Z" fill="white"/>
<path d="M632.257 337H622.555C619.218 337 616.575 336.025 614.624 334.074C612.725 332.123 611.775 329.454 611.775 326.066V298.423C611.775 295.035 612.725 292.366 614.624 290.415C616.575 288.464 619.218 287.489 622.555 287.489H632.257C635.594 287.489 638.212 288.464 640.111 290.415C642.062 292.366 643.037 295.035 643.037 298.423V302.196C643.037 302.812 642.755 303.12 642.19 303.12H640.034C639.469 303.12 639.187 302.812 639.187 302.196V298.577C639.187 296.113 638.545 294.239 637.262 292.956C636.03 291.621 634.233 290.954 631.872 290.954H622.863C620.502 290.954 618.705 291.621 617.473 292.956C616.241 294.291 615.625 296.164 615.625 298.577V325.912C615.625 328.325 616.241 330.198 617.473 331.533C618.705 332.868 620.502 333.535 622.863 333.535H631.872C634.233 333.535 636.03 332.893 637.262 331.61C638.545 330.275 639.187 328.376 639.187 325.912V322.293C639.187 321.677 639.469 321.369 640.034 321.369H642.19C642.755 321.369 643.037 321.677 643.037 322.293V326.066C643.037 329.454 642.062 332.123 640.111 334.074C638.212 336.025 635.594 337 632.257 337ZM668.446 337H663.518C660.182 337 657.538 336.025 655.587 334.074C653.688 332.123 652.738 329.454 652.738 326.066V308.664C652.738 305.276 653.688 302.607 655.587 300.656C657.538 298.705 660.182 297.73 663.518 297.73H679.842C680.356 297.73 680.612 298.038 680.612 298.654V336.076C680.612 336.692 680.356 337 679.842 337H677.609C677.045 337 676.762 336.692 676.762 336.076V332.996H676.454C675.12 335.665 672.45 337 668.446 337ZM676.762 325.989V301.888C676.762 301.426 676.506 301.195 675.992 301.195H663.826C661.465 301.195 659.668 301.862 658.436 303.197C657.204 304.532 656.588 306.405 656.588 308.818V325.912C656.588 328.325 657.204 330.198 658.436 331.533C659.668 332.868 661.465 333.535 663.826 333.535H668.831C671.295 333.535 673.22 332.893 674.606 331.61C676.044 330.275 676.762 328.402 676.762 325.989ZM695.162 337H692.929C692.415 337 692.159 336.692 692.159 336.076V298.654C692.159 298.038 692.415 297.73 692.929 297.73H695.162C695.726 297.73 696.009 298.038 696.009 298.654V301.888H696.317C696.881 300.81 697.882 299.86 699.32 299.039C700.757 298.166 702.528 297.73 704.633 297.73H707.636C708.2 297.73 708.483 298.012 708.483 298.577V300.425C708.483 300.99 708.2 301.246 707.636 301.195H704.017C701.501 301.195 699.525 301.965 698.088 303.505C696.702 305.045 696.009 307.124 696.009 309.742V336.076C696.009 336.692 695.726 337 695.162 337ZM721.686 333.535H736.47C738.832 333.535 740.628 332.893 741.86 331.61C743.144 330.275 743.785 328.376 743.785 325.912V298.577C743.785 296.113 743.144 294.239 741.86 292.956C740.628 291.621 738.832 290.954 736.47 290.954H721.686C721.173 290.954 720.916 291.185 720.916 291.647V332.842C720.916 333.304 721.173 333.535 721.686 333.535ZM717.066 336.076V288.413C717.066 287.797 717.323 287.489 717.836 287.489H736.855C740.192 287.489 742.81 288.464 744.709 290.415C746.66 292.366 747.635 295.035 747.635 298.423V326.066C747.635 329.454 746.66 332.123 744.709 334.074C742.81 336.025 740.192 337 736.855 337H717.836C717.323 337 717.066 336.692 717.066 336.076ZM785.261 337H769.168C765.831 337 763.187 336.025 761.237 334.074C759.337 332.123 758.388 329.454 758.388 326.066V308.664C758.388 305.276 759.337 302.607 761.237 300.656C763.187 298.705 765.831 297.73 769.168 297.73H775.79C779.126 297.73 781.77 298.705 783.721 300.656C785.671 302.607 786.647 305.276 786.647 308.664V318.443C786.647 319.059 786.339 319.367 785.723 319.367H762.931C762.469 319.367 762.238 319.598 762.238 320.06V325.989C762.238 328.402 762.854 330.275 764.086 331.61C765.318 332.893 767.114 333.535 769.476 333.535H785.261C785.825 333.535 786.108 333.817 786.108 334.382V336.153C786.108 336.718 785.825 337 785.261 337ZM762.931 316.287H782.104C782.566 316.287 782.797 316.056 782.797 315.594V308.741C782.797 306.328 782.181 304.48 780.949 303.197C779.717 301.862 777.92 301.195 775.559 301.195H769.476C767.114 301.195 765.318 301.862 764.086 303.197C762.854 304.48 762.238 306.328 762.238 308.741V315.594C762.238 316.056 762.469 316.287 762.931 316.287ZM798.75 301.195H794.053C793.489 301.195 793.206 300.938 793.206 300.425V298.577C793.206 298.012 793.489 297.73 794.053 297.73H798.75C799.212 297.73 799.443 297.499 799.443 297.037V290.8C799.443 290.184 799.726 289.876 800.29 289.876H802.523C803.088 289.876 803.37 290.184 803.37 290.8V297.037C803.37 297.499 803.601 297.73 804.063 297.73H813.226C813.791 297.73 814.073 298.012 814.073 298.577V300.425C814.073 300.938 813.791 301.195 813.226 301.195H804.063C803.601 301.195 803.37 301.426 803.37 301.888V326.143C803.37 328.504 804.038 330.327 805.372 331.61C806.707 332.893 808.581 333.535 810.993 333.535H813.996C814.561 333.535 814.843 333.817 814.843 334.382V336.153C814.843 336.718 814.561 337 813.996 337H810.685C807.297 337 804.577 336.05 802.523 334.151C800.47 332.252 799.443 329.634 799.443 326.297V301.888C799.443 301.426 799.212 301.195 798.75 301.195ZM838.689 337H833.761C830.424 337 827.78 336.025 825.83 334.074C823.93 332.123 822.981 329.454 822.981 326.066V308.664C822.981 305.276 823.93 302.607 825.83 300.656C827.78 298.705 830.424 297.73 833.761 297.73H850.085C850.598 297.73 850.855 298.038 850.855 298.654V336.076C850.855 336.692 850.598 337 850.085 337H847.852C847.287 337 847.005 336.692 847.005 336.076V332.996H846.697C845.362 335.665 842.693 337 838.689 337ZM847.005 325.989V301.888C847.005 301.426 846.748 301.195 846.235 301.195H834.069C831.707 301.195 829.911 301.862 828.679 303.197C827.447 304.532 826.831 306.405 826.831 308.818V325.912C826.831 328.325 827.447 330.198 828.679 331.533C829.911 332.868 831.707 333.535 834.069 333.535H839.074C841.538 333.535 843.463 332.893 844.849 331.61C846.286 330.275 847.005 328.402 847.005 325.989ZM862.786 291.262V283.87C862.786 283.305 863.043 283.023 863.556 283.023H865.866C866.379 283.023 866.636 283.305 866.636 283.87V291.262C866.636 291.878 866.379 292.186 865.866 292.186H863.556C863.043 292.186 862.786 291.878 862.786 291.262ZM862.786 336.076V298.654C862.786 298.038 863.043 297.73 863.556 297.73H865.789C866.354 297.73 866.636 298.038 866.636 298.654V336.076C866.636 336.692 866.379 337 865.866 337H863.556C863.043 337 862.786 336.692 862.786 336.076ZM881.956 337H879.723C879.21 337 878.953 336.692 878.953 336.076V283.793C878.953 283.177 879.21 282.869 879.723 282.869H881.956C882.521 282.869 882.803 283.177 882.803 283.793V336.076C882.803 336.692 882.521 337 881.956 337ZM895.12 291.262V283.87C895.12 283.305 895.377 283.023 895.89 283.023H898.2C898.713 283.023 898.97 283.305 898.97 283.87V291.262C898.97 291.878 898.713 292.186 898.2 292.186H895.89C895.377 292.186 895.12 291.878 895.12 291.262ZM895.12 336.076V298.654C895.12 298.038 895.377 297.73 895.89 297.73H898.123C898.688 297.73 898.97 298.038 898.97 298.654V336.076C898.97 336.692 898.713 337 898.2 337H895.89C895.377 337 895.12 336.692 895.12 336.076ZM913.905 337H911.672C911.159 337 910.902 336.692 910.902 336.076V298.654C910.902 298.038 911.159 297.73 911.672 297.73H913.905C914.47 297.73 914.752 298.038 914.752 298.654V301.734H915.06C916.497 299.065 919.167 297.73 923.068 297.73H928.15C931.435 297.73 934.028 298.705 935.927 300.656C937.826 302.607 938.776 305.276 938.776 308.664V336.076C938.776 336.692 938.519 337 938.006 337H935.773C935.208 337 934.926 336.692 934.926 336.076V308.818C934.926 306.405 934.31 304.532 933.078 303.197C931.846 301.862 930.049 301.195 927.688 301.195H922.683C920.219 301.195 918.268 301.862 916.831 303.197C915.445 304.48 914.752 306.328 914.752 308.741V336.076C914.752 336.692 914.47 337 913.905 337ZM965.174 334.767H960.169C956.884 334.767 954.266 333.792 952.315 331.841C950.416 329.89 949.466 327.247 949.466 323.91V308.664C949.466 305.276 950.416 302.607 952.315 300.656C954.266 298.705 956.91 297.73 960.246 297.73H976.57C977.135 297.73 977.417 298.038 977.417 298.654V336.846C977.417 340.234 976.442 342.903 974.491 344.854C972.541 346.805 969.897 347.78 966.56 347.78H952.546C951.982 347.78 951.699 347.498 951.699 346.933V345.085C951.699 344.572 951.982 344.315 952.546 344.315H966.252C968.614 344.315 970.41 343.648 971.642 342.313C972.874 341.03 973.49 339.156 973.49 336.692V330.763H973.182C971.899 333.432 969.23 334.767 965.174 334.767ZM973.49 323.756V301.888C973.49 301.426 973.259 301.195 972.797 301.195H960.631C958.27 301.195 956.448 301.862 955.164 303.197C953.932 304.48 953.316 306.354 953.316 308.818V323.756C953.316 326.169 953.932 328.042 955.164 329.377C956.448 330.66 958.27 331.302 960.631 331.302H965.559C968.023 331.302 969.948 330.66 971.334 329.377C972.772 328.042 973.49 326.169 973.49 323.756Z" fill="white"/>
<path d="M883.237 406.066V403.294C883.237 402.729 883.519 402.447 884.084 402.447H886.317C886.882 402.447 887.164 402.729 887.164 403.294V405.835C887.164 410.968 889.654 413.535 894.633 413.535H902.641C907.62 413.535 910.11 410.943 910.11 405.758V402.524C910.11 400.265 909.186 398.494 907.338 397.211C905.49 395.928 903.257 395.004 900.639 394.439C898.021 393.874 895.377 393.284 892.708 392.668C890.09 392.052 887.857 390.923 886.009 389.28C884.161 387.637 883.237 385.43 883.237 382.658V378.423C883.237 375.035 884.212 372.366 886.163 370.415C888.114 368.464 890.757 367.489 894.094 367.489H903.026C906.363 367.489 909.006 368.464 910.957 370.415C912.908 372.366 913.883 375.035 913.883 378.423V380.579C913.883 381.144 913.601 381.426 913.036 381.426H910.803C910.238 381.426 909.956 381.144 909.956 380.579V378.654C909.956 373.521 907.466 370.954 902.487 370.954H894.556C889.628 370.954 887.164 373.572 887.164 378.808V382.658C887.164 386.2 890.321 388.587 896.635 389.819C899.253 390.332 901.871 390.923 904.489 391.59C907.158 392.257 909.417 393.464 911.265 395.209C913.113 396.954 914.037 399.316 914.037 402.293V406.066C914.037 409.454 913.062 412.123 911.111 414.074C909.16 416.025 906.517 417 903.18 417H894.094C890.757 417 888.114 416.025 886.163 414.074C884.212 412.123 883.237 409.454 883.237 406.066ZM927.706 381.195H923.009C922.445 381.195 922.162 380.938 922.162 380.425V378.577C922.162 378.012 922.445 377.73 923.009 377.73H927.706C928.168 377.73 928.399 377.499 928.399 377.037V370.8C928.399 370.184 928.682 369.876 929.246 369.876H931.479C932.044 369.876 932.326 370.184 932.326 370.8V377.037C932.326 377.499 932.557 377.73 933.019 377.73H942.182C942.747 377.73 943.029 378.012 943.029 378.577V380.425C943.029 380.938 942.747 381.195 942.182 381.195H933.019C932.557 381.195 932.326 381.426 932.326 381.888V406.143C932.326 408.504 932.994 410.327 934.328 411.61C935.663 412.893 937.537 413.535 939.949 413.535H942.952C943.517 413.535 943.799 413.817 943.799 414.382V416.153C943.799 416.718 943.517 417 942.952 417H939.641C936.253 417 933.533 416.05 931.479 414.151C929.426 412.252 928.399 409.634 928.399 406.297V381.888C928.399 381.426 928.168 381.195 927.706 381.195ZM968.03 417H962.948C959.662 417 957.07 416.025 955.171 414.074C953.271 412.123 952.322 409.454 952.322 406.066V378.654C952.322 378.038 952.578 377.73 953.092 377.73H955.325C955.889 377.73 956.172 378.038 956.172 378.654V405.912C956.172 408.325 956.788 410.198 958.02 411.533C959.252 412.868 961.048 413.535 963.41 413.535H968.415C970.879 413.535 972.804 412.893 974.19 411.61C975.627 410.275 976.346 408.402 976.346 405.989V378.654C976.346 378.038 976.628 377.73 977.193 377.73H979.426C979.939 377.73 980.196 378.038 980.196 378.654V416.076C980.196 416.692 979.939 417 979.426 417H977.193C976.628 417 976.346 416.692 976.346 416.076V412.996H976.038C974.703 415.665 972.034 417 968.03 417ZM1006.75 417H1001.59C998.304 417 995.711 416.025 993.812 414.074C991.913 412.123 990.963 409.454 990.963 406.066V388.664C990.963 385.276 991.913 382.607 993.812 380.656C995.711 378.705 998.304 377.73 1001.59 377.73H1006.75C1010.7 377.73 1013.4 379.065 1014.83 381.734H1015.14V363.793C1015.14 363.177 1015.4 362.869 1015.91 362.869H1018.14C1018.71 362.869 1018.99 363.177 1018.99 363.793V416.076C1018.99 416.692 1018.71 417 1018.14 417H1015.91C1015.4 417 1015.14 416.692 1015.14 416.076V412.996H1014.83C1013.4 415.665 1010.7 417 1006.75 417ZM1015.14 405.989V388.741C1015.14 386.328 1014.42 384.48 1012.99 383.197C1011.6 381.862 1009.67 381.195 1007.21 381.195H1002.05C999.69 381.195 997.893 381.862 996.661 383.197C995.429 384.532 994.813 386.405 994.813 388.818V405.912C994.813 408.325 995.429 410.198 996.661 411.533C997.893 412.868 999.69 413.535 1002.05 413.535H1007.21C1009.67 413.535 1011.6 412.893 1012.99 411.61C1014.42 410.275 1015.14 408.402 1015.14 405.989ZM1030.92 371.262V363.87C1030.92 363.305 1031.18 363.023 1031.69 363.023H1034C1034.51 363.023 1034.77 363.305 1034.77 363.87V371.262C1034.77 371.878 1034.51 372.186 1034 372.186H1031.69C1031.18 372.186 1030.92 371.878 1030.92 371.262ZM1030.92 416.076V378.654C1030.92 378.038 1031.18 377.73 1031.69 377.73H1033.92C1034.49 377.73 1034.77 378.038 1034.77 378.654V416.076C1034.77 416.692 1034.51 417 1034 417H1031.69C1031.18 417 1030.92 416.692 1030.92 416.076ZM1063.33 417H1056.71C1053.37 417 1050.73 416.025 1048.78 414.074C1046.88 412.123 1045.93 409.454 1045.93 406.066V388.664C1045.93 385.276 1046.88 382.607 1048.78 380.656C1050.73 378.705 1053.37 377.73 1056.71 377.73H1063.33C1066.67 377.73 1069.31 378.705 1071.26 380.656C1073.21 382.607 1074.19 385.276 1074.19 388.664V406.066C1074.19 409.454 1073.21 412.123 1071.26 414.074C1069.31 416.025 1066.67 417 1063.33 417ZM1057.02 413.535H1063.02C1065.39 413.535 1067.18 412.893 1068.41 411.61C1069.7 410.275 1070.34 408.402 1070.34 405.989V388.741C1070.34 386.328 1069.7 384.48 1068.41 383.197C1067.18 381.862 1065.39 381.195 1063.02 381.195H1057.02C1054.66 381.195 1052.86 381.862 1051.63 383.197C1050.4 384.48 1049.78 386.328 1049.78 388.741V405.989C1049.78 408.402 1050.4 410.275 1051.63 411.61C1052.86 412.893 1054.66 413.535 1057.02 413.535Z" fill="white"/>
</svg>
