<svg width="595" height="233" viewBox="0 0 595 233" fill="none" xmlns="http://www.w3.org/2000/svg">
<path d="M363.46 203.833C363.233 203.776 363.084 203.727 363.012 203.684C362.956 203.627 362.927 203.556 362.927 203.471C362.927 203.286 363.098 203.193 363.439 203.193H368.13C369.623 203.193 370.781 203.556 371.606 204.281C372.444 205.006 372.864 205.98 372.864 207.203C372.864 208.625 372.409 209.684 371.499 210.381C370.604 211.078 369.424 211.426 367.96 211.426H366.936C366.652 211.426 366.51 211.277 366.51 210.978C366.51 210.666 366.652 210.509 366.936 210.509H367.896C368.891 210.509 369.722 210.232 370.391 209.677C371.073 209.109 371.414 208.284 371.414 207.203C371.428 206.264 371.108 205.511 370.455 204.942C369.8 204.359 369.033 204.068 368.151 204.068H366.702C366.005 204.068 365.657 204.345 365.657 204.9V218.06H364.271V205.263C364.271 204.836 364.2 204.509 364.058 204.281C363.93 204.04 363.731 203.89 363.46 203.833ZM374.655 203.833C374.428 203.776 374.279 203.727 374.207 203.684C374.15 203.627 374.122 203.556 374.122 203.471C374.122 203.286 374.293 203.193 374.634 203.193H379.325C380.818 203.193 381.976 203.556 382.8 204.281C383.639 205.006 384.058 205.98 384.058 207.203C384.058 208.625 383.603 209.684 382.694 210.381C381.798 211.078 380.618 211.426 379.154 211.426H378.131C377.847 211.426 377.704 211.277 377.704 210.978C377.704 210.666 377.847 210.509 378.131 210.509H379.091C380.085 210.509 380.917 210.232 381.585 209.677C382.267 209.109 382.609 208.284 382.609 207.203C382.623 206.264 382.303 205.511 381.649 204.942C380.995 204.359 380.227 204.068 379.346 204.068H377.896C377.199 204.068 376.851 204.345 376.851 204.9V218.06H375.465V205.263C375.465 204.836 375.394 204.509 375.252 204.281C375.124 204.04 374.925 203.89 374.655 203.833ZM392.034 214.049C391.991 213.367 391.713 212.77 391.202 212.258C390.69 211.732 389.908 211.206 388.856 210.68C387.762 210.111 386.923 209.485 386.34 208.803C385.771 208.106 385.502 207.26 385.53 206.264C385.559 205.284 385.928 204.481 386.638 203.855C387.364 203.229 388.33 202.916 389.539 202.916C390.221 202.916 390.797 202.966 391.266 203.065C391.749 203.15 392.211 203.265 392.651 203.407V204.58C392.282 204.409 391.806 204.253 391.223 204.111C390.655 203.954 390.078 203.876 389.496 203.876C388.842 203.876 388.259 204.104 387.748 204.559C387.236 204.999 386.98 205.597 386.98 206.35C386.98 207.046 387.25 207.658 387.79 208.184C388.344 208.696 389.176 209.251 390.285 209.848C391.393 210.445 392.204 211.078 392.716 211.746C393.242 212.414 393.504 213.196 393.504 214.092C393.504 215.215 393.121 216.168 392.354 216.95C391.586 217.718 390.484 218.138 389.048 218.209C388.508 218.237 387.932 218.187 387.321 218.06C386.724 217.917 386.24 217.74 385.871 217.526C385.658 217.398 385.509 217.263 385.423 217.121C385.352 216.979 385.352 216.815 385.423 216.63C385.495 216.46 385.608 216.353 385.764 216.31C385.935 216.268 386.098 216.296 386.255 216.395C386.582 216.609 387.015 216.786 387.555 216.929C388.096 217.071 388.615 217.128 389.112 217.099C390.121 217.043 390.875 216.722 391.372 216.14C391.87 215.557 392.09 214.86 392.034 214.049ZM412.418 217.185C412.12 217.412 411.665 217.626 411.053 217.825C410.457 218.024 409.824 218.145 409.156 218.187C406.967 218.329 405.197 217.654 403.846 216.161C402.496 214.668 401.821 212.72 401.821 210.317C401.821 208.127 402.347 206.35 403.398 204.985C404.465 203.606 406 202.916 408.004 202.916C409.27 202.916 410.335 203.265 411.203 203.961C412.084 204.644 412.525 205.319 412.525 205.988H410.968C410.94 205.518 410.634 205.063 410.052 204.622C409.468 204.168 408.772 203.94 407.962 203.94C406.626 203.94 405.516 204.502 404.635 205.625C403.768 206.734 403.334 208.177 403.334 209.955C403.334 212.599 403.975 214.49 405.254 215.628C406.548 216.765 407.976 217.263 409.54 217.121C410.066 217.078 410.535 216.993 410.947 216.865C411.374 216.722 411.736 216.559 412.034 216.374C412.163 216.289 412.29 216.261 412.418 216.289C412.546 216.317 412.632 216.381 412.674 216.481C412.731 216.595 412.731 216.722 412.674 216.865C412.617 216.993 412.532 217.099 412.418 217.185ZM420.99 216.289C420.805 216.815 420.393 217.27 419.753 217.654C419.114 218.024 418.367 218.209 417.514 218.209C416.676 218.209 415.972 217.96 415.403 217.462C414.849 216.965 414.572 216.296 414.572 215.457C414.572 214.334 415.076 213.445 416.086 212.791C417.095 212.123 418.488 211.789 420.265 211.789H420.99V211.128C420.99 210.217 420.763 209.528 420.308 209.059C419.867 208.575 419.263 208.334 418.495 208.334C417.827 208.334 417.273 208.504 416.832 208.845C416.391 209.187 416.171 209.613 416.171 210.125H414.7C414.7 209.4 415.055 208.775 415.766 208.248C416.477 207.722 417.408 207.459 418.559 207.459C419.753 207.459 420.677 207.772 421.331 208.398C421.999 209.009 422.333 209.884 422.333 211.021V218.06H420.99V216.289ZM420.99 212.727C419.241 212.685 417.955 212.89 417.13 213.346C416.32 213.801 415.915 214.433 415.915 215.244C415.915 215.926 416.107 216.424 416.491 216.737C416.889 217.035 417.344 217.185 417.856 217.185C418.624 217.185 419.334 216.915 419.988 216.374C420.656 215.82 420.99 215.116 420.99 214.263V212.727ZM425.638 209.826C425.638 209.4 425.582 209.073 425.468 208.845C425.354 208.603 425.177 208.454 424.935 208.398C424.693 208.327 424.537 208.269 424.465 208.227C424.395 208.17 424.359 208.099 424.359 208.014C424.359 207.828 424.522 207.736 424.849 207.736H426.321C426.733 207.736 426.939 207.957 426.939 208.398V209.955C427.124 209.357 427.451 208.831 427.92 208.376C428.489 207.836 429.228 207.566 430.138 207.566H430.841V208.909C429.889 208.711 429.008 208.881 428.197 209.421C427.515 209.891 427.095 210.637 426.939 211.661V218.06H425.638V209.826ZM439.179 203.833C438.951 203.776 438.802 203.727 438.731 203.684C438.674 203.627 438.645 203.556 438.645 203.471C438.645 203.286 438.816 203.193 439.157 203.193H443.848C445.341 203.193 446.5 203.556 447.324 204.281C448.162 205.006 448.582 205.98 448.582 207.203C448.582 208.625 448.127 209.684 447.217 210.381C446.322 211.078 445.142 211.426 443.678 211.426H442.654C442.37 211.426 442.228 211.277 442.228 210.978C442.228 210.666 442.37 210.509 442.654 210.509H443.614C444.609 210.509 445.44 210.232 446.109 209.677C446.791 209.109 447.132 208.284 447.132 207.203C447.146 206.264 446.826 205.511 446.173 204.942C445.518 204.359 444.751 204.068 443.87 204.068H442.42C441.723 204.068 441.375 204.345 441.375 204.9V218.06H439.989V205.263C439.989 204.836 439.918 204.509 439.776 204.281C439.648 204.04 439.449 203.89 439.179 203.833ZM451.077 209.826C451.077 209.4 451.02 209.073 450.907 208.845C450.793 208.603 450.615 208.454 450.373 208.398C450.132 208.327 449.976 208.269 449.904 208.227C449.833 208.17 449.797 208.099 449.797 208.014C449.797 207.828 449.961 207.736 450.288 207.736H451.759C452.172 207.736 452.377 207.957 452.377 208.398V209.955C452.563 209.357 452.889 208.831 453.358 208.376C453.927 207.836 454.666 207.566 455.576 207.566H456.279V208.909C455.327 208.711 454.446 208.881 453.635 209.421C452.953 209.891 452.534 210.637 452.377 211.661V218.06H451.077V209.826ZM457.389 212.834C457.389 211.227 457.794 209.933 458.604 208.952C459.414 207.957 460.53 207.459 461.952 207.459C463.373 207.459 464.489 207.957 465.299 208.952C466.109 209.933 466.515 211.227 466.515 212.834C466.515 214.44 466.109 215.742 465.299 216.737C464.489 217.718 463.373 218.209 461.952 218.209C460.53 218.209 459.414 217.718 458.604 216.737C457.794 215.742 457.389 214.44 457.389 212.834ZM458.881 212.834C458.881 214.313 459.165 215.436 459.734 216.204C460.317 216.957 461.056 217.334 461.952 217.334C462.833 217.334 463.565 216.957 464.148 216.204C464.731 215.436 465.022 214.313 465.022 212.834C465.022 211.355 464.731 210.239 464.148 209.485C463.565 208.718 462.833 208.334 461.952 208.334C461.056 208.334 460.317 208.718 459.734 209.485C459.165 210.239 458.881 211.355 458.881 212.834ZM470.801 204.516V207.736H473.658V208.589H470.822V215.713C470.822 216.268 470.957 216.68 471.227 216.95C471.498 217.206 471.91 217.334 472.464 217.334C472.748 217.334 473.011 217.327 473.253 217.313C473.494 217.299 473.694 217.27 473.85 217.228V218.102C473.68 218.159 473.395 218.201 472.997 218.23C472.599 218.258 472.3 218.272 472.101 218.272C471.49 218.272 471.007 218.216 470.652 218.102C470.31 217.974 470.054 217.782 469.884 217.526C469.699 217.285 469.585 216.972 469.542 216.588C469.5 216.19 469.479 215.728 469.479 215.201V208.589H467.943V207.736H469.479V205.795L470.801 204.516ZM476.771 212.94C476.814 214.178 477.155 215.194 477.794 215.99C478.435 216.772 479.309 217.213 480.417 217.313C480.829 217.356 481.256 217.341 481.696 217.27C482.151 217.199 482.599 217.057 483.04 216.844C483.182 216.772 483.303 216.758 483.402 216.801C483.502 216.844 483.559 216.908 483.573 216.993C483.602 217.092 483.588 217.199 483.531 217.313C483.474 217.412 483.388 217.497 483.275 217.568C482.905 217.782 482.443 217.952 481.889 218.081C481.349 218.194 480.737 218.23 480.055 218.187C478.761 218.102 477.645 217.568 476.707 216.588C475.769 215.606 475.3 214.227 475.3 212.45C475.3 210.871 475.719 209.649 476.558 208.782C477.396 207.9 478.484 207.459 479.82 207.459C480.929 207.459 481.86 207.857 482.614 208.653C483.367 209.45 483.744 210.623 483.744 212.173V212.94H476.771ZM476.771 212.023H482.4C482.4 210.687 482.144 209.741 481.633 209.187C481.135 208.618 480.524 208.334 479.799 208.334C478.974 208.334 478.271 208.66 477.688 209.315C477.105 209.955 476.8 210.857 476.771 212.023ZM493.574 217.568C493.204 217.782 492.742 217.952 492.188 218.081C491.648 218.194 491.036 218.23 490.354 218.187C489.06 218.102 487.944 217.568 487.006 216.588C486.068 215.606 485.599 214.227 485.599 212.45C485.599 210.871 486.018 209.649 486.857 208.782C487.695 207.9 488.797 207.459 490.162 207.459C491.257 207.459 492.138 207.736 492.806 208.291C493.474 208.831 493.837 209.435 493.894 210.104H492.508C492.508 209.663 492.294 209.258 491.868 208.888C491.441 208.518 490.838 208.334 490.056 208.334C489.274 208.334 488.577 208.689 487.966 209.4C487.355 210.097 487.049 211.114 487.049 212.45C487.049 213.844 487.383 214.981 488.051 215.862C488.719 216.73 489.608 217.213 490.716 217.313C491.128 217.356 491.555 217.341 491.995 217.27C492.45 217.199 492.898 217.057 493.339 216.844C493.481 216.772 493.595 216.758 493.68 216.801C493.78 216.844 493.844 216.908 493.872 216.993C493.915 217.092 493.901 217.199 493.83 217.313C493.773 217.412 493.687 217.497 493.574 217.568ZM498.35 204.516V207.736H501.208V208.589H498.371V215.713C498.371 216.268 498.506 216.68 498.776 216.95C499.047 217.206 499.459 217.334 500.013 217.334C500.298 217.334 500.56 217.327 500.802 217.313C501.044 217.299 501.243 217.27 501.399 217.228V218.102C501.229 218.159 500.944 218.201 500.546 218.23C500.148 218.258 499.85 218.272 499.651 218.272C499.04 218.272 498.556 218.216 498.201 218.102C497.86 217.974 497.604 217.782 497.433 217.526C497.249 217.285 497.134 216.972 497.092 216.588C497.049 216.19 497.028 215.728 497.028 215.201V208.589H495.493V207.736H497.028V205.795L498.35 204.516ZM505.173 218.06H503.809V209.826C503.809 209.4 503.752 209.073 503.638 208.845C503.524 208.603 503.347 208.454 503.105 208.398C502.864 208.327 502.707 208.269 502.636 208.227C502.565 208.184 502.529 208.113 502.529 208.014C502.529 207.828 502.693 207.736 503.02 207.736H504.577C504.974 207.736 505.173 207.957 505.173 208.398V218.06ZM505.429 203.982C505.429 204.309 505.315 204.587 505.088 204.814C504.86 205.042 504.591 205.155 504.278 205.155C503.951 205.155 503.674 205.042 503.446 204.814C503.219 204.587 503.105 204.309 503.105 203.982C503.105 203.67 503.219 203.4 503.446 203.172C503.674 202.945 503.951 202.831 504.278 202.831C504.591 202.831 504.86 202.945 505.088 203.172C505.315 203.4 505.429 203.67 505.429 203.982ZM507.711 212.834C507.711 211.227 508.116 209.933 508.927 208.952C509.737 207.957 510.852 207.459 512.274 207.459C513.696 207.459 514.811 207.957 515.621 208.952C516.432 209.933 516.837 211.227 516.837 212.834C516.837 214.44 516.432 215.742 515.621 216.737C514.811 217.718 513.696 218.209 512.274 218.209C510.852 218.209 509.737 217.718 508.927 216.737C508.116 215.742 507.711 214.44 507.711 212.834ZM509.203 212.834C509.203 214.313 509.488 215.436 510.056 216.204C510.639 216.957 511.378 217.334 512.274 217.334C513.156 217.334 513.887 216.957 514.471 216.204C515.053 215.436 515.345 214.313 515.345 212.834C515.345 211.355 515.053 210.239 514.471 209.485C513.887 208.718 513.156 208.334 512.274 208.334C511.378 208.334 510.639 208.718 510.056 209.485C509.488 210.239 509.203 211.355 509.203 212.834ZM520.76 218.06H519.481V209.826C519.481 209.4 519.417 209.073 519.289 208.845C519.176 208.603 518.983 208.447 518.713 208.376C518.514 208.32 518.373 208.269 518.287 208.227C518.201 208.184 518.159 208.113 518.159 208.014C518.159 207.828 518.33 207.736 518.671 207.736H520.185C520.569 207.736 520.76 207.957 520.76 208.398V210.445C520.96 209.677 521.379 209.009 522.018 208.44C522.687 207.857 523.469 207.566 524.364 207.566C525.16 207.566 525.821 207.864 526.347 208.462C526.887 209.059 527.157 210.118 527.157 211.639V218.06H525.835V211.469C525.835 210.516 525.665 209.819 525.324 209.378C524.997 208.938 524.549 208.718 523.981 208.718C523.128 208.718 522.374 209.18 521.72 210.104C521.165 210.857 520.846 211.995 520.76 213.516V218.06ZM542.638 214.049C542.595 213.367 542.318 212.77 541.806 212.258C541.295 211.732 540.513 211.206 539.461 210.68C538.366 210.111 537.527 209.485 536.945 208.803C536.376 208.106 536.106 207.26 536.134 206.264C536.163 205.284 536.533 204.481 537.243 203.855C537.968 203.229 538.935 202.916 540.143 202.916C540.826 202.916 541.401 202.966 541.87 203.065C542.354 203.15 542.816 203.265 543.257 203.407V204.58C542.887 204.409 542.411 204.253 541.827 204.111C541.259 203.954 540.684 203.876 540.1 203.876C539.447 203.876 538.863 204.104 538.352 204.559C537.84 204.999 537.584 205.597 537.584 206.35C537.584 207.046 537.854 207.658 538.394 208.184C538.949 208.696 539.781 209.251 540.889 209.848C541.999 210.445 542.809 211.078 543.321 211.746C543.846 212.414 544.109 213.196 544.109 214.092C544.109 215.215 543.726 216.168 542.958 216.95C542.19 217.718 541.089 218.138 539.653 218.209C539.113 218.237 538.537 218.187 537.925 218.06C537.329 217.917 536.846 217.74 536.476 217.526C536.262 217.398 536.113 217.263 536.028 217.121C535.957 216.979 535.957 216.815 536.028 216.63C536.099 216.46 536.212 216.353 536.369 216.31C536.54 216.268 536.703 216.296 536.86 216.395C537.186 216.609 537.62 216.786 538.16 216.929C538.7 217.071 539.219 217.128 539.716 217.099C540.726 217.043 541.479 216.722 541.977 216.14C542.475 215.557 542.695 214.86 542.638 214.049ZM546.86 221.664C546.263 221.55 545.787 221.259 545.432 220.79C545.076 220.32 544.898 219.751 544.898 219.083H546.177C546.177 219.268 546.206 219.474 546.263 219.702C546.32 219.929 546.391 220.1 546.476 220.213C546.59 220.37 546.761 220.505 546.988 220.618C547.216 220.747 547.464 220.79 547.734 220.747C548.09 220.69 548.367 220.498 548.566 220.171C548.779 219.858 548.985 219.431 549.184 218.891L549.61 217.59L546.732 210.125C546.59 209.656 546.426 209.244 546.242 208.888C546.057 208.532 545.829 208.312 545.559 208.227C545.389 208.184 545.26 208.149 545.175 208.12C545.104 208.092 545.069 208.035 545.069 207.95C545.069 207.807 545.239 207.736 545.581 207.736H547.286L550.229 215.735L552.916 207.736H553.705C553.861 207.736 553.96 207.779 554.003 207.864C554.046 207.936 554.039 208.042 553.982 208.184L550.165 219.147C549.739 220.399 549.241 221.159 548.672 221.429C548.118 221.713 547.514 221.791 546.86 221.664ZM558.545 213.132C557.536 212.777 556.747 212.35 556.178 211.853C555.609 211.341 555.326 210.758 555.326 210.104C555.326 209.265 555.616 208.603 556.2 208.12C556.796 207.623 557.664 207.359 558.801 207.331C559.298 207.317 559.782 207.359 560.251 207.459C560.734 207.545 561.153 207.651 561.509 207.779V209.102C561.253 208.916 560.869 208.725 560.357 208.525C559.86 208.312 559.341 208.212 558.801 208.227C558.147 208.241 557.621 208.384 557.223 208.653C556.839 208.923 556.64 209.322 556.626 209.848C556.612 210.332 556.839 210.758 557.308 211.128C557.791 211.483 558.453 211.81 559.291 212.108C560.329 212.492 561.075 212.926 561.53 213.41C561.985 213.893 562.213 214.44 562.213 215.052C562.213 216.062 561.879 216.844 561.21 217.398C560.542 217.938 559.611 218.209 558.417 218.209C557.834 218.209 557.272 218.123 556.733 217.952C556.207 217.768 555.809 217.568 555.538 217.356C555.311 217.185 555.176 217.05 555.133 216.95C555.105 216.836 555.126 216.708 555.197 216.566C555.283 216.424 555.396 216.346 555.538 216.331C555.695 216.303 555.844 216.346 555.986 216.46C556.271 216.701 556.633 216.908 557.074 217.078C557.529 217.235 557.984 217.306 558.438 217.292C559.362 217.263 560.016 217.035 560.4 216.609C560.798 216.183 560.969 215.67 560.912 215.073C560.883 214.746 560.698 214.426 560.357 214.113C560.016 213.801 559.412 213.474 558.545 213.132ZM566.52 204.516V207.736H569.377V208.589H566.541V215.713C566.541 216.268 566.676 216.68 566.947 216.95C567.216 217.206 567.628 217.334 568.183 217.334C568.467 217.334 568.73 217.327 568.972 217.313C569.214 217.299 569.412 217.27 569.569 217.228V218.102C569.398 218.159 569.114 218.201 568.716 218.23C568.318 218.258 568.019 218.272 567.821 218.272C567.209 218.272 566.726 218.216 566.37 218.102C566.029 217.974 565.774 217.782 565.603 217.526C565.418 217.285 565.304 216.972 565.262 216.588C565.219 216.19 565.198 215.728 565.198 215.201V208.589H563.662V207.736H565.198V205.795L566.52 204.516ZM572.49 212.94C572.533 214.178 572.874 215.194 573.514 215.99C574.153 216.772 575.027 217.213 576.136 217.313C576.549 217.356 576.975 217.341 577.416 217.27C577.871 217.199 578.318 217.057 578.759 216.844C578.901 216.772 579.022 216.758 579.122 216.801C579.221 216.844 579.278 216.908 579.292 216.993C579.321 217.092 579.306 217.199 579.249 217.313C579.193 217.412 579.107 217.497 578.994 217.568C578.624 217.782 578.162 217.952 577.608 218.081C577.067 218.194 576.457 218.23 575.774 218.187C574.48 218.102 573.365 217.568 572.426 216.588C571.488 215.606 571.019 214.227 571.019 212.45C571.019 210.871 571.438 209.649 572.277 208.782C573.116 207.9 574.203 207.459 575.54 207.459C576.648 207.459 577.579 207.857 578.333 208.653C579.086 209.45 579.463 210.623 579.463 212.173V212.94H572.49ZM572.49 212.023H578.12C578.12 210.687 577.864 209.741 577.352 209.187C576.855 208.618 576.243 208.334 575.518 208.334C574.694 208.334 573.99 208.66 573.407 209.315C572.824 209.955 572.519 210.857 572.49 212.023ZM583.408 218.06H582.107V209.826C582.107 209.4 582.05 209.073 581.936 208.845C581.822 208.603 581.645 208.454 581.403 208.398C581.162 208.327 580.998 208.269 580.913 208.227C580.842 208.184 580.806 208.113 580.806 208.014C580.806 207.828 580.976 207.736 581.318 207.736H582.832C583.216 207.736 583.408 207.957 583.408 208.398V210.296C583.521 209.613 583.813 209.023 584.282 208.525C584.893 207.886 585.632 207.566 586.499 207.566C587.267 207.566 587.871 207.836 588.312 208.376C588.625 208.789 588.824 209.457 588.909 210.381C589.065 209.713 589.357 209.123 589.783 208.61C590.38 207.914 591.127 207.566 592.022 207.566C592.776 207.566 593.372 207.85 593.813 208.419C594.268 208.987 594.496 210.033 594.496 211.554V218.06H593.174V211.533C593.174 210.594 593.038 209.884 592.769 209.4C592.498 208.902 592.107 208.653 591.596 208.653C590.942 208.653 590.309 209.137 589.698 210.104C589.343 210.659 589.094 211.505 588.952 212.642V218.06H587.651V211.533C587.651 210.58 587.523 209.862 587.267 209.378C587.025 208.895 586.627 208.653 586.073 208.653C585.476 208.653 584.871 209.094 584.261 209.976C583.82 210.63 583.535 211.639 583.408 213.005V218.06Z" fill="#EBD197"/>
<path d="M179.986 86.9148H186.259C187.946 86.9148 189.157 86.6584 189.89 86.1441C190.624 85.6305 190.991 84.8048 190.991 83.6677C190.991 83.0801 191.541 82.787 192.642 82.787C193.779 82.787 194.348 83.0801 194.348 83.6677V94.1256C194.348 94.7491 193.779 95.0612 192.642 95.0612C191.541 95.0612 190.991 94.7491 190.991 94.1256C190.991 93.0245 190.606 92.1804 189.835 91.5936C189.102 91.006 187.891 90.7129 186.204 90.7129H179.986V109.757H174.098V76.1821C174.098 75.0077 173.969 74.2003 173.713 73.7599C173.492 73.3196 173.18 73.0449 172.777 72.9342C172.3 72.7877 171.86 72.6045 171.457 72.384C171.053 72.1276 170.851 71.7422 170.851 71.2286C170.851 70.3109 171.493 69.8522 172.777 69.8522H196.164L196.439 76.7323C196.439 77.6863 195.889 78.1815 194.788 78.2182C193.687 78.2182 193.027 77.7412 192.807 76.7873C192.55 75.7601 192.184 74.9893 191.707 74.4757C191.229 73.9621 190.202 73.705 188.625 73.705H182.242C180.738 73.705 179.986 74.4208 179.986 75.8517V86.9148ZM219.495 109.757L215.479 97.0973H203.922L199.905 109.757H194.238L204.858 76.9521C205.445 75.0443 205.665 73.9438 205.518 73.65C205.372 73.3196 205.023 73.0815 204.472 72.9342C203.776 72.7877 203.226 72.6045 202.822 72.384C202.455 72.1276 202.272 71.7239 202.272 71.1729C202.272 70.2926 202.95 69.8522 204.308 69.8522H212.452L225.768 109.757H219.495ZM214.157 93.0244L209.59 78.879L205.133 93.0244H214.157ZM235.068 103.317C235.068 104.748 235.838 105.464 237.379 105.464H244.203C245.523 105.464 246.459 105.189 247.009 104.638C247.559 104.051 247.962 102.95 248.219 101.336C248.366 100.418 249.027 99.9964 250.2 100.07C251.411 100.143 252.016 100.62 252.016 101.501L251.576 109.757H229.18V76.237C229.18 75.0992 229.106 74.3292 228.96 73.9255C228.813 73.5218 228.501 73.2463 228.024 73.0998C227.401 72.9526 226.832 72.7694 226.318 72.5489C225.805 72.3291 225.548 71.9254 225.548 71.3385C225.548 70.3843 226.264 69.9073 227.694 69.9073H233.032C234.389 69.9073 235.068 70.4943 235.068 71.6682V103.317ZM281.676 107.28C280.796 107.904 279.511 108.509 277.824 109.097C276.136 109.647 274.357 109.977 272.486 110.087C266.323 110.454 261.408 108.637 257.739 104.638C254.07 100.602 252.236 95.3909 252.236 89.0065C252.236 83.1724 253.685 78.4021 256.584 74.6956C259.519 70.9898 263.81 69.1367 269.46 69.1367C273.055 69.1367 276.081 70.1091 278.539 72.0536C280.997 73.9621 282.226 76.1638 282.226 78.6585H275.843C275.769 77.0811 275.128 75.815 273.917 74.8611C272.707 73.8706 271.147 73.3746 269.24 73.3746C266.342 73.3746 263.828 74.7322 261.701 77.4481C259.574 80.1267 258.509 83.6677 258.509 88.0709C258.509 94.7125 260.069 99.4095 263.187 102.161C266.305 104.913 269.644 106.106 273.202 105.739C274.412 105.629 275.495 105.427 276.448 105.133C277.402 104.803 278.246 104.455 278.98 104.088C279.787 103.611 280.502 103.446 281.126 103.592C281.786 103.702 282.226 104.033 282.447 104.583C282.703 105.06 282.74 105.555 282.556 106.069C282.373 106.583 282.08 106.987 281.676 107.28ZM284.262 89.5568C284.262 83.5761 285.748 78.6768 288.719 74.8611C291.728 71.0447 295.909 69.1367 301.265 69.1367C306.585 69.1367 310.73 71.0447 313.702 74.8611C316.709 78.6768 318.214 83.5761 318.214 89.5568C318.214 95.5748 316.709 100.51 313.702 104.363C310.73 108.179 306.585 110.087 301.265 110.087C295.909 110.087 291.728 108.179 288.719 104.363C285.748 100.51 284.262 95.5748 284.262 89.5568ZM290.425 89.5568C290.425 94.7674 291.452 98.7853 293.507 101.61C295.598 104.436 298.184 105.849 301.265 105.849C304.347 105.849 306.915 104.436 308.969 101.61C311.024 98.7853 312.051 94.7674 312.051 89.5568C312.051 84.3828 311.024 80.3832 308.969 77.558C306.915 74.7322 304.347 73.3196 301.265 73.3196C298.184 73.3196 295.598 74.7322 293.507 77.558C291.452 80.3832 290.425 84.3828 290.425 89.5568ZM330.21 69.8522L343.692 99.3539V69.8522H349.36V107.225C349.36 108.913 348.35 109.757 346.333 109.757H342.756L328.724 79.4842V109.757H323.387V76.1271C323.387 75.026 323.331 74.2735 323.221 73.8706C323.111 73.4295 322.818 73.1364 322.341 72.9899C321.717 72.806 321.186 72.6228 320.745 72.439C320.305 72.2558 320.085 71.8887 320.085 71.3385C320.085 70.3476 320.782 69.8522 322.176 69.8522H330.21Z" fill="#EBD197"/>
<path d="M180.723 129.208V150.41H192.114C196.34 150.41 199.641 149.386 202.019 147.339C204.396 145.291 205.585 142.088 205.585 137.728C205.585 133.898 204.198 130.892 201.424 128.713C198.651 126.467 195.25 125.344 191.222 125.344H185.378C182.275 125.344 180.723 126.632 180.723 129.208ZM180.723 181.222C180.723 183.798 182.275 185.086 185.378 185.086H191.42C196.241 185.086 200.335 183.897 203.703 181.519C207.07 179.076 208.754 175.608 208.754 171.117C208.754 165.898 207.169 162.068 204 159.624C200.83 157.18 196.868 155.958 192.114 155.958H180.723V181.222ZM193.402 190.237H173.394V130.496C173.394 128.515 173.097 127.029 172.502 126.038C171.974 125.047 171.148 124.42 170.026 124.155C168.903 123.892 168.144 123.594 167.748 123.264C167.351 122.933 167.153 122.471 167.153 121.877C167.153 120.754 167.979 120.193 169.63 120.193H192.213C198.882 120.193 204.065 121.612 207.763 124.452C211.461 127.293 213.31 131.421 213.31 136.837C213.31 140.734 212.32 144.102 210.339 146.942C208.358 149.717 205.683 151.632 202.316 152.688V152.887C206.872 153.811 210.339 155.859 212.716 159.029C215.159 162.134 216.381 166.163 216.381 171.117C216.381 176.929 214.466 181.585 210.636 185.086C206.806 188.52 201.061 190.237 193.402 190.237ZM247.68 125.245H241.143C238.04 125.245 236.488 126.534 236.488 129.109V190.237H229.059V130.397C229.059 128.415 228.762 126.963 228.167 126.038C227.639 125.047 226.814 124.42 225.692 124.155C224.569 123.892 223.81 123.594 223.413 123.264C223.017 122.933 222.819 122.471 222.819 121.877C222.819 120.754 223.644 120.193 225.295 120.193H247.482C254.547 120.193 260.061 121.91 264.023 125.344C267.985 128.713 269.966 133.303 269.966 139.116C269.966 145.456 268.051 150.344 264.222 153.778C260.458 157.147 255.406 158.997 249.067 159.326L269.669 190.237H260.655L240.053 158.93C239.129 157.676 238.865 156.586 239.261 155.661C239.723 154.67 240.714 154.175 242.233 154.175H246.095C250.783 154.175 254.647 152.887 257.684 150.311C260.722 147.669 262.24 143.937 262.24 139.116C262.306 134.889 260.853 131.52 257.882 129.01C254.977 126.5 251.576 125.245 247.68 125.245ZM275.414 154.77C275.414 144.135 277.989 135.516 283.14 128.911C288.29 122.24 295.356 118.904 304.336 118.904C313.251 118.904 320.283 122.24 325.434 128.911C330.584 135.516 333.16 144.135 333.16 154.77C333.16 165.469 330.584 174.154 325.434 180.826C320.283 187.497 313.251 190.832 304.336 190.832C295.356 190.832 288.29 187.497 283.14 180.826C277.989 174.154 275.414 165.469 275.414 154.77ZM283.239 154.77C283.239 164.281 285.153 171.71 288.984 177.061C292.879 182.411 297.997 185.086 304.336 185.086C310.609 185.086 315.694 182.411 319.59 177.061C323.485 171.71 325.434 164.281 325.434 154.77C325.434 145.324 323.485 137.926 319.59 132.577C315.694 127.227 310.609 124.552 304.336 124.552C297.997 124.552 292.879 127.227 288.984 132.577C285.153 137.926 283.239 145.324 283.239 154.77ZM349.305 125.344C346.003 125.344 343.823 126.401 342.767 128.515C341.71 130.628 341.149 132.577 341.084 134.36C341.017 135.483 340.357 136.045 339.102 136.045C337.914 135.978 337.319 135.417 337.319 134.36L337.815 120.193H386.844L387.339 134.36C387.339 135.417 386.712 135.978 385.457 136.045C384.268 136.045 383.642 135.483 383.575 134.36C383.509 132.577 382.948 130.628 381.891 128.515C380.835 126.401 378.656 125.344 375.354 125.344H366.043V190.237H358.615V125.344H349.305ZM404.673 190.237H397.244V130.595C397.244 128.614 396.98 127.128 396.452 126.137C395.923 125.146 395.065 124.519 393.876 124.254C392.688 123.99 391.797 123.759 391.202 123.561C390.608 123.297 390.31 122.802 390.31 122.075C390.31 120.886 391.136 120.292 392.787 120.292H401.701C403.682 120.292 404.673 121.348 404.673 123.462V150.41H433.397V120.193H440.726V190.237H433.397V155.958H404.673V190.237ZM464.894 151.4H478.563C481.468 151.4 483.681 150.84 485.199 149.717C486.718 148.527 487.477 146.975 487.477 145.06C487.477 144.135 488.006 143.673 489.062 143.673C490.185 143.673 490.746 144.135 490.746 145.06V162.893C490.746 163.884 490.185 164.379 489.062 164.379C488.006 164.379 487.477 163.884 487.477 162.893C487.477 161.044 486.718 159.492 485.199 158.237C483.681 156.982 481.468 156.355 478.563 156.355H464.894V181.222C464.894 183.798 466.446 185.086 469.549 185.086H484.506C487.543 185.086 489.557 184.26 490.548 182.609C491.539 180.892 492.166 179.207 492.43 177.556C492.694 176.367 493.387 175.839 494.51 175.971C495.633 176.037 496.194 176.598 496.194 177.655L495.5 190.237H457.466V130.397C457.466 128.415 457.168 126.963 456.574 126.038C456.046 125.047 455.22 124.42 454.098 124.155C452.975 123.892 452.216 123.627 451.82 123.363C451.424 123.033 451.226 122.538 451.226 121.877C451.226 120.754 452.051 120.193 453.702 120.193H494.015L494.51 131.883C494.51 132.94 493.916 133.501 492.727 133.568C491.605 133.568 491.01 133.006 490.944 131.883C490.879 130.562 490.284 129.142 489.161 127.623C488.039 126.104 485.827 125.344 482.525 125.344H469.549C466.446 125.344 464.894 126.632 464.894 129.208V151.4ZM528.781 125.245H522.244C519.14 125.245 517.588 126.534 517.588 129.109V190.237H510.159V130.397C510.159 128.415 509.863 126.963 509.268 126.038C508.74 125.047 507.915 124.42 506.792 124.155C505.67 123.892 504.91 123.594 504.514 123.264C504.117 122.933 503.92 122.471 503.92 121.877C503.92 120.754 504.745 120.193 506.396 120.193H528.583C535.648 120.193 541.162 121.91 545.124 125.344C549.086 128.713 551.067 133.303 551.067 139.116C551.067 145.456 549.152 150.344 545.322 153.778C541.558 157.147 536.507 158.997 530.168 159.326L550.77 190.237H541.756L521.154 158.93C520.229 157.676 519.965 156.586 520.362 155.661C520.824 154.67 521.814 154.175 523.333 154.175H527.196C531.884 154.175 535.748 152.887 538.785 150.311C541.823 147.669 543.341 143.937 543.341 139.116C543.407 134.889 541.954 131.52 538.983 129.01C536.077 126.5 532.677 125.245 528.781 125.245ZM587.121 171.117C586.923 168.078 585.668 165.403 583.357 163.091C581.046 160.78 577.48 158.369 572.66 155.859C567.509 153.217 563.547 150.278 560.774 147.042C558.066 143.739 556.779 139.71 556.911 134.955C557.043 130.265 558.826 126.434 562.259 123.462C565.693 120.424 570.282 118.904 576.027 118.904C579.263 118.904 581.97 119.136 584.149 119.598C586.394 119.994 588.672 120.556 590.983 121.282V127.92C588.805 126.996 586.394 126.17 583.753 125.444C581.112 124.717 578.504 124.354 575.929 124.354C572.957 124.354 570.316 125.344 568.005 127.325C565.759 129.307 564.636 131.982 564.636 135.351C564.636 138.455 565.892 141.196 568.4 143.574C570.909 145.885 574.706 148.429 579.791 151.203C584.941 153.977 588.738 156.949 591.182 160.119C593.691 163.289 594.946 167.021 594.946 171.315C594.946 176.665 593.096 181.189 589.398 184.888C585.767 188.587 580.55 190.601 573.749 190.931C571.24 191.063 568.533 190.832 565.627 190.237C562.788 189.643 560.477 188.785 558.694 187.662C557.637 187.001 556.878 186.308 556.415 185.581C556.019 184.789 556.019 183.897 556.415 182.906C556.812 181.982 557.472 181.42 558.397 181.222C559.321 180.958 560.212 181.09 561.071 181.618C562.523 182.543 564.472 183.335 566.915 183.996C569.424 184.657 571.801 184.92 574.047 184.789C578.602 184.458 581.97 183.005 584.149 180.43C586.394 177.853 587.385 174.749 587.121 171.117Z" fill="#EBD197"/>
<path fill-rule="evenodd" clip-rule="evenodd" d="M86.7355 1.05589C96.259 1.83342 105.276 4.49118 113.585 8.72636C115.701 14.4434 118.805 19.6812 122.689 24.2328C116.137 22.5113 109.394 21.3473 102.489 20.7835C88.0491 19.6047 73.8859 21.1314 60.3191 25.0183C55.3411 34.0523 51.9224 43.6844 50.2476 53.8474C50.1189 54.6282 50.001 55.4094 49.8938 56.1909C69.2211 82.6412 92.0602 96.1253 111.588 107.654C112.764 108.349 113.928 109.037 115.08 109.719C126.778 116.659 137.048 123.097 144.401 131.561C151.506 139.738 155.898 149.821 156.171 164.115C147.379 148.098 135.1 138.749 123.522 131.893C119.686 129.623 115.916 127.62 112.38 125.741L112.38 125.741L112.379 125.741L112.349 125.725L112.297 125.698L112.297 125.697L112.295 125.696C110.396 124.687 108.564 123.714 106.827 122.754C101.817 119.987 97.5827 117.329 94.6413 114.219C94.5498 114.122 94.411 114.085 94.2835 114.124C94.156 114.163 94.0609 114.27 94.0384 114.401C92.7438 121.877 97.944 127.713 105.52 133.55C108.456 135.813 111.776 138.095 115.256 140.487L115.257 140.488L115.268 140.496L115.48 140.641C116.431 141.295 117.394 141.957 118.363 142.629C122.967 145.821 127.737 149.247 132.215 153.116C141.17 160.854 148.937 170.351 151.867 183.265C154.705 195.772 153.016 211.539 143.377 232.096C146.193 210.184 143.393 194.27 137.518 182.42C131.446 170.171 122.107 162.302 112.376 156.643C105.472 152.628 98.3431 149.713 92.0534 147.141L92.05 147.14C89.4932 146.094 87.0752 145.105 84.8664 144.122C82.0407 142.864 79.5636 141.619 77.5623 140.28C84.9079 149.481 93.5548 158.403 103.362 166.935C76.3611 155.261 54.303 139.904 39.6351 122.857C24.591 105.373 17.3411 86.139 20.4498 67.2744C22.6086 54.1743 29.5569 42.5077 40.2513 32.6736C25.9261 39.5499 12.5384 49.1286 0.527832 60.9347C17.5155 22.8496 50.7544 -1.8815 86.7355 1.05589ZM49.0879 66.8035C48.7409 89.3606 57.0049 111.933 72.2113 133.205C72.1847 133.013 72.1652 132.819 72.1529 132.622C74.118 133.281 75.874 133.433 77.425 133.154C79.1069 132.852 80.5241 132.047 81.6856 130.878C83.9979 128.55 85.2939 124.785 85.7327 120.619C86.173 116.443 85.7581 111.811 84.5959 107.694C83.4359 103.583 81.5179 99.9418 78.9146 97.7937C65.6535 86.8515 55.478 76.9275 49.0879 66.8035ZM106.478 33.6753C115.907 35.2558 123.273 39.119 127.8 45.4768C130.798 49.6886 132.356 54.7227 132.602 60.384C138.859 48.472 140.16 38.1942 135.423 31.5409C131.259 25.6913 122.923 23.3339 111.905 24.2283C101.58 25.0665 88.9921 28.7565 75.5208 34.9807C87.2481 32.6988 97.757 32.2136 106.478 33.6753Z" fill="url(#paint0_linear_210_10)"/>
<defs>
<linearGradient id="paint0_linear_210_10" x1="76.0148" y1="0.819813" x2="76.0148" y2="243.251" gradientUnits="userSpaceOnUse">
<stop offset="0.0729167" stop-color="#E3A455"/>
<stop offset="0.244792" stop-color="#F6DBA6"/>
<stop offset="0.434957" stop-color="#FFEBC4"/>
<stop offset="0.532623" stop-color="#F0BE79"/>
<stop offset="0.773898" stop-color="#EEBC70"/>
<stop offset="0.909722" stop-color="#855E36"/>
<stop offset="1" stop-color="#3F1F0F"/>
</linearGradient>
</defs>
</svg>
