<svg width="500" height="439" viewBox="0 0 500 439" fill="none" xmlns="http://www.w3.org/2000/svg">
<path d="M25.275 304.412H0.875L0.975 303.412H2.175C3.90833 303.412 5.375 302.812 6.575 301.612C7.84167 300.412 8.50833 298.946 8.575 297.212V241.612C8.575 239.879 7.94167 238.412 6.675 237.212C5.40833 236.012 3.90833 235.412 2.175 235.412H0.975L0.875 234.412H20.775C27.6417 234.412 32.975 235.946 36.775 239.012C40.575 242.012 42.475 246.046 42.475 251.112C42.475 255.112 41.4083 258.446 39.275 261.112C37.1417 263.712 34.5417 265.446 31.475 266.312C36.7417 267.112 40.9083 269.279 43.975 272.812C47.0417 276.346 48.575 280.812 48.575 286.212C48.575 291.546 46.5083 295.912 42.375 299.312C38.3083 302.712 32.6083 304.412 25.275 304.412ZM15.075 300.812H24.875C24.9417 300.812 25.0083 300.812 25.075 300.812C30.1417 300.812 34.075 299.446 36.875 296.712C39.675 293.912 41.075 289.979 41.075 284.912C41.075 282.046 40.575 279.546 39.575 277.412C38.6417 275.212 37.4417 273.479 35.975 272.212C32.1083 269.012 26.3083 267.412 18.575 267.412C18.575 267.412 18.5417 267.412 18.475 267.412V266.512C18.5417 266.512 18.8417 266.512 19.375 266.512C19.975 266.512 20.8083 266.446 21.875 266.312C22.9417 266.179 24.1417 265.946 25.475 265.612C26.8083 265.279 28.0083 264.746 29.075 264.012C30.1417 263.279 31.1417 262.412 32.075 261.412C34.0083 259.212 34.975 255.946 34.975 251.612C34.975 247.212 33.7083 243.779 31.175 241.312C28.7083 238.846 25.1083 237.612 20.375 237.612H15.075V300.812Z" fill="url(#paint0_linear_48_32)"/>
<path d="M25.275 304.412H0.875L0.975 303.412H2.175C3.90833 303.412 5.375 302.812 6.575 301.612C7.84167 300.412 8.50833 298.946 8.575 297.212V241.612C8.575 239.879 7.94167 238.412 6.675 237.212C5.40833 236.012 3.90833 235.412 2.175 235.412H0.975L0.875 234.412H20.775C27.6417 234.412 32.975 235.946 36.775 239.012C40.575 242.012 42.475 246.046 42.475 251.112C42.475 255.112 41.4083 258.446 39.275 261.112C37.1417 263.712 34.5417 265.446 31.475 266.312C36.7417 267.112 40.9083 269.279 43.975 272.812C47.0417 276.346 48.575 280.812 48.575 286.212C48.575 291.546 46.5083 295.912 42.375 299.312C38.3083 302.712 32.6083 304.412 25.275 304.412ZM15.075 300.812H24.875C24.9417 300.812 25.0083 300.812 25.075 300.812C30.1417 300.812 34.075 299.446 36.875 296.712C39.675 293.912 41.075 289.979 41.075 284.912C41.075 282.046 40.575 279.546 39.575 277.412C38.6417 275.212 37.4417 273.479 35.975 272.212C32.1083 269.012 26.3083 267.412 18.575 267.412C18.575 267.412 18.5417 267.412 18.475 267.412V266.512C18.5417 266.512 18.8417 266.512 19.375 266.512C19.975 266.512 20.8083 266.446 21.875 266.312C22.9417 266.179 24.1417 265.946 25.475 265.612C26.8083 265.279 28.0083 264.746 29.075 264.012C30.1417 263.279 31.1417 262.412 32.075 261.412C34.0083 259.212 34.975 255.946 34.975 251.612C34.975 247.212 33.7083 243.779 31.175 241.312C28.7083 238.846 25.1083 237.612 20.375 237.612H15.075V300.812Z" fill="white" fill-opacity="0.3"/>
<path d="M59.3922 303.412C60.9922 303.412 62.3255 302.912 63.3922 301.912C64.5255 300.846 65.1255 299.579 65.1922 298.112V250.612C65.1922 249.146 64.6255 247.912 63.4922 246.912C62.3589 245.912 60.9922 245.412 59.3922 245.412H57.9922V244.412H87.1922C89.9255 244.412 92.3255 244.212 94.3922 243.812C96.4589 243.412 97.7922 243.079 98.3922 242.812V254.212L97.2922 254.112V252.612C97.2922 251.212 96.8255 250.012 95.8922 249.012C94.9589 248.012 93.7589 247.512 92.2922 247.512H71.4922V272.912H88.5922C89.9255 272.912 90.9255 272.512 91.5922 271.712C92.3255 270.912 92.6922 269.912 92.6922 268.712V267.412H93.7922V281.412H92.6922V280.112C92.6922 278.246 91.9922 276.979 90.5922 276.312C90.0589 276.112 89.4922 275.979 88.8922 275.912H71.4922V301.312H87.1922C90.2589 301.312 92.8255 300.779 94.8922 299.712C97.0255 298.646 98.6255 297.379 99.6922 295.912C100.826 294.446 101.959 292.512 103.092 290.112H104.092L98.5922 304.412H57.9922V303.412H59.3922Z" fill="url(#paint1_linear_48_32)"/>
<path d="M59.3922 303.412C60.9922 303.412 62.3255 302.912 63.3922 301.912C64.5255 300.846 65.1255 299.579 65.1922 298.112V250.612C65.1922 249.146 64.6255 247.912 63.4922 246.912C62.3589 245.912 60.9922 245.412 59.3922 245.412H57.9922V244.412H87.1922C89.9255 244.412 92.3255 244.212 94.3922 243.812C96.4589 243.412 97.7922 243.079 98.3922 242.812V254.212L97.2922 254.112V252.612C97.2922 251.212 96.8255 250.012 95.8922 249.012C94.9589 248.012 93.7589 247.512 92.2922 247.512H71.4922V272.912H88.5922C89.9255 272.912 90.9255 272.512 91.5922 271.712C92.3255 270.912 92.6922 269.912 92.6922 268.712V267.412H93.7922V281.412H92.6922V280.112C92.6922 278.246 91.9922 276.979 90.5922 276.312C90.0589 276.112 89.4922 275.979 88.8922 275.912H71.4922V301.312H87.1922C90.2589 301.312 92.8255 300.779 94.8922 299.712C97.0255 298.646 98.6255 297.379 99.6922 295.912C100.826 294.446 101.959 292.512 103.092 290.112H104.092L98.5922 304.412H57.9922V303.412H59.3922Z" fill="white" fill-opacity="0.3"/>
<path d="M162.482 304.412H138.082L138.182 303.412H139.382C141.115 303.412 142.582 302.812 143.782 301.612C145.049 300.412 145.715 298.946 145.782 297.212V241.612C145.782 239.879 145.149 238.412 143.882 237.212C142.615 236.012 141.115 235.412 139.382 235.412H138.182L138.082 234.412H157.982C164.849 234.412 170.182 235.946 173.982 239.012C177.782 242.012 179.682 246.046 179.682 251.112C179.682 255.112 178.615 258.446 176.482 261.112C174.349 263.712 171.749 265.446 168.682 266.312C173.949 267.112 178.115 269.279 181.182 272.812C184.249 276.346 185.782 280.812 185.782 286.212C185.782 291.546 183.715 295.912 179.582 299.312C175.515 302.712 169.815 304.412 162.482 304.412ZM152.282 300.812H162.082C162.149 300.812 162.215 300.812 162.282 300.812C167.349 300.812 171.282 299.446 174.082 296.712C176.882 293.912 178.282 289.979 178.282 284.912C178.282 282.046 177.782 279.546 176.782 277.412C175.849 275.212 174.649 273.479 173.182 272.212C169.315 269.012 163.515 267.412 155.782 267.412C155.782 267.412 155.749 267.412 155.682 267.412V266.512C155.749 266.512 156.049 266.512 156.582 266.512C157.182 266.512 158.015 266.446 159.082 266.312C160.149 266.179 161.349 265.946 162.682 265.612C164.015 265.279 165.215 264.746 166.282 264.012C167.349 263.279 168.349 262.412 169.282 261.412C171.215 259.212 172.182 255.946 172.182 251.612C172.182 247.212 170.915 243.779 168.382 241.312C165.915 238.846 162.315 237.612 157.582 237.612H152.282V300.812Z" fill="url(#paint2_linear_48_32)"/>
<path d="M162.482 304.412H138.082L138.182 303.412H139.382C141.115 303.412 142.582 302.812 143.782 301.612C145.049 300.412 145.715 298.946 145.782 297.212V241.612C145.782 239.879 145.149 238.412 143.882 237.212C142.615 236.012 141.115 235.412 139.382 235.412H138.182L138.082 234.412H157.982C164.849 234.412 170.182 235.946 173.982 239.012C177.782 242.012 179.682 246.046 179.682 251.112C179.682 255.112 178.615 258.446 176.482 261.112C174.349 263.712 171.749 265.446 168.682 266.312C173.949 267.112 178.115 269.279 181.182 272.812C184.249 276.346 185.782 280.812 185.782 286.212C185.782 291.546 183.715 295.912 179.582 299.312C175.515 302.712 169.815 304.412 162.482 304.412ZM152.282 300.812H162.082C162.149 300.812 162.215 300.812 162.282 300.812C167.349 300.812 171.282 299.446 174.082 296.712C176.882 293.912 178.282 289.979 178.282 284.912C178.282 282.046 177.782 279.546 176.782 277.412C175.849 275.212 174.649 273.479 173.182 272.212C169.315 269.012 163.515 267.412 155.782 267.412C155.782 267.412 155.749 267.412 155.682 267.412V266.512C155.749 266.512 156.049 266.512 156.582 266.512C157.182 266.512 158.015 266.446 159.082 266.312C160.149 266.179 161.349 265.946 162.682 265.612C164.015 265.279 165.215 264.746 166.282 264.012C167.349 263.279 168.349 262.412 169.282 261.412C171.215 259.212 172.182 255.946 172.182 251.612C172.182 247.212 170.915 243.779 168.382 241.312C165.915 238.846 162.315 237.612 157.582 237.612H152.282V300.812Z" fill="white" fill-opacity="0.3"/>
<path d="M196.599 303.412C198.199 303.412 199.533 302.912 200.599 301.912C201.733 300.846 202.333 299.579 202.399 298.112V250.612C202.399 249.146 201.833 247.912 200.699 246.912C199.566 245.912 198.199 245.412 196.599 245.412H195.199V244.412H224.399C227.133 244.412 229.533 244.212 231.599 243.812C233.666 243.412 234.999 243.079 235.599 242.812V254.212L234.499 254.112V252.612C234.499 251.212 234.033 250.012 233.099 249.012C232.166 248.012 230.966 247.512 229.499 247.512H208.699V272.912H225.799C227.133 272.912 228.133 272.512 228.799 271.712C229.533 270.912 229.899 269.912 229.899 268.712V267.412H230.999V281.412H229.899V280.112C229.899 278.246 229.199 276.979 227.799 276.312C227.266 276.112 226.699 275.979 226.099 275.912H208.699V301.312H224.399C227.466 301.312 230.033 300.779 232.099 299.712C234.233 298.646 235.833 297.379 236.899 295.912C238.033 294.446 239.166 292.512 240.299 290.112H241.299L235.799 304.412H195.199V303.412H196.599Z" fill="url(#paint3_linear_48_32)"/>
<path d="M196.599 303.412C198.199 303.412 199.533 302.912 200.599 301.912C201.733 300.846 202.333 299.579 202.399 298.112V250.612C202.399 249.146 201.833 247.912 200.699 246.912C199.566 245.912 198.199 245.412 196.599 245.412H195.199V244.412H224.399C227.133 244.412 229.533 244.212 231.599 243.812C233.666 243.412 234.999 243.079 235.599 242.812V254.212L234.499 254.112V252.612C234.499 251.212 234.033 250.012 233.099 249.012C232.166 248.012 230.966 247.512 229.499 247.512H208.699V272.912H225.799C227.133 272.912 228.133 272.512 228.799 271.712C229.533 270.912 229.899 269.912 229.899 268.712V267.412H230.999V281.412H229.899V280.112C229.899 278.246 229.199 276.979 227.799 276.312C227.266 276.112 226.699 275.979 226.099 275.912H208.699V301.312H224.399C227.466 301.312 230.033 300.779 232.099 299.712C234.233 298.646 235.833 297.379 236.899 295.912C238.033 294.446 239.166 292.512 240.299 290.112H241.299L235.799 304.412H195.199V303.412H196.599Z" fill="white" fill-opacity="0.3"/>
<path d="M310.289 303.412H311.089V304.412H290.589V303.412H291.389C292.656 303.412 293.622 302.979 294.289 302.112C294.956 301.246 295.289 300.446 295.289 299.712C295.289 298.912 295.156 298.146 294.889 297.412L289.389 284.112H264.089L258.589 297.112C258.256 297.979 258.089 298.812 258.089 299.612C258.089 300.346 258.422 301.179 259.089 302.112C259.756 302.979 260.756 303.412 262.089 303.412H262.889V304.412H243.789V303.412H244.589C245.989 303.412 247.389 302.946 248.789 302.012C250.256 301.012 251.456 299.546 252.389 297.612C266.989 266.412 274.589 250.079 275.189 248.612C276.322 245.812 276.922 243.946 276.989 243.012H277.889L302.589 297.612C304.522 301.479 307.089 303.412 310.289 303.412ZM265.389 281.112H288.189L276.989 253.712L265.389 281.112Z" fill="url(#paint4_linear_48_32)"/>
<path d="M310.289 303.412H311.089V304.412H290.589V303.412H291.389C292.656 303.412 293.622 302.979 294.289 302.112C294.956 301.246 295.289 300.446 295.289 299.712C295.289 298.912 295.156 298.146 294.889 297.412L289.389 284.112H264.089L258.589 297.112C258.256 297.979 258.089 298.812 258.089 299.612C258.089 300.346 258.422 301.179 259.089 302.112C259.756 302.979 260.756 303.412 262.089 303.412H262.889V304.412H243.789V303.412H244.589C245.989 303.412 247.389 302.946 248.789 302.012C250.256 301.012 251.456 299.546 252.389 297.612C266.989 266.412 274.589 250.079 275.189 248.612C276.322 245.812 276.922 243.946 276.989 243.012H277.889L302.589 297.612C304.522 301.479 307.089 303.412 310.289 303.412ZM265.389 281.112H288.189L276.989 253.712L265.389 281.112Z" fill="white" fill-opacity="0.3"/>
<path d="M373.094 245.412H371.594C369.794 245.412 368.427 246.112 367.494 247.512C367.094 248.112 366.86 248.812 366.794 249.612V283.312C366.794 290.246 364.56 295.746 360.094 299.812C355.694 303.812 349.627 305.812 341.894 305.812C334.16 305.812 328.06 303.812 323.594 299.812C319.127 295.812 316.894 290.346 316.894 283.412V249.712C316.894 248.512 316.427 247.512 315.494 246.712C314.56 245.846 313.427 245.412 312.094 245.412H310.594V244.412H329.594V245.412H328.094C326.76 245.412 325.627 245.846 324.694 246.712C323.76 247.512 323.294 248.512 323.294 249.712V282.212C323.294 288.679 324.927 293.779 328.194 297.512C331.527 301.246 336.194 303.112 342.194 303.112C348.26 303.112 353.094 301.346 356.694 297.812C360.36 294.279 362.194 289.446 362.194 283.312V249.712C362.127 248.446 361.627 247.412 360.694 246.612C359.827 245.812 358.727 245.412 357.394 245.412H355.894V244.412H373.094V245.412Z" fill="url(#paint5_linear_48_32)"/>
<path d="M373.094 245.412H371.594C369.794 245.412 368.427 246.112 367.494 247.512C367.094 248.112 366.86 248.812 366.794 249.612V283.312C366.794 290.246 364.56 295.746 360.094 299.812C355.694 303.812 349.627 305.812 341.894 305.812C334.16 305.812 328.06 303.812 323.594 299.812C319.127 295.812 316.894 290.346 316.894 283.412V249.712C316.894 248.512 316.427 247.512 315.494 246.712C314.56 245.846 313.427 245.412 312.094 245.412H310.594V244.412H329.594V245.412H328.094C326.76 245.412 325.627 245.846 324.694 246.712C323.76 247.512 323.294 248.512 323.294 249.712V282.212C323.294 288.679 324.927 293.779 328.194 297.512C331.527 301.246 336.194 303.112 342.194 303.112C348.26 303.112 353.094 301.346 356.694 297.812C360.36 294.279 362.194 289.446 362.194 283.312V249.712C362.127 248.446 361.627 247.412 360.694 246.612C359.827 245.812 358.727 245.412 357.394 245.412H355.894V244.412H373.094V245.412Z" fill="white" fill-opacity="0.3"/>
<path d="M408.813 247.312V298.112C408.88 300.179 409.88 301.712 411.813 302.712C412.68 303.179 413.647 303.412 414.713 303.412H415.813V304.412H395.213V303.412H396.413C398.013 303.412 399.38 302.879 400.513 301.812C401.647 300.746 402.247 299.479 402.313 298.012V247.312H384.213C382.68 247.312 381.447 247.812 380.513 248.812C379.647 249.812 379.213 251.012 379.213 252.412V254.012H378.113V242.712C379.447 243.246 381.313 243.646 383.713 243.912C386.18 244.179 388.013 244.312 389.213 244.312H421.813C426.613 244.312 430.347 243.779 433.013 242.712V254.012H431.913V252.412C431.913 251.012 431.447 249.812 430.513 248.812C429.58 247.812 428.38 247.312 426.913 247.312H408.813Z" fill="url(#paint6_linear_48_32)"/>
<path d="M408.813 247.312V298.112C408.88 300.179 409.88 301.712 411.813 302.712C412.68 303.179 413.647 303.412 414.713 303.412H415.813V304.412H395.213V303.412H396.413C398.013 303.412 399.38 302.879 400.513 301.812C401.647 300.746 402.247 299.479 402.313 298.012V247.312H384.213C382.68 247.312 381.447 247.812 380.513 248.812C379.647 249.812 379.213 251.012 379.213 252.412V254.012H378.113V242.712C379.447 243.246 381.313 243.646 383.713 243.912C386.18 244.179 388.013 244.312 389.213 244.312H421.813C426.613 244.312 430.347 243.779 433.013 242.712V254.012H431.913V252.412C431.913 251.012 431.447 249.812 430.513 248.812C429.58 247.812 428.38 247.312 426.913 247.312H408.813Z" fill="white" fill-opacity="0.3"/>
<path d="M499.902 245.412H498.702C496.902 245.412 495.169 245.912 493.502 246.912C491.902 247.846 490.569 249.046 489.502 250.512L470.302 279.612V298.012C470.302 299.479 470.869 300.746 472.002 301.812C473.136 302.879 474.502 303.412 476.102 303.412H477.302V304.412H456.802V303.412H458.002C459.602 303.412 460.969 302.879 462.102 301.812C463.236 300.746 463.802 299.479 463.802 298.012V279.512L445.302 250.412C443.036 247.079 439.969 245.412 436.102 245.412H434.902V244.412H458.102V245.412H456.902C455.636 245.412 454.702 245.812 454.102 246.612C453.569 247.412 453.302 248.112 453.302 248.712C453.302 249.246 453.369 249.746 453.502 250.212L468.102 276.112L483.602 250.312C483.802 249.779 483.902 249.246 483.902 248.712C483.902 248.112 483.602 247.412 483.002 246.612C482.469 245.812 481.536 245.412 480.202 245.412H479.002V244.412H499.902V245.412Z" fill="url(#paint7_linear_48_32)"/>
<path d="M499.902 245.412H498.702C496.902 245.412 495.169 245.912 493.502 246.912C491.902 247.846 490.569 249.046 489.502 250.512L470.302 279.612V298.012C470.302 299.479 470.869 300.746 472.002 301.812C473.136 302.879 474.502 303.412 476.102 303.412H477.302V304.412H456.802V303.412H458.002C459.602 303.412 460.969 302.879 462.102 301.812C463.236 300.746 463.802 299.479 463.802 298.012V279.512L445.302 250.412C443.036 247.079 439.969 245.412 436.102 245.412H434.902V244.412H458.102V245.412H456.902C455.636 245.412 454.702 245.812 454.102 246.612C453.569 247.412 453.302 248.112 453.302 248.712C453.302 249.246 453.369 249.746 453.502 250.212L468.102 276.112L483.602 250.312C483.802 249.779 483.902 249.246 483.902 248.712C483.902 248.112 483.602 247.412 483.002 246.612C482.469 245.812 481.536 245.412 480.202 245.412H479.002V244.412H499.902V245.412Z" fill="white" fill-opacity="0.3"/>
<path d="M88.9316 428.785V404.786L88.7119 406.275L80.582 428.785H78.9219L70.7188 406.275L70.5234 404.786V428.785H67.374V393.775H69.0098L79.6299 422.486L79.7275 423.78L79.8252 422.486L90.4209 393.775H92.0811V428.785H88.9316Z" fill="url(#paint8_linear_48_32)"/>
<path d="M88.9316 428.785V404.786L88.7119 406.275L80.582 428.785H78.9219L70.7188 406.275L70.5234 404.786V428.785H67.374V393.775H69.0098L79.6299 422.486L79.7275 423.78L79.8252 422.486L90.4209 393.775H92.0811V428.785H88.9316Z" fill="white" fill-opacity="0.3"/>
<path d="M115.299 421.925C115.299 422.934 115.104 423.886 114.713 424.781C114.339 425.676 113.818 426.458 113.15 427.125C112.483 427.792 111.702 428.321 110.807 428.712C109.911 429.086 108.959 429.273 107.95 429.273H105.948C104.939 429.273 103.987 429.086 103.092 428.712C102.197 428.321 101.415 427.792 100.748 427.125C100.081 426.458 99.5518 425.676 99.1611 424.781C98.7868 423.886 98.5996 422.934 98.5996 421.925V410.645C98.5996 409.636 98.7868 408.684 99.1611 407.789C99.5518 406.894 100.081 406.113 100.748 405.445C101.415 404.778 102.197 404.257 103.092 403.883C103.987 403.492 104.939 403.297 105.948 403.297H107.95C108.959 403.297 109.911 403.492 110.807 403.883C111.702 404.257 112.483 404.778 113.15 405.445C113.818 406.113 114.339 406.894 114.713 407.789C115.104 408.684 115.299 409.636 115.299 410.645V421.925ZM112.296 410.475C112.296 409.872 112.182 409.311 111.954 408.79C111.726 408.253 111.417 407.789 111.026 407.398C110.636 407.008 110.172 406.699 109.635 406.471C109.114 406.243 108.552 406.129 107.95 406.129H105.948C105.346 406.129 104.776 406.243 104.239 406.471C103.718 406.699 103.263 407.008 102.872 407.398C102.481 407.789 102.172 408.253 101.944 408.79C101.716 409.311 101.603 409.872 101.603 410.475V422.096C101.603 422.698 101.716 423.268 101.944 423.805C102.172 424.325 102.481 424.781 102.872 425.172C103.263 425.562 103.718 425.872 104.239 426.1C104.776 426.327 105.346 426.441 105.948 426.441H107.95C108.552 426.441 109.114 426.327 109.635 426.1C110.172 425.872 110.636 425.562 111.026 425.172C111.417 424.781 111.726 424.325 111.954 423.805C112.182 423.268 112.296 422.698 112.296 422.096V410.475Z" fill="url(#paint9_linear_48_32)"/>
<path d="M115.299 421.925C115.299 422.934 115.104 423.886 114.713 424.781C114.339 425.676 113.818 426.458 113.15 427.125C112.483 427.792 111.702 428.321 110.807 428.712C109.911 429.086 108.959 429.273 107.95 429.273H105.948C104.939 429.273 103.987 429.086 103.092 428.712C102.197 428.321 101.415 427.792 100.748 427.125C100.081 426.458 99.5518 425.676 99.1611 424.781C98.7868 423.886 98.5996 422.934 98.5996 421.925V410.645C98.5996 409.636 98.7868 408.684 99.1611 407.789C99.5518 406.894 100.081 406.113 100.748 405.445C101.415 404.778 102.197 404.257 103.092 403.883C103.987 403.492 104.939 403.297 105.948 403.297H107.95C108.959 403.297 109.911 403.492 110.807 403.883C111.702 404.257 112.483 404.778 113.15 405.445C113.818 406.113 114.339 406.894 114.713 407.789C115.104 408.684 115.299 409.636 115.299 410.645V421.925ZM112.296 410.475C112.296 409.872 112.182 409.311 111.954 408.79C111.726 408.253 111.417 407.789 111.026 407.398C110.636 407.008 110.172 406.699 109.635 406.471C109.114 406.243 108.552 406.129 107.95 406.129H105.948C105.346 406.129 104.776 406.243 104.239 406.471C103.718 406.699 103.263 407.008 102.872 407.398C102.481 407.789 102.172 408.253 101.944 408.79C101.716 409.311 101.603 409.872 101.603 410.475V422.096C101.603 422.698 101.716 423.268 101.944 423.805C102.172 424.325 102.481 424.781 102.872 425.172C103.263 425.562 103.718 425.872 104.239 426.1C104.776 426.327 105.346 426.441 105.948 426.441H107.95C108.552 426.441 109.114 426.327 109.635 426.1C110.172 425.872 110.636 425.562 111.026 425.172C111.417 424.781 111.726 424.325 111.954 423.805C112.182 423.268 112.296 422.698 112.296 422.096V410.475Z" fill="white" fill-opacity="0.3"/>
<path d="M138.004 421.925C138.004 422.934 137.809 423.886 137.418 424.781C137.044 425.676 136.523 426.458 135.855 427.125C135.188 427.792 134.407 428.321 133.512 428.712C132.617 429.086 131.664 429.273 130.655 429.273H128.653C127.644 429.273 126.692 429.086 125.797 428.712C124.902 428.321 124.12 427.792 123.453 427.125C122.786 426.458 122.257 425.676 121.866 424.781C121.492 423.886 121.305 422.934 121.305 421.925V393.775H124.308V405.885C124.991 405.071 125.813 404.436 126.773 403.98C127.734 403.525 128.775 403.297 129.898 403.297H130.655C131.664 403.297 132.617 403.492 133.512 403.883C134.407 404.257 135.188 404.778 135.855 405.445C136.523 406.113 137.044 406.894 137.418 407.789C137.809 408.684 138.004 409.636 138.004 410.645V421.925ZM135.001 410.475C135.001 409.872 134.887 409.311 134.659 408.79C134.431 408.253 134.122 407.789 133.731 407.398C133.341 407.008 132.877 406.699 132.34 406.471C131.819 406.243 131.257 406.129 130.655 406.129H128.653C128.051 406.129 127.481 406.243 126.944 406.471C126.424 406.699 125.968 407.008 125.577 407.398C125.187 407.789 124.877 408.253 124.649 408.79C124.422 409.311 124.308 409.872 124.308 410.475V422.096C124.308 422.698 124.422 423.268 124.649 423.805C124.877 424.325 125.187 424.781 125.577 425.172C125.968 425.562 126.424 425.872 126.944 426.1C127.481 426.327 128.051 426.441 128.653 426.441H130.655C131.257 426.441 131.819 426.327 132.34 426.1C132.877 425.872 133.341 425.562 133.731 425.172C134.122 424.781 134.431 424.325 134.659 423.805C134.887 423.268 135.001 422.698 135.001 422.096V410.475Z" fill="url(#paint10_linear_48_32)"/>
<path d="M138.004 421.925C138.004 422.934 137.809 423.886 137.418 424.781C137.044 425.676 136.523 426.458 135.855 427.125C135.188 427.792 134.407 428.321 133.512 428.712C132.617 429.086 131.664 429.273 130.655 429.273H128.653C127.644 429.273 126.692 429.086 125.797 428.712C124.902 428.321 124.12 427.792 123.453 427.125C122.786 426.458 122.257 425.676 121.866 424.781C121.492 423.886 121.305 422.934 121.305 421.925V393.775H124.308V405.885C124.991 405.071 125.813 404.436 126.773 403.98C127.734 403.525 128.775 403.297 129.898 403.297H130.655C131.664 403.297 132.617 403.492 133.512 403.883C134.407 404.257 135.188 404.778 135.855 405.445C136.523 406.113 137.044 406.894 137.418 407.789C137.809 408.684 138.004 409.636 138.004 410.645V421.925ZM135.001 410.475C135.001 409.872 134.887 409.311 134.659 408.79C134.431 408.253 134.122 407.789 133.731 407.398C133.341 407.008 132.877 406.699 132.34 406.471C131.819 406.243 131.257 406.129 130.655 406.129H128.653C128.051 406.129 127.481 406.243 126.944 406.471C126.424 406.699 125.968 407.008 125.577 407.398C125.187 407.789 124.877 408.253 124.649 408.79C124.422 409.311 124.308 409.872 124.308 410.475V422.096C124.308 422.698 124.422 423.268 124.649 423.805C124.877 424.325 125.187 424.781 125.577 425.172C125.968 425.562 126.424 425.872 126.944 426.1C127.481 426.327 128.051 426.441 128.653 426.441H130.655C131.257 426.441 131.819 426.327 132.34 426.1C132.877 425.872 133.341 425.562 133.731 425.172C134.122 424.781 134.431 424.325 134.659 423.805C134.887 423.268 135.001 422.698 135.001 422.096V410.475Z" fill="white" fill-opacity="0.3"/>
<path d="M144.767 397.779V393.775H148.258V397.779H144.767ZM145.011 428.785V403.785H148.014V428.785H145.011Z" fill="url(#paint11_linear_48_32)"/>
<path d="M144.767 397.779V393.775H148.258V397.779H144.767ZM145.011 428.785V403.785H148.014V428.785H145.011Z" fill="white" fill-opacity="0.3"/>
<path d="M156.046 428.785V393.775H159.049V428.785H156.046Z" fill="url(#paint12_linear_48_32)"/>
<path d="M156.046 428.785V393.775H159.049V428.785H156.046Z" fill="white" fill-opacity="0.3"/>
<path d="M179.776 428.785V410.475C179.776 409.872 179.662 409.311 179.435 408.79C179.207 408.253 178.897 407.789 178.507 407.398C178.116 407.008 177.652 406.699 177.115 406.471C176.594 406.243 176.033 406.129 175.431 406.129H173.429C172.826 406.129 172.257 406.243 171.72 406.471C171.199 406.699 170.743 407.008 170.353 407.398C169.962 407.789 169.653 408.253 169.425 408.79C169.197 409.311 169.083 409.872 169.083 410.475V428.785H166.08V403.785H167.081L168.717 406.324C169.4 405.396 170.255 404.664 171.28 404.127C172.322 403.574 173.453 403.297 174.674 403.297H175.431C176.44 403.297 177.392 403.492 178.287 403.883C179.182 404.257 179.964 404.778 180.631 405.445C181.298 406.113 181.819 406.894 182.193 407.789C182.584 408.684 182.779 409.636 182.779 410.645V428.785H179.776Z" fill="url(#paint13_linear_48_32)"/>
<path d="M179.776 428.785V410.475C179.776 409.872 179.662 409.311 179.435 408.79C179.207 408.253 178.897 407.789 178.507 407.398C178.116 407.008 177.652 406.699 177.115 406.471C176.594 406.243 176.033 406.129 175.431 406.129H173.429C172.826 406.129 172.257 406.243 171.72 406.471C171.199 406.699 170.743 407.008 170.353 407.398C169.962 407.789 169.653 408.253 169.425 408.79C169.197 409.311 169.083 409.872 169.083 410.475V428.785H166.08V403.785H167.081L168.717 406.324C169.4 405.396 170.255 404.664 171.28 404.127C172.322 403.574 173.453 403.297 174.674 403.297H175.431C176.44 403.297 177.392 403.492 178.287 403.883C179.182 404.257 179.964 404.778 180.631 405.445C181.298 406.113 181.819 406.894 182.193 407.789C182.584 408.684 182.779 409.636 182.779 410.645V428.785H179.776Z" fill="white" fill-opacity="0.3"/>
<path d="M192.838 438.795H189.933L194.376 426.637L186.271 403.785H189.273L195.792 422.73L195.89 424.024L195.987 422.73L202.481 403.785H205.484L192.838 438.795Z" fill="url(#paint14_linear_48_32)"/>
<path d="M192.838 438.795H189.933L194.376 426.637L186.271 403.785H189.273L195.792 422.73L195.89 424.024L195.987 422.73L202.481 403.785H205.484L192.838 438.795Z" fill="white" fill-opacity="0.3"/>
<path d="M240.226 420.68C240.226 421.868 239.981 422.983 239.493 424.024C239.021 425.066 238.378 425.977 237.564 426.759C236.767 427.54 235.831 428.158 234.757 428.614C233.699 429.054 232.576 429.273 231.388 429.273H228.873C227.685 429.273 226.554 429.054 225.479 428.614C224.422 428.158 223.486 427.54 222.672 426.759C221.874 425.977 221.231 425.066 220.743 424.024C220.271 422.983 220.035 421.868 220.035 420.68V419.288L223.185 418.775V420.68C223.185 421.461 223.339 422.193 223.648 422.877C223.974 423.544 224.405 424.138 224.942 424.659C225.479 425.164 226.098 425.562 226.798 425.855C227.514 426.148 228.263 426.295 229.044 426.295H231.241C232.022 426.295 232.763 426.148 233.463 425.855C234.163 425.562 234.781 425.164 235.318 424.659C235.855 424.138 236.279 423.544 236.588 422.877C236.913 422.193 237.076 421.461 237.076 420.68V419.63C237.076 418.425 236.84 417.424 236.368 416.627C235.896 415.829 235.27 415.154 234.488 414.601C233.707 414.031 232.82 413.551 231.827 413.16C230.851 412.769 229.841 412.379 228.8 411.988C227.758 411.598 226.741 411.166 225.748 410.694C224.771 410.222 223.893 409.636 223.111 408.936C222.33 408.22 221.703 407.35 221.231 406.324C220.759 405.299 220.523 404.037 220.523 402.54V401.881C220.523 400.693 220.743 399.578 221.183 398.536C221.638 397.494 222.257 396.583 223.038 395.802C223.819 395.02 224.731 394.41 225.772 393.971C226.83 393.515 227.953 393.287 229.142 393.287H231.388C232.576 393.287 233.691 393.515 234.732 393.971C235.774 394.41 236.686 395.02 237.467 395.802C238.248 396.583 238.858 397.494 239.298 398.536C239.754 399.578 239.981 400.693 239.981 401.881V402.784L236.832 403.297V401.881C236.832 401.1 236.686 400.375 236.393 399.708C236.1 399.024 235.701 398.43 235.196 397.926C234.692 397.421 234.098 397.022 233.414 396.729C232.747 396.436 232.022 396.29 231.241 396.29H229.288C228.507 396.29 227.774 396.436 227.091 396.729C226.424 397.022 225.829 397.421 225.309 397.926C224.804 398.43 224.405 399.024 224.112 399.708C223.819 400.375 223.673 401.1 223.673 401.881V402.54C223.673 403.663 223.909 404.607 224.381 405.372C224.853 406.137 225.479 406.796 226.261 407.35C227.042 407.887 227.921 408.359 228.897 408.766C229.89 409.156 230.908 409.563 231.949 409.986C232.991 410.393 234 410.849 234.977 411.353C235.969 411.842 236.856 412.452 237.638 413.185C238.419 413.901 239.046 414.78 239.518 415.821C239.99 416.863 240.226 418.132 240.226 419.63V420.68Z" fill="url(#paint15_linear_48_32)"/>
<path d="M240.226 420.68C240.226 421.868 239.981 422.983 239.493 424.024C239.021 425.066 238.378 425.977 237.564 426.759C236.767 427.54 235.831 428.158 234.757 428.614C233.699 429.054 232.576 429.273 231.388 429.273H228.873C227.685 429.273 226.554 429.054 225.479 428.614C224.422 428.158 223.486 427.54 222.672 426.759C221.874 425.977 221.231 425.066 220.743 424.024C220.271 422.983 220.035 421.868 220.035 420.68V419.288L223.185 418.775V420.68C223.185 421.461 223.339 422.193 223.648 422.877C223.974 423.544 224.405 424.138 224.942 424.659C225.479 425.164 226.098 425.562 226.798 425.855C227.514 426.148 228.263 426.295 229.044 426.295H231.241C232.022 426.295 232.763 426.148 233.463 425.855C234.163 425.562 234.781 425.164 235.318 424.659C235.855 424.138 236.279 423.544 236.588 422.877C236.913 422.193 237.076 421.461 237.076 420.68V419.63C237.076 418.425 236.84 417.424 236.368 416.627C235.896 415.829 235.27 415.154 234.488 414.601C233.707 414.031 232.82 413.551 231.827 413.16C230.851 412.769 229.841 412.379 228.8 411.988C227.758 411.598 226.741 411.166 225.748 410.694C224.771 410.222 223.893 409.636 223.111 408.936C222.33 408.22 221.703 407.35 221.231 406.324C220.759 405.299 220.523 404.037 220.523 402.54V401.881C220.523 400.693 220.743 399.578 221.183 398.536C221.638 397.494 222.257 396.583 223.038 395.802C223.819 395.02 224.731 394.41 225.772 393.971C226.83 393.515 227.953 393.287 229.142 393.287H231.388C232.576 393.287 233.691 393.515 234.732 393.971C235.774 394.41 236.686 395.02 237.467 395.802C238.248 396.583 238.858 397.494 239.298 398.536C239.754 399.578 239.981 400.693 239.981 401.881V402.784L236.832 403.297V401.881C236.832 401.1 236.686 400.375 236.393 399.708C236.1 399.024 235.701 398.43 235.196 397.926C234.692 397.421 234.098 397.022 233.414 396.729C232.747 396.436 232.022 396.29 231.241 396.29H229.288C228.507 396.29 227.774 396.436 227.091 396.729C226.424 397.022 225.829 397.421 225.309 397.926C224.804 398.43 224.405 399.024 224.112 399.708C223.819 400.375 223.673 401.1 223.673 401.881V402.54C223.673 403.663 223.909 404.607 224.381 405.372C224.853 406.137 225.479 406.796 226.261 407.35C227.042 407.887 227.921 408.359 228.897 408.766C229.89 409.156 230.908 409.563 231.949 409.986C232.991 410.393 234 410.849 234.977 411.353C235.969 411.842 236.856 412.452 237.638 413.185C238.419 413.901 239.046 414.78 239.518 415.821C239.99 416.863 240.226 418.132 240.226 419.63V420.68Z" fill="white" fill-opacity="0.3"/>
<path d="M261.71 428.785L260.05 426.295C259.366 427.19 258.512 427.914 257.486 428.468C256.461 429.005 255.338 429.273 254.117 429.273H253.36C252.351 429.273 251.399 429.086 250.504 428.712C249.609 428.321 248.827 427.792 248.16 427.125C247.493 426.458 246.964 425.676 246.573 424.781C246.199 423.886 246.012 422.934 246.012 421.925V421.681C246.012 420.671 246.199 419.719 246.573 418.824C246.964 417.929 247.493 417.148 248.16 416.48C248.827 415.813 249.609 415.292 250.504 414.918C251.399 414.527 252.351 414.332 253.36 414.332H259.708V410.475C259.708 409.872 259.594 409.311 259.366 408.79C259.138 408.253 258.829 407.789 258.438 407.398C258.048 407.008 257.584 406.699 257.047 406.471C256.526 406.243 255.965 406.129 255.362 406.129H253.604C253.002 406.129 252.433 406.243 251.896 406.471C251.375 406.699 250.919 407.008 250.528 407.398C250.138 407.789 249.828 408.253 249.601 408.79C249.373 409.311 249.259 409.872 249.259 410.475V411.378L246.256 410.89V410.645C246.256 409.636 246.443 408.684 246.817 407.789C247.208 406.894 247.737 406.113 248.404 405.445C249.072 404.778 249.853 404.257 250.748 403.883C251.643 403.492 252.595 403.297 253.604 403.297H255.362C256.371 403.297 257.324 403.492 258.219 403.883C259.114 404.257 259.895 404.778 260.562 405.445C261.23 406.113 261.751 406.894 262.125 407.789C262.516 408.684 262.711 409.636 262.711 410.645V428.785H261.71ZM259.708 416.676H253.36C252.758 416.676 252.188 416.79 251.651 417.018C251.131 417.245 250.675 417.563 250.284 417.97C249.894 418.36 249.584 418.824 249.356 419.361C249.129 419.882 249.015 420.444 249.015 421.046V422.096C249.015 422.698 249.129 423.268 249.356 423.805C249.584 424.325 249.894 424.781 250.284 425.172C250.675 425.562 251.131 425.872 251.651 426.1C252.188 426.327 252.758 426.441 253.36 426.441H255.362C255.965 426.441 256.526 426.327 257.047 426.1C257.584 425.872 258.048 425.562 258.438 425.172C258.829 424.781 259.138 424.325 259.366 423.805C259.594 423.268 259.708 422.698 259.708 422.096V416.676Z" fill="url(#paint16_linear_48_32)"/>
<path d="M261.71 428.785L260.05 426.295C259.366 427.19 258.512 427.914 257.486 428.468C256.461 429.005 255.338 429.273 254.117 429.273H253.36C252.351 429.273 251.399 429.086 250.504 428.712C249.609 428.321 248.827 427.792 248.16 427.125C247.493 426.458 246.964 425.676 246.573 424.781C246.199 423.886 246.012 422.934 246.012 421.925V421.681C246.012 420.671 246.199 419.719 246.573 418.824C246.964 417.929 247.493 417.148 248.16 416.48C248.827 415.813 249.609 415.292 250.504 414.918C251.399 414.527 252.351 414.332 253.36 414.332H259.708V410.475C259.708 409.872 259.594 409.311 259.366 408.79C259.138 408.253 258.829 407.789 258.438 407.398C258.048 407.008 257.584 406.699 257.047 406.471C256.526 406.243 255.965 406.129 255.362 406.129H253.604C253.002 406.129 252.433 406.243 251.896 406.471C251.375 406.699 250.919 407.008 250.528 407.398C250.138 407.789 249.828 408.253 249.601 408.79C249.373 409.311 249.259 409.872 249.259 410.475V411.378L246.256 410.89V410.645C246.256 409.636 246.443 408.684 246.817 407.789C247.208 406.894 247.737 406.113 248.404 405.445C249.072 404.778 249.853 404.257 250.748 403.883C251.643 403.492 252.595 403.297 253.604 403.297H255.362C256.371 403.297 257.324 403.492 258.219 403.883C259.114 404.257 259.895 404.778 260.562 405.445C261.23 406.113 261.751 406.894 262.125 407.789C262.516 408.684 262.711 409.636 262.711 410.645V428.785H261.71ZM259.708 416.676H253.36C252.758 416.676 252.188 416.79 251.651 417.018C251.131 417.245 250.675 417.563 250.284 417.97C249.894 418.36 249.584 418.824 249.356 419.361C249.129 419.882 249.015 420.444 249.015 421.046V422.096C249.015 422.698 249.129 423.268 249.356 423.805C249.584 424.325 249.894 424.781 250.284 425.172C250.675 425.562 251.131 425.872 251.651 426.1C252.188 426.327 252.758 426.441 253.36 426.441H255.362C255.965 426.441 256.526 426.327 257.047 426.1C257.584 425.872 258.048 425.562 258.438 425.172C258.829 424.781 259.138 424.325 259.366 423.805C259.594 423.268 259.708 422.698 259.708 422.096V416.676Z" fill="white" fill-opacity="0.3"/>
<path d="M269.718 428.785V393.775H272.721V428.785H269.718Z" fill="url(#paint17_linear_48_32)"/>
<path d="M269.718 428.785V393.775H272.721V428.785H269.718Z" fill="white" fill-opacity="0.3"/>
<path d="M295.963 421.925C295.963 422.934 295.768 423.886 295.377 424.781C295.003 425.676 294.482 426.458 293.814 427.125C293.147 427.792 292.366 428.321 291.471 428.712C290.576 429.086 289.623 429.273 288.614 429.273H286.612C285.603 429.273 284.651 429.086 283.756 428.712C282.861 428.321 282.079 427.792 281.412 427.125C280.745 426.458 280.216 425.676 279.825 424.781C279.451 423.886 279.264 422.934 279.264 421.925V410.645C279.264 409.636 279.451 408.684 279.825 407.789C280.216 406.894 280.745 406.113 281.412 405.445C282.079 404.778 282.861 404.257 283.756 403.883C284.651 403.492 285.603 403.297 286.612 403.297H288.614C289.623 403.297 290.576 403.492 291.471 403.883C292.366 404.257 293.147 404.778 293.814 405.445C294.482 406.113 295.003 406.894 295.377 407.789C295.768 408.684 295.963 409.636 295.963 410.645V421.925ZM292.96 410.475C292.96 409.872 292.846 409.311 292.618 408.79C292.39 408.253 292.081 407.789 291.69 407.398C291.3 407.008 290.836 406.699 290.299 406.471C289.778 406.243 289.216 406.129 288.614 406.129H286.612C286.01 406.129 285.44 406.243 284.903 406.471C284.382 406.699 283.927 407.008 283.536 407.398C283.146 407.789 282.836 408.253 282.608 408.79C282.381 409.311 282.267 409.872 282.267 410.475V422.096C282.267 422.698 282.381 423.268 282.608 423.805C282.836 424.325 283.146 424.781 283.536 425.172C283.927 425.562 284.382 425.872 284.903 426.1C285.44 426.327 286.01 426.441 286.612 426.441H288.614C289.216 426.441 289.778 426.327 290.299 426.1C290.836 425.872 291.3 425.562 291.69 425.172C292.081 424.781 292.39 424.325 292.618 423.805C292.846 423.268 292.96 422.698 292.96 422.096V410.475Z" fill="url(#paint18_linear_48_32)"/>
<path d="M295.963 421.925C295.963 422.934 295.768 423.886 295.377 424.781C295.003 425.676 294.482 426.458 293.814 427.125C293.147 427.792 292.366 428.321 291.471 428.712C290.576 429.086 289.623 429.273 288.614 429.273H286.612C285.603 429.273 284.651 429.086 283.756 428.712C282.861 428.321 282.079 427.792 281.412 427.125C280.745 426.458 280.216 425.676 279.825 424.781C279.451 423.886 279.264 422.934 279.264 421.925V410.645C279.264 409.636 279.451 408.684 279.825 407.789C280.216 406.894 280.745 406.113 281.412 405.445C282.079 404.778 282.861 404.257 283.756 403.883C284.651 403.492 285.603 403.297 286.612 403.297H288.614C289.623 403.297 290.576 403.492 291.471 403.883C292.366 404.257 293.147 404.778 293.814 405.445C294.482 406.113 295.003 406.894 295.377 407.789C295.768 408.684 295.963 409.636 295.963 410.645V421.925ZM292.96 410.475C292.96 409.872 292.846 409.311 292.618 408.79C292.39 408.253 292.081 407.789 291.69 407.398C291.3 407.008 290.836 406.699 290.299 406.471C289.778 406.243 289.216 406.129 288.614 406.129H286.612C286.01 406.129 285.44 406.243 284.903 406.471C284.382 406.699 283.927 407.008 283.536 407.398C283.146 407.789 282.836 408.253 282.608 408.79C282.381 409.311 282.267 409.872 282.267 410.475V422.096C282.267 422.698 282.381 423.268 282.608 423.805C282.836 424.325 283.146 424.781 283.536 425.172C283.927 425.562 284.382 425.872 284.903 426.1C285.44 426.327 286.01 426.441 286.612 426.441H288.614C289.216 426.441 289.778 426.327 290.299 426.1C290.836 425.872 291.3 425.562 291.69 425.172C292.081 424.781 292.39 424.325 292.618 423.805C292.846 423.268 292.96 422.698 292.96 422.096V410.475Z" fill="white" fill-opacity="0.3"/>
<path d="M315.665 428.785V410.475C315.665 409.872 315.551 409.311 315.323 408.79C315.095 408.253 314.786 407.789 314.396 407.398C314.005 407.008 313.541 406.699 313.004 406.471C312.483 406.243 311.922 406.129 311.319 406.129H309.317C308.715 406.129 308.146 406.243 307.608 406.471C307.088 406.699 306.632 407.008 306.241 407.398C305.851 407.789 305.541 408.253 305.313 408.79C305.086 409.311 304.972 409.872 304.972 410.475V428.785H301.969V403.785H302.97L304.605 406.324C305.289 405.396 306.144 404.664 307.169 404.127C308.211 403.574 309.342 403.297 310.562 403.297H311.319C312.328 403.297 313.281 403.492 314.176 403.883C315.071 404.257 315.852 404.778 316.52 405.445C317.187 406.113 317.708 406.894 318.082 407.789C318.473 408.684 318.668 409.636 318.668 410.645V428.785H315.665Z" fill="url(#paint19_linear_48_32)"/>
<path d="M315.665 428.785V410.475C315.665 409.872 315.551 409.311 315.323 408.79C315.095 408.253 314.786 407.789 314.396 407.398C314.005 407.008 313.541 406.699 313.004 406.471C312.483 406.243 311.922 406.129 311.319 406.129H309.317C308.715 406.129 308.146 406.243 307.608 406.471C307.088 406.699 306.632 407.008 306.241 407.398C305.851 407.789 305.541 408.253 305.313 408.79C305.086 409.311 304.972 409.872 304.972 410.475V428.785H301.969V403.785H302.97L304.605 406.324C305.289 405.396 306.144 404.664 307.169 404.127C308.211 403.574 309.342 403.297 310.562 403.297H311.319C312.328 403.297 313.281 403.492 314.176 403.883C315.071 404.257 315.852 404.778 316.52 405.445C317.187 406.113 317.708 406.894 318.082 407.789C318.473 408.684 318.668 409.636 318.668 410.645V428.785H315.665Z" fill="white" fill-opacity="0.3"/>
<path d="M356.388 420.68C356.388 421.868 356.16 422.983 355.704 424.024C355.265 425.066 354.654 425.977 353.873 426.759C353.092 427.54 352.18 428.158 351.139 428.614C350.097 429.054 348.982 429.273 347.794 429.273H345.304C344.116 429.273 342.993 429.054 341.935 428.614C340.893 428.158 339.981 427.54 339.2 426.759C338.419 425.977 337.8 425.066 337.345 424.024C336.905 422.983 336.686 421.868 336.686 420.68V393.775H339.835V420.68C339.835 421.461 339.981 422.193 340.274 422.877C340.567 423.544 340.966 424.138 341.471 424.659C341.992 425.164 342.586 425.562 343.253 425.855C343.937 426.148 344.669 426.295 345.45 426.295H347.647C348.429 426.295 349.153 426.148 349.82 425.855C350.504 425.562 351.098 425.164 351.603 424.659C352.107 424.138 352.506 423.544 352.799 422.877C353.092 422.193 353.238 421.461 353.238 420.68V393.775H356.388V420.68Z" fill="url(#paint20_linear_48_32)"/>
<path d="M356.388 420.68C356.388 421.868 356.16 422.983 355.704 424.024C355.265 425.066 354.654 425.977 353.873 426.759C353.092 427.54 352.18 428.158 351.139 428.614C350.097 429.054 348.982 429.273 347.794 429.273H345.304C344.116 429.273 342.993 429.054 341.935 428.614C340.893 428.158 339.981 427.54 339.2 426.759C338.419 425.977 337.8 425.066 337.345 424.024C336.905 422.983 336.686 421.868 336.686 420.68V393.775H339.835V420.68C339.835 421.461 339.981 422.193 340.274 422.877C340.567 423.544 340.966 424.138 341.471 424.659C341.992 425.164 342.586 425.562 343.253 425.855C343.937 426.148 344.669 426.295 345.45 426.295H347.647C348.429 426.295 349.153 426.148 349.82 425.855C350.504 425.562 351.098 425.164 351.603 424.659C352.107 424.138 352.506 423.544 352.799 422.877C353.092 422.193 353.238 421.461 353.238 420.68V393.775H356.388V420.68Z" fill="white" fill-opacity="0.3"/>
<path d="M370.255 406.642C369.653 406.642 369.083 406.755 368.546 406.983C368.025 407.211 367.569 407.52 367.179 407.911C366.788 408.302 366.479 408.766 366.251 409.303C366.023 409.824 365.909 410.385 365.909 410.987V428.785H362.906V403.785H363.907L365.543 406.324C366.227 405.396 367.081 404.664 368.106 404.127C369.148 403.574 370.279 403.297 371.5 403.297H373.258V406.642H370.255Z" fill="url(#paint21_linear_48_32)"/>
<path d="M370.255 406.642C369.653 406.642 369.083 406.755 368.546 406.983C368.025 407.211 367.569 407.52 367.179 407.911C366.788 408.302 366.479 408.766 366.251 409.303C366.023 409.824 365.909 410.385 365.909 410.987V428.785H362.906V403.785H363.907L365.543 406.324C366.227 405.396 367.081 404.664 368.106 404.127C369.148 403.574 370.279 403.297 371.5 403.297H373.258V406.642H370.255Z" fill="white" fill-opacity="0.3"/>
<path d="M393.961 421.925C393.961 422.934 393.766 423.886 393.375 424.781C393.001 425.676 392.48 426.458 391.812 427.125C391.145 427.792 390.364 428.321 389.469 428.712C388.574 429.086 387.621 429.273 386.612 429.273H384.61C383.601 429.273 382.649 429.086 381.754 428.712C380.859 428.321 380.077 427.792 379.41 427.125C378.743 426.458 378.214 425.676 377.823 424.781C377.449 423.886 377.262 422.934 377.262 421.925V410.645C377.262 409.636 377.449 408.684 377.823 407.789C378.214 406.894 378.743 406.113 379.41 405.445C380.077 404.778 380.859 404.257 381.754 403.883C382.649 403.492 383.601 403.297 384.61 403.297H386.612C387.621 403.297 388.574 403.492 389.469 403.883C390.364 404.257 391.145 404.778 391.812 405.445C392.48 406.113 393.001 406.894 393.375 407.789C393.766 408.684 393.961 409.636 393.961 410.645V421.925ZM390.958 410.475C390.958 409.872 390.844 409.311 390.616 408.79C390.388 408.253 390.079 407.789 389.688 407.398C389.298 407.008 388.834 406.699 388.297 406.471C387.776 406.243 387.215 406.129 386.612 406.129H384.61C384.008 406.129 383.438 406.243 382.901 406.471C382.381 406.699 381.925 407.008 381.534 407.398C381.144 407.789 380.834 408.253 380.606 408.79C380.379 409.311 380.265 409.872 380.265 410.475V422.096C380.265 422.698 380.379 423.268 380.606 423.805C380.834 424.325 381.144 424.781 381.534 425.172C381.925 425.562 382.381 425.872 382.901 426.1C383.438 426.327 384.008 426.441 384.61 426.441H386.612C387.215 426.441 387.776 426.327 388.297 426.1C388.834 425.872 389.298 425.562 389.688 425.172C390.079 424.781 390.388 424.325 390.616 423.805C390.844 423.268 390.958 422.698 390.958 422.096V410.475Z" fill="url(#paint22_linear_48_32)"/>
<path d="M393.961 421.925C393.961 422.934 393.766 423.886 393.375 424.781C393.001 425.676 392.48 426.458 391.812 427.125C391.145 427.792 390.364 428.321 389.469 428.712C388.574 429.086 387.621 429.273 386.612 429.273H384.61C383.601 429.273 382.649 429.086 381.754 428.712C380.859 428.321 380.077 427.792 379.41 427.125C378.743 426.458 378.214 425.676 377.823 424.781C377.449 423.886 377.262 422.934 377.262 421.925V410.645C377.262 409.636 377.449 408.684 377.823 407.789C378.214 406.894 378.743 406.113 379.41 405.445C380.077 404.778 380.859 404.257 381.754 403.883C382.649 403.492 383.601 403.297 384.61 403.297H386.612C387.621 403.297 388.574 403.492 389.469 403.883C390.364 404.257 391.145 404.778 391.812 405.445C392.48 406.113 393.001 406.894 393.375 407.789C393.766 408.684 393.961 409.636 393.961 410.645V421.925ZM390.958 410.475C390.958 409.872 390.844 409.311 390.616 408.79C390.388 408.253 390.079 407.789 389.688 407.398C389.298 407.008 388.834 406.699 388.297 406.471C387.776 406.243 387.215 406.129 386.612 406.129H384.61C384.008 406.129 383.438 406.243 382.901 406.471C382.381 406.699 381.925 407.008 381.534 407.398C381.144 407.789 380.834 408.253 380.606 408.79C380.379 409.311 380.265 409.872 380.265 410.475V422.096C380.265 422.698 380.379 423.268 380.606 423.805C380.834 424.325 381.144 424.781 381.534 425.172C381.925 425.562 382.381 425.872 382.901 426.1C383.438 426.327 384.008 426.441 384.61 426.441H386.612C387.215 426.441 387.776 426.327 388.297 426.1C388.834 425.872 389.298 425.562 389.688 425.172C390.079 424.781 390.388 424.325 390.616 423.805C390.844 423.268 390.958 422.698 390.958 422.096V410.475Z" fill="white" fill-opacity="0.3"/>
<path d="M415.665 428.785L414.005 426.246C413.321 427.174 412.467 427.914 411.441 428.468C410.416 429.005 409.293 429.273 408.072 429.273H407.315C406.306 429.273 405.354 429.086 404.459 428.712C403.564 428.321 402.783 427.792 402.115 427.125C401.448 426.458 400.919 425.676 400.528 424.781C400.154 423.886 399.967 422.934 399.967 421.925V410.645C399.967 409.636 400.154 408.684 400.528 407.789C400.919 406.894 401.448 406.113 402.115 405.445C402.783 404.778 403.564 404.257 404.459 403.883C405.354 403.492 406.306 403.297 407.315 403.297H408.072C409.195 403.297 410.237 403.525 411.197 403.98C412.158 404.436 412.979 405.071 413.663 405.885V393.775H416.666V428.785H415.665ZM413.663 410.475C413.663 409.872 413.549 409.311 413.321 408.79C413.093 408.253 412.784 407.789 412.394 407.398C412.003 407.008 411.539 406.699 411.002 406.471C410.481 406.243 409.92 406.129 409.317 406.129H407.315C406.713 406.129 406.144 406.243 405.606 406.471C405.086 406.699 404.63 407.008 404.239 407.398C403.849 407.789 403.539 408.253 403.312 408.79C403.084 409.311 402.97 409.872 402.97 410.475V422.096C402.97 422.698 403.084 423.268 403.312 423.805C403.539 424.325 403.849 424.781 404.239 425.172C404.63 425.562 405.086 425.872 405.606 426.1C406.144 426.327 406.713 426.441 407.315 426.441H409.317C409.92 426.441 410.481 426.327 411.002 426.1C411.539 425.872 412.003 425.562 412.394 425.172C412.784 424.781 413.093 424.325 413.321 423.805C413.549 423.268 413.663 422.698 413.663 422.096V410.475Z" fill="url(#paint23_linear_48_32)"/>
<path d="M415.665 428.785L414.005 426.246C413.321 427.174 412.467 427.914 411.441 428.468C410.416 429.005 409.293 429.273 408.072 429.273H407.315C406.306 429.273 405.354 429.086 404.459 428.712C403.564 428.321 402.783 427.792 402.115 427.125C401.448 426.458 400.919 425.676 400.528 424.781C400.154 423.886 399.967 422.934 399.967 421.925V410.645C399.967 409.636 400.154 408.684 400.528 407.789C400.919 406.894 401.448 406.113 402.115 405.445C402.783 404.778 403.564 404.257 404.459 403.883C405.354 403.492 406.306 403.297 407.315 403.297H408.072C409.195 403.297 410.237 403.525 411.197 403.98C412.158 404.436 412.979 405.071 413.663 405.885V393.775H416.666V428.785H415.665ZM413.663 410.475C413.663 409.872 413.549 409.311 413.321 408.79C413.093 408.253 412.784 407.789 412.394 407.398C412.003 407.008 411.539 406.699 411.002 406.471C410.481 406.243 409.92 406.129 409.317 406.129H407.315C406.713 406.129 406.144 406.243 405.606 406.471C405.086 406.699 404.63 407.008 404.239 407.398C403.849 407.789 403.539 408.253 403.312 408.79C403.084 409.311 402.97 409.872 402.97 410.475V422.096C402.97 422.698 403.084 423.268 403.312 423.805C403.539 424.325 403.849 424.781 404.239 425.172C404.63 425.562 405.086 425.872 405.606 426.1C406.144 426.327 406.713 426.441 407.315 426.441H409.317C409.92 426.441 410.481 426.327 411.002 426.1C411.539 425.872 412.003 425.562 412.394 425.172C412.784 424.781 413.093 424.325 413.321 423.805C413.549 423.268 413.663 422.698 413.663 422.096V410.475Z" fill="white" fill-opacity="0.3"/>
<path d="M426.725 438.795H423.819L428.263 426.637L420.157 403.785H423.16L429.679 422.73L429.776 424.024L429.874 422.73L436.368 403.785H439.371L426.725 438.795Z" fill="url(#paint24_linear_48_32)"/>
<path d="M426.725 438.795H423.819L428.263 426.637L420.157 403.785H423.16L429.679 422.73L429.776 424.024L429.874 422.73L436.368 403.785H439.371L426.725 438.795Z" fill="white" fill-opacity="0.3"/>
<path d="M294.018 214.431H245.218L245.418 212.431H247.818C251.285 212.431 254.218 211.231 256.618 208.831C259.151 206.431 260.485 203.498 260.618 200.031V88.8312C260.618 85.3645 259.351 82.4312 256.818 80.0312C254.285 77.6312 251.285 76.4312 247.818 76.4312H245.418L245.218 74.4312H285.018C298.751 74.4312 309.418 77.4978 317.018 83.6311C324.618 89.6312 328.418 97.6978 328.418 107.831C328.418 115.831 326.285 122.498 322.018 127.831C317.751 133.031 312.551 136.498 306.418 138.231C316.951 139.831 325.285 144.164 331.418 151.231C337.551 158.298 340.618 167.231 340.618 178.031C340.618 188.698 336.485 197.431 328.218 204.231C320.085 211.031 308.685 214.431 294.018 214.431ZM273.618 207.231H293.218C293.351 207.231 293.485 207.231 293.618 207.231C303.751 207.231 311.618 204.498 317.218 199.031C322.818 193.431 325.618 185.565 325.618 175.431C325.618 169.698 324.618 164.698 322.618 160.431C320.751 156.031 318.351 152.564 315.418 150.031C307.685 143.631 296.085 140.431 280.618 140.431C280.618 140.431 280.551 140.431 280.418 140.431V138.631C280.551 138.631 281.151 138.631 282.218 138.631C283.418 138.631 285.085 138.498 287.218 138.231C289.351 137.964 291.751 137.498 294.418 136.831C297.085 136.164 299.485 135.098 301.618 133.631C303.751 132.164 305.751 130.431 307.618 128.431C311.485 124.031 313.418 117.498 313.418 108.831C313.418 100.031 310.885 93.1645 305.818 88.2312C300.885 83.2978 293.685 80.8312 284.218 80.8312H273.618V207.231Z" fill="url(#paint25_linear_48_32)"/>
<path d="M294.018 214.431H245.218L245.418 212.431H247.818C251.285 212.431 254.218 211.231 256.618 208.831C259.151 206.431 260.485 203.498 260.618 200.031V88.8312C260.618 85.3645 259.351 82.4312 256.818 80.0312C254.285 77.6312 251.285 76.4312 247.818 76.4312H245.418L245.218 74.4312H285.018C298.751 74.4312 309.418 77.4978 317.018 83.6311C324.618 89.6312 328.418 97.6978 328.418 107.831C328.418 115.831 326.285 122.498 322.018 127.831C317.751 133.031 312.551 136.498 306.418 138.231C316.951 139.831 325.285 144.164 331.418 151.231C337.551 158.298 340.618 167.231 340.618 178.031C340.618 188.698 336.485 197.431 328.218 204.231C320.085 211.031 308.685 214.431 294.018 214.431ZM273.618 207.231H293.218C293.351 207.231 293.485 207.231 293.618 207.231C303.751 207.231 311.618 204.498 317.218 199.031C322.818 193.431 325.618 185.565 325.618 175.431C325.618 169.698 324.618 164.698 322.618 160.431C320.751 156.031 318.351 152.564 315.418 150.031C307.685 143.631 296.085 140.431 280.618 140.431C280.618 140.431 280.551 140.431 280.418 140.431V138.631C280.551 138.631 281.151 138.631 282.218 138.631C283.418 138.631 285.085 138.498 287.218 138.231C289.351 137.964 291.751 137.498 294.418 136.831C297.085 136.164 299.485 135.098 301.618 133.631C303.751 132.164 305.751 130.431 307.618 128.431C311.485 124.031 313.418 117.498 313.418 108.831C313.418 100.031 310.885 93.1645 305.818 88.2312C300.885 83.2978 293.685 80.8312 284.218 80.8312H273.618V207.231Z" fill="white" fill-opacity="0.3"/>
<path d="M218.003 140.012H266.803L266.603 138.012H264.203C260.737 138.012 257.803 136.812 255.403 134.412C252.87 132.012 251.537 129.078 251.403 125.612V14.4117C251.403 10.945 252.67 8.01166 255.203 5.61166C257.737 3.21166 260.737 2.01166 264.203 2.01166H266.603L266.803 0.0116577H227.003C213.27 0.0116577 202.603 3.07832 195.003 9.21166C187.403 15.2117 183.603 23.2783 183.603 33.4117C183.603 41.4117 185.737 48.0783 190.003 53.4117C194.27 58.6117 199.47 62.0783 205.603 63.8117C195.07 65.4117 186.737 69.745 180.603 76.8117C174.47 83.8783 171.403 92.8117 171.403 103.612C171.403 114.278 175.537 123.012 183.803 129.812C191.937 136.612 203.337 140.012 218.003 140.012ZM238.403 132.812H218.803C218.67 132.812 218.537 132.812 218.403 132.812C208.27 132.812 200.403 130.078 194.803 124.612C189.203 119.012 186.403 111.145 186.403 101.012C186.403 95.2783 187.403 90.2783 189.403 86.0117C191.27 81.6117 193.67 78.145 196.603 75.6117C204.337 69.2117 215.937 66.0117 231.403 66.0117C231.403 66.0117 231.47 66.0117 231.603 66.0117V64.2117C231.47 64.2117 230.87 64.2117 229.803 64.2117C228.603 64.2117 226.937 64.0783 224.803 63.8117C222.67 63.545 220.27 63.0783 217.603 62.4117C214.937 61.745 212.537 60.6783 210.403 59.2117C208.27 57.745 206.27 56.0117 204.403 54.0117C200.537 49.6117 198.603 43.0783 198.603 34.4117C198.603 25.6117 201.137 18.745 206.203 13.8117C211.137 8.87833 218.337 6.41166 227.803 6.41166H238.403V132.812Z" fill="url(#paint26_linear_48_32)"/>
<path d="M218.003 140.012H266.803L266.603 138.012H264.203C260.737 138.012 257.803 136.812 255.403 134.412C252.87 132.012 251.537 129.078 251.403 125.612V14.4117C251.403 10.945 252.67 8.01166 255.203 5.61166C257.737 3.21166 260.737 2.01166 264.203 2.01166H266.603L266.803 0.0116577H227.003C213.27 0.0116577 202.603 3.07832 195.003 9.21166C187.403 15.2117 183.603 23.2783 183.603 33.4117C183.603 41.4117 185.737 48.0783 190.003 53.4117C194.27 58.6117 199.47 62.0783 205.603 63.8117C195.07 65.4117 186.737 69.745 180.603 76.8117C174.47 83.8783 171.403 92.8117 171.403 103.612C171.403 114.278 175.537 123.012 183.803 129.812C191.937 136.612 203.337 140.012 218.003 140.012ZM238.403 132.812H218.803C218.67 132.812 218.537 132.812 218.403 132.812C208.27 132.812 200.403 130.078 194.803 124.612C189.203 119.012 186.403 111.145 186.403 101.012C186.403 95.2783 187.403 90.2783 189.403 86.0117C191.27 81.6117 193.67 78.145 196.603 75.6117C204.337 69.2117 215.937 66.0117 231.403 66.0117C231.403 66.0117 231.47 66.0117 231.603 66.0117V64.2117C231.47 64.2117 230.87 64.2117 229.803 64.2117C228.603 64.2117 226.937 64.0783 224.803 63.8117C222.67 63.545 220.27 63.0783 217.603 62.4117C214.937 61.745 212.537 60.6783 210.403 59.2117C208.27 57.745 206.27 56.0117 204.403 54.0117C200.537 49.6117 198.603 43.0783 198.603 34.4117C198.603 25.6117 201.137 18.745 206.203 13.8117C211.137 8.87833 218.337 6.41166 227.803 6.41166H238.403V132.812Z" fill="white" fill-opacity="0.3"/>
<path d="M186.011 351.401H326.011V359.48H186.011V351.401Z" fill="url(#paint27_linear_48_32)"/>
<path d="M186.011 351.401H326.011V359.48H186.011V351.401Z" fill="white" fill-opacity="0.3"/>
<defs>
<linearGradient id="paint0_linear_48_32" x1="250.389" y1="234.412" x2="250.389" y2="305.812" gradientUnits="userSpaceOnUse">
<stop stop-color="#AE8625"/>
<stop offset="0.263889" stop-color="#F7EF8A"/>
<stop offset="0.696181" stop-color="#D2AC47"/>
<stop offset="0.873264" stop-color="#EDC967"/>
</linearGradient>
<linearGradient id="paint1_linear_48_32" x1="250.389" y1="234.412" x2="250.389" y2="305.812" gradientUnits="userSpaceOnUse">
<stop stop-color="#AE8625"/>
<stop offset="0.263889" stop-color="#F7EF8A"/>
<stop offset="0.696181" stop-color="#D2AC47"/>
<stop offset="0.873264" stop-color="#EDC967"/>
</linearGradient>
<linearGradient id="paint2_linear_48_32" x1="250.389" y1="234.412" x2="250.389" y2="305.812" gradientUnits="userSpaceOnUse">
<stop stop-color="#AE8625"/>
<stop offset="0.263889" stop-color="#F7EF8A"/>
<stop offset="0.696181" stop-color="#D2AC47"/>
<stop offset="0.873264" stop-color="#EDC967"/>
</linearGradient>
<linearGradient id="paint3_linear_48_32" x1="250.389" y1="234.412" x2="250.389" y2="305.812" gradientUnits="userSpaceOnUse">
<stop stop-color="#AE8625"/>
<stop offset="0.263889" stop-color="#F7EF8A"/>
<stop offset="0.696181" stop-color="#D2AC47"/>
<stop offset="0.873264" stop-color="#EDC967"/>
</linearGradient>
<linearGradient id="paint4_linear_48_32" x1="250.389" y1="234.412" x2="250.389" y2="305.812" gradientUnits="userSpaceOnUse">
<stop stop-color="#AE8625"/>
<stop offset="0.263889" stop-color="#F7EF8A"/>
<stop offset="0.696181" stop-color="#D2AC47"/>
<stop offset="0.873264" stop-color="#EDC967"/>
</linearGradient>
<linearGradient id="paint5_linear_48_32" x1="250.389" y1="234.412" x2="250.389" y2="305.812" gradientUnits="userSpaceOnUse">
<stop stop-color="#AE8625"/>
<stop offset="0.263889" stop-color="#F7EF8A"/>
<stop offset="0.696181" stop-color="#D2AC47"/>
<stop offset="0.873264" stop-color="#EDC967"/>
</linearGradient>
<linearGradient id="paint6_linear_48_32" x1="250.389" y1="234.412" x2="250.389" y2="305.812" gradientUnits="userSpaceOnUse">
<stop stop-color="#AE8625"/>
<stop offset="0.263889" stop-color="#F7EF8A"/>
<stop offset="0.696181" stop-color="#D2AC47"/>
<stop offset="0.873264" stop-color="#EDC967"/>
</linearGradient>
<linearGradient id="paint7_linear_48_32" x1="250.389" y1="234.412" x2="250.389" y2="305.812" gradientUnits="userSpaceOnUse">
<stop stop-color="#AE8625"/>
<stop offset="0.263889" stop-color="#F7EF8A"/>
<stop offset="0.696181" stop-color="#D2AC47"/>
<stop offset="0.873264" stop-color="#EDC967"/>
</linearGradient>
<linearGradient id="paint8_linear_48_32" x1="253.373" y1="393.287" x2="253.373" y2="438.795" gradientUnits="userSpaceOnUse">
<stop stop-color="#AE8625"/>
<stop offset="0.263889" stop-color="#F7EF8A"/>
<stop offset="0.696181" stop-color="#D2AC47"/>
<stop offset="0.873264" stop-color="#EDC967"/>
</linearGradient>
<linearGradient id="paint9_linear_48_32" x1="253.373" y1="393.287" x2="253.373" y2="438.795" gradientUnits="userSpaceOnUse">
<stop stop-color="#AE8625"/>
<stop offset="0.263889" stop-color="#F7EF8A"/>
<stop offset="0.696181" stop-color="#D2AC47"/>
<stop offset="0.873264" stop-color="#EDC967"/>
</linearGradient>
<linearGradient id="paint10_linear_48_32" x1="253.373" y1="393.287" x2="253.373" y2="438.795" gradientUnits="userSpaceOnUse">
<stop stop-color="#AE8625"/>
<stop offset="0.263889" stop-color="#F7EF8A"/>
<stop offset="0.696181" stop-color="#D2AC47"/>
<stop offset="0.873264" stop-color="#EDC967"/>
</linearGradient>
<linearGradient id="paint11_linear_48_32" x1="253.373" y1="393.287" x2="253.373" y2="438.795" gradientUnits="userSpaceOnUse">
<stop stop-color="#AE8625"/>
<stop offset="0.263889" stop-color="#F7EF8A"/>
<stop offset="0.696181" stop-color="#D2AC47"/>
<stop offset="0.873264" stop-color="#EDC967"/>
</linearGradient>
<linearGradient id="paint12_linear_48_32" x1="253.373" y1="393.287" x2="253.373" y2="438.795" gradientUnits="userSpaceOnUse">
<stop stop-color="#AE8625"/>
<stop offset="0.263889" stop-color="#F7EF8A"/>
<stop offset="0.696181" stop-color="#D2AC47"/>
<stop offset="0.873264" stop-color="#EDC967"/>
</linearGradient>
<linearGradient id="paint13_linear_48_32" x1="253.373" y1="393.287" x2="253.373" y2="438.795" gradientUnits="userSpaceOnUse">
<stop stop-color="#AE8625"/>
<stop offset="0.263889" stop-color="#F7EF8A"/>
<stop offset="0.696181" stop-color="#D2AC47"/>
<stop offset="0.873264" stop-color="#EDC967"/>
</linearGradient>
<linearGradient id="paint14_linear_48_32" x1="253.373" y1="393.287" x2="253.373" y2="438.795" gradientUnits="userSpaceOnUse">
<stop stop-color="#AE8625"/>
<stop offset="0.263889" stop-color="#F7EF8A"/>
<stop offset="0.696181" stop-color="#D2AC47"/>
<stop offset="0.873264" stop-color="#EDC967"/>
</linearGradient>
<linearGradient id="paint15_linear_48_32" x1="253.373" y1="393.287" x2="253.373" y2="438.795" gradientUnits="userSpaceOnUse">
<stop stop-color="#AE8625"/>
<stop offset="0.263889" stop-color="#F7EF8A"/>
<stop offset="0.696181" stop-color="#D2AC47"/>
<stop offset="0.873264" stop-color="#EDC967"/>
</linearGradient>
<linearGradient id="paint16_linear_48_32" x1="253.373" y1="393.287" x2="253.373" y2="438.795" gradientUnits="userSpaceOnUse">
<stop stop-color="#AE8625"/>
<stop offset="0.263889" stop-color="#F7EF8A"/>
<stop offset="0.696181" stop-color="#D2AC47"/>
<stop offset="0.873264" stop-color="#EDC967"/>
</linearGradient>
<linearGradient id="paint17_linear_48_32" x1="253.373" y1="393.287" x2="253.373" y2="438.795" gradientUnits="userSpaceOnUse">
<stop stop-color="#AE8625"/>
<stop offset="0.263889" stop-color="#F7EF8A"/>
<stop offset="0.696181" stop-color="#D2AC47"/>
<stop offset="0.873264" stop-color="#EDC967"/>
</linearGradient>
<linearGradient id="paint18_linear_48_32" x1="253.373" y1="393.287" x2="253.373" y2="438.795" gradientUnits="userSpaceOnUse">
<stop stop-color="#AE8625"/>
<stop offset="0.263889" stop-color="#F7EF8A"/>
<stop offset="0.696181" stop-color="#D2AC47"/>
<stop offset="0.873264" stop-color="#EDC967"/>
</linearGradient>
<linearGradient id="paint19_linear_48_32" x1="253.373" y1="393.287" x2="253.373" y2="438.795" gradientUnits="userSpaceOnUse">
<stop stop-color="#AE8625"/>
<stop offset="0.263889" stop-color="#F7EF8A"/>
<stop offset="0.696181" stop-color="#D2AC47"/>
<stop offset="0.873264" stop-color="#EDC967"/>
</linearGradient>
<linearGradient id="paint20_linear_48_32" x1="253.373" y1="393.287" x2="253.373" y2="438.795" gradientUnits="userSpaceOnUse">
<stop stop-color="#AE8625"/>
<stop offset="0.263889" stop-color="#F7EF8A"/>
<stop offset="0.696181" stop-color="#D2AC47"/>
<stop offset="0.873264" stop-color="#EDC967"/>
</linearGradient>
<linearGradient id="paint21_linear_48_32" x1="253.373" y1="393.287" x2="253.373" y2="438.795" gradientUnits="userSpaceOnUse">
<stop stop-color="#AE8625"/>
<stop offset="0.263889" stop-color="#F7EF8A"/>
<stop offset="0.696181" stop-color="#D2AC47"/>
<stop offset="0.873264" stop-color="#EDC967"/>
</linearGradient>
<linearGradient id="paint22_linear_48_32" x1="253.373" y1="393.287" x2="253.373" y2="438.795" gradientUnits="userSpaceOnUse">
<stop stop-color="#AE8625"/>
<stop offset="0.263889" stop-color="#F7EF8A"/>
<stop offset="0.696181" stop-color="#D2AC47"/>
<stop offset="0.873264" stop-color="#EDC967"/>
</linearGradient>
<linearGradient id="paint23_linear_48_32" x1="253.373" y1="393.287" x2="253.373" y2="438.795" gradientUnits="userSpaceOnUse">
<stop stop-color="#AE8625"/>
<stop offset="0.263889" stop-color="#F7EF8A"/>
<stop offset="0.696181" stop-color="#D2AC47"/>
<stop offset="0.873264" stop-color="#EDC967"/>
</linearGradient>
<linearGradient id="paint24_linear_48_32" x1="253.373" y1="393.287" x2="253.373" y2="438.795" gradientUnits="userSpaceOnUse">
<stop stop-color="#AE8625"/>
<stop offset="0.263889" stop-color="#F7EF8A"/>
<stop offset="0.696181" stop-color="#D2AC47"/>
<stop offset="0.873264" stop-color="#EDC967"/>
</linearGradient>
<linearGradient id="paint25_linear_48_32" x1="256.011" y1="0.0116577" x2="256.011" y2="214.431" gradientUnits="userSpaceOnUse">
<stop stop-color="#AE8625"/>
<stop offset="0.263889" stop-color="#F7EF8A"/>
<stop offset="0.696181" stop-color="#D2AC47"/>
<stop offset="0.873264" stop-color="#EDC967"/>
</linearGradient>
<linearGradient id="paint26_linear_48_32" x1="256.011" y1="0.0116577" x2="256.011" y2="214.431" gradientUnits="userSpaceOnUse">
<stop stop-color="#AE8625"/>
<stop offset="0.263889" stop-color="#F7EF8A"/>
<stop offset="0.696181" stop-color="#D2AC47"/>
<stop offset="0.873264" stop-color="#EDC967"/>
</linearGradient>
<linearGradient id="paint27_linear_48_32" x1="256.011" y1="351.401" x2="256.011" y2="359.48" gradientUnits="userSpaceOnUse">
<stop stop-color="#AE8625"/>
<stop offset="0.0001" stop-color="#F7EF8A"/>
<stop offset="0.57118" stop-color="#D2AC47"/>
<stop offset="1" stop-color="#EDC967"/>
</linearGradient>
</defs>
</svg>
