<svg xmlns="http://www.w3.org/2000/svg" viewBox="0 0 125.25 99.36"><defs><style>.cls-1{fill:#a71c20;}.cls-2{fill:#e81e25;}.cls-3{fill:#231f20;}.cls-4{fill:#fff;}</style></defs><title>Zasób 1</title><g id="Warstwa_2" data-name="Warstwa 2"><g id="Layer_1" data-name="Layer 1"><polygon class="cls-1" points="54.74 56.07 68.57 42.04 29.79 42.04 54.74 56.07"/><polygon class="cls-2" points="54.45 99.36 68.57 84.93 68.57 42.04 54.74 56.07 54.45 99.36"/><polygon class="cls-2" points="81.95 30.17 68.57 42.04 68.57 11.88 81.95 0 81.95 30.17"/><polygon class="cls-1" points="81.95 0 68.57 12.08 28.09 12.08 16.22 0 81.95 0"/><polygon class="cls-1" points="81.95 30.17 68.57 42.04 96.97 42.04 81.95 30.17"/><path class="cls-3" d="M21,83.59C21,88.84,20,92,17.81,94a12.45,12.45,0,0,1-8.3,2.72A14.61,14.61,0,0,1,2,94.83l1-3.18a12.37,12.37,0,0,0,6.65,1.82c4.22,0,7.31-2.2,7.31-8V83h-.09a8.06,8.06,0,0,1-7.22,3.79C4,86.82,0,82,0,75.76c0-7.68,5-12,10.26-12a7.58,7.58,0,0,1,7.08,3.88h.09l.14-3.42h3.66c-.14,1.6-.19,3.47-.19,6.19Zm-4.12-10.4a5.31,5.31,0,0,0-.24-1.83A5.89,5.89,0,0,0,10.92,67C7,67,4.17,70.28,4.17,75.53c0,4.45,2.3,8.15,6.7,8.15a5.94,5.94,0,0,0,5.72-4.22,7.29,7.29,0,0,0,.33-2.2Z"/><path class="cls-3" d="M48.45,81.48a38.51,38.51,0,0,0,.33,5.43h-3.7l-.33-2.85h-.14a8.45,8.45,0,0,1-6.94,3.37c-4.59,0-6.93-3.23-6.93-6.51,0-5.49,4.87-8.48,13.64-8.44V72c0-1.82-.52-5.24-5.16-5.2a10.91,10.91,0,0,0-5.95,1.69l-.94-2.77a14.72,14.72,0,0,1,7.5-2c6.94,0,8.62,4.73,8.62,9.23Zm-4-6.14c-4.5-.09-9.61.7-9.61,5.11a3.61,3.61,0,0,0,3.85,3.93,5.72,5.72,0,0,0,5.57-3.79,4.7,4.7,0,0,0,.19-1.31Z"/><path class="cls-4" d="M59.79,53.64h4.13V86.91H59.79Z"/><path class="cls-3" d="M96.06,75.39c0,8.39-5.86,12-11.29,12-6.09,0-10.87-4.5-10.87-11.67,0-7.54,5-12,11.24-12C91.66,63.77,96.06,68.5,96.06,75.39Zm-18,.23c0,5,2.82,8.72,6.85,8.72s6.88-3.71,6.88-8.81c0-3.84-1.92-8.67-6.79-8.67S78.11,71.36,78.11,75.62Z"/><path class="cls-3" d="M106,70.37c0-2.39,0-4.26-.19-6.14h3.66l.23,3.75h.1a8.37,8.37,0,0,1,7.49-4.21c3.14,0,8,1.87,8,9.65V86.91h-4.12V73.84c0-3.65-1.36-6.7-5.25-6.7a6,6,0,0,0-5.53,4.22,6.12,6.12,0,0,0-.28,1.92V86.91H106Z"/></g></g></svg>