<svg width="569" height="639" viewBox="0 0 569 639" fill="none" xmlns="http://www.w3.org/2000/svg">
<path fill-rule="evenodd" clip-rule="evenodd" d="M254.034 22.0054C254.034 33.6603 244.586 43.1084 232.931 43.1084C232.661 43.1084 232.392 43.1033 232.124 43.0933C198.976 43.151 191.589 46.8468 191.589 68.9505V285.022C204.325 287.312 213.3 292.819 213.3 299.249C213.3 305.679 204.325 311.186 191.589 313.475V456.843H169.822C177.567 430.993 169.822 416.41 169.822 416.41C169.822 416.41 167.752 445.015 151.619 476.004H118.087C153.449 432.956 145.871 408.94 145.871 408.94C145.871 408.94 140.83 428.189 113.297 456.843H88.3872C160.361 376.571 163.375 339.777 160.643 312.473C150.388 309.798 143.512 304.877 143.512 299.249C143.512 294.408 148.599 290.09 156.548 287.275C42.1616 225.599 19.1039 98.8883 22.281 44.8768H8.86816V23.7996H211.019H211.903C211.853 23.2081 211.828 22.6097 211.828 22.0054C211.828 10.3505 221.276 0.902344 232.931 0.902344C244.586 0.902344 254.034 10.3505 254.034 22.0054ZM75.8734 45.2852C73.7025 57.8785 72.5713 70.8276 72.5713 84.0409C72.5713 141.052 93.6304 193.144 128.394 232.964C104.639 194.859 90.9143 149.854 90.9143 101.644C90.9143 82.2595 93.1332 63.3931 97.3309 45.2852H75.8734ZM124.561 128.031C124.561 98.0345 132.244 69.8325 145.749 45.2852H162.464C143.193 75.3546 132.019 111.111 132.019 149.477C132.019 163.789 133.573 177.737 136.524 191.163C128.803 171.619 124.561 150.32 124.561 128.031Z" fill="url(#paint0_linear_20_107)"/>
<path fill-rule="evenodd" clip-rule="evenodd" d="M309.119 22.0054C309.119 33.6603 318.567 43.1084 330.222 43.1084C330.492 43.1084 330.76 43.1033 331.028 43.0933C364.177 43.151 371.563 46.8468 371.563 68.9505V285.022C358.827 287.312 349.853 292.819 349.853 299.249C349.853 305.679 358.827 311.186 371.563 313.475V456.843H393.33C385.585 430.993 393.33 416.41 393.33 416.41C393.33 416.41 395.4 445.015 411.533 476.004H445.065C409.703 432.956 417.281 408.94 417.281 408.94C417.281 408.94 422.323 428.189 449.856 456.843H474.765C402.792 376.571 399.777 339.777 402.509 312.473C412.764 309.798 419.64 304.877 419.64 299.249C419.64 294.408 414.553 290.09 406.605 287.275C520.991 225.599 544.048 98.8883 540.871 44.8768H554.284V23.7996H352.133H351.25C351.299 23.2081 351.325 22.6097 351.325 22.0054C351.325 10.3505 341.877 0.902344 330.222 0.902344C318.567 0.902344 309.119 10.3505 309.119 22.0054ZM487.279 45.2852C489.45 57.8785 490.581 70.8276 490.581 84.0409C490.581 141.052 469.522 193.144 434.758 232.964C458.513 194.859 472.238 149.854 472.238 101.644C472.238 82.2595 470.019 63.3931 465.821 45.2852H487.279ZM438.591 128.031C438.591 98.0345 430.909 69.8325 417.404 45.2852H400.689C419.96 75.3546 431.134 111.111 431.134 149.477C431.134 163.789 429.579 177.737 426.629 191.163C434.349 171.619 438.591 150.32 438.591 128.031Z" fill="url(#paint1_linear_20_107)"/>
<path d="M32.5344 509.395L55.8039 592.5L79.9406 509.395H101.909V614.18H86.8781V533.676L64.0422 607.965C63.3677 610.277 62.356 611.915 61.007 612.879C59.7544 613.746 58.1646 614.18 56.2375 614.18H47.5656L25.5969 534.254V614.18H11.4328V525.871C11.4328 522.98 11.2401 521.005 10.8547 519.945C10.5656 518.789 9.79478 518.018 8.54218 517.633C7.00051 517.055 5.7479 516.573 4.78436 516.188C3.91718 515.706 3.48358 514.742 3.48358 513.297C3.48358 510.695 5.36249 509.395 9.1203 509.395H32.5344ZM204.498 614.18L193.947 580.938H163.595L153.045 614.18H138.158L166.052 528.039C167.594 523.029 168.172 520.138 167.787 519.367C167.401 518.5 166.486 517.874 165.041 517.488C163.21 517.103 161.765 516.621 160.705 516.043C159.741 515.368 159.259 514.309 159.259 512.863C159.259 510.551 161.042 509.395 164.607 509.395H185.998L220.974 614.18H204.498ZM190.478 570.242L178.482 533.098L166.775 570.242H190.478ZM259.391 526.016C259.391 522.932 259.053 520.812 258.379 519.656C257.801 518.5 256.982 517.777 255.922 517.488C254.38 517.103 253.128 516.621 252.164 516.043C251.297 515.368 250.863 514.357 250.863 513.008C250.863 510.599 252.598 509.395 256.066 509.395H275.145C278.999 509.395 283.335 509.539 288.152 509.828C292.97 510.021 296.969 510.406 300.148 510.984C309.591 512.815 317.251 517.826 323.129 526.016C329.006 534.109 331.945 546.202 331.945 562.293C331.945 573.374 330.5 582.238 327.609 588.887C324.719 595.439 320.865 600.594 316.047 604.352C311.518 607.917 306.363 610.47 300.582 612.012C294.897 613.457 287.911 614.18 279.625 614.18H259.391V526.016ZM285.117 603.918C294.078 603.918 301.449 600.594 307.23 593.945C313.012 587.201 315.902 576.65 315.902 562.293C315.902 548.322 313.493 537.723 308.676 530.496C303.858 523.27 296.68 519.656 287.141 519.656H280.781C276.831 519.656 274.855 521.439 274.855 525.004V598.715C274.855 602.184 276.831 603.918 280.781 603.918H285.117ZM366.748 561.137C366.748 545.431 370.651 532.568 378.455 522.547C386.356 512.526 397.341 507.516 411.409 507.516C425.38 507.516 436.268 512.526 444.073 522.547C451.974 532.568 455.924 545.431 455.924 561.137C455.924 576.939 451.974 589.898 444.073 600.016C436.268 610.036 425.38 615.047 411.409 615.047C397.341 615.047 386.356 610.036 378.455 600.016C370.651 589.898 366.748 576.939 366.748 561.137ZM382.936 561.137C382.936 574.819 385.634 585.37 391.03 592.789C396.522 600.208 403.315 603.918 411.409 603.918C419.502 603.918 426.247 600.208 431.643 592.789C437.039 585.37 439.737 574.819 439.737 561.137C439.737 547.551 437.039 537.048 431.643 529.629C426.247 522.21 419.502 518.5 411.409 518.5C403.315 518.5 396.522 522.21 391.03 529.629C385.634 537.048 382.936 547.551 382.936 561.137ZM514.864 614.18H499.399V526.16C499.399 523.173 499.158 521.102 498.677 519.945C498.291 518.789 497.52 518.066 496.364 517.777C494.822 517.296 493.329 516.862 491.884 516.477C490.535 515.995 489.86 514.983 489.86 513.441C489.86 510.84 491.739 509.539 495.497 509.539H509.516C513.081 509.539 514.864 511.081 514.864 514.164V550.008L546.805 509.539H556.489C558.32 509.539 559.476 510.214 559.958 511.562C560.536 512.815 560.295 514.02 559.235 515.176L525.415 557.09L568.341 614.18H550.419L514.864 566.195V614.18Z" fill="white"/>
<defs>
<linearGradient id="paint0_linear_20_107" x1="127.773" y1="0.902321" x2="127.773" y2="498.918" gradientUnits="userSpaceOnUse">
<stop offset="0.0729167" stop-color="#E3A455"/>
<stop offset="0.244792" stop-color="#F6DBA6"/>
<stop offset="0.434957" stop-color="#FFEBC4"/>
<stop offset="0.532623" stop-color="#F0BE79"/>
<stop offset="0.773898" stop-color="#EEBC70"/>
<stop offset="0.909722" stop-color="#855E36"/>
<stop offset="1" stop-color="#3F1F0F"/>
</linearGradient>
<linearGradient id="paint1_linear_20_107" x1="435.379" y1="0.902321" x2="435.379" y2="498.918" gradientUnits="userSpaceOnUse">
<stop offset="0.0729167" stop-color="#E3A455"/>
<stop offset="0.244792" stop-color="#F6DBA6"/>
<stop offset="0.434957" stop-color="#FFEBC4"/>
<stop offset="0.532623" stop-color="#F0BE79"/>
<stop offset="0.773898" stop-color="#EEBC70"/>
<stop offset="0.909722" stop-color="#855E36"/>
<stop offset="1" stop-color="#3F1F0F"/>
</linearGradient>
</defs>
</svg>
