<svg width="180" height="268" viewBox="0 0 180 268" fill="none" xmlns="http://www.w3.org/2000/svg">
<path d="M34.6798 0.534668C15.7513 0.534668 0.406738 15.8792 0.406738 34.8077L0.406738 198.557H0.413306C0.408933 198.873 0.406738 199.191 0.406738 199.509C0.406738 236.522 30.1565 266.587 67.0488 267.096V267.103H145.115V261.391C145.115 245.617 132.328 232.83 116.554 232.83H67.0488V232.816C49.0863 232.312 34.6798 217.593 34.6798 199.509C34.6798 199.19 34.6842 198.873 34.6931 198.557H34.6798L34.6798 0.534668Z" fill="white"/>
<path d="M126.075 68.1287C126.075 76.0156 119.681 82.4092 111.794 82.4092C103.907 82.4092 97.5137 76.0156 97.5137 68.1287C97.5137 60.2419 103.907 53.8483 111.794 53.8483C119.681 53.8483 126.075 60.2419 126.075 68.1287Z" fill="white"/>
<path fill-rule="evenodd" clip-rule="evenodd" d="M44.2066 67.1824L44.2001 67.1767L44.2001 201.73C50.6048 154.228 90.5785 143.693 119.497 136.071C122.6 135.253 125.576 134.468 128.37 133.676C130.669 133.096 132.922 132.398 135.121 131.59C138.782 130.332 141.926 128.973 144.366 127.372C165.244 115.869 179.388 93.6505 179.388 68.1287C179.388 30.7976 149.125 0.534668 111.794 0.534668C74.7789 0.534668 44.7128 30.2875 44.2066 67.1824ZM148.923 68.1287C148.923 88.6346 132.3 105.258 111.794 105.258C91.2883 105.258 74.665 88.6346 74.665 68.1287C74.665 47.6229 91.2883 30.9996 111.794 30.9996C132.3 30.9996 148.923 47.6229 148.923 68.1287Z" fill="white"/>
</svg>
