<svg width="189" height="150" viewBox="0 0 189 150" fill="none" xmlns="http://www.w3.org/2000/svg">
<path d="M82.6779 84.5721L103.437 63.5327H45.228L82.6779 84.5721Z" fill="#A71C20"/>
<path d="M82.2427 149.49L103.437 127.85V63.5327L82.678 84.5721L82.2427 149.49Z" fill="#E81E25"/>
<path d="M123.52 45.7326L103.437 63.5328V18.305L123.52 0.489746V45.7326Z" fill="#E81E25"/>
<path d="M123.52 0.489746L103.437 18.6049H42.6762L24.8594 0.489746H123.52Z" fill="#A71C20"/>
<path d="M123.52 45.7324L103.437 63.5326H146.065L123.52 45.7324Z" fill="#A71C20"/>
<path d="M32.0341 125.841C32.0341 133.714 30.5331 138.453 27.246 141.452C23.7225 144.27 19.2972 145.719 14.7877 145.531C10.8434 145.616 6.94909 144.637 3.51518 142.697L5.01618 137.928C8.01726 139.764 11.4789 140.711 14.9978 140.657C21.332 140.657 25.9701 137.358 25.9701 128.66V124.956H25.835C24.6976 126.781 23.0938 128.269 21.1889 129.268C19.284 130.267 17.1469 130.741 14.9978 130.64C6.51717 130.685 0.513184 123.457 0.513184 114.099C0.513184 102.582 8.01817 96.1042 15.9134 96.1042C18.0536 95.9751 20.1866 96.4528 22.0668 97.4822C23.947 98.5117 25.4978 100.051 26.5405 101.923H26.6756L26.8857 96.794H32.3794C32.1692 99.1933 32.0942 101.998 32.0942 106.076L32.0341 125.841ZM25.85 110.245C25.8912 109.317 25.7693 108.388 25.4898 107.501C24.9825 105.617 23.865 103.954 22.3118 102.771C20.7586 101.588 18.857 100.952 16.9041 100.963C11.0202 100.963 6.77235 105.882 6.77235 113.754C6.77235 120.428 10.2246 125.976 16.829 125.976C18.7518 125.987 20.6267 125.377 22.1739 124.237C23.7212 123.096 24.858 121.487 25.4147 119.648C25.7478 118.58 25.9149 117.467 25.9101 116.349L25.85 110.245Z" fill="white"/>
<path d="M73.2365 122.677C73.2093 125.399 73.3748 128.12 73.7318 130.82H68.1781L67.6828 126.546H67.4727C66.2625 128.154 64.6866 129.451 62.8752 130.33C61.0638 131.208 59.0689 131.644 57.0557 131.599C50.1661 131.599 46.6538 126.756 46.6538 121.837C46.6538 113.604 53.9637 109.12 67.1274 109.18V108.461C67.1274 105.731 66.3469 100.603 59.3823 100.663C56.2229 100.629 53.1213 101.509 50.4513 103.197L49.0404 99.0431C52.4567 97.0551 56.3444 96.0194 60.2979 96.0439C70.7148 96.0439 73.2365 103.137 73.2365 109.885V122.677ZM67.2325 113.469C60.478 113.334 52.8079 114.519 52.8079 121.132C52.7363 121.914 52.8356 122.701 53.099 123.441C53.3624 124.18 53.7835 124.853 54.3332 125.414C54.8829 125.975 55.548 126.409 56.2825 126.687C57.017 126.966 57.8032 127.081 58.5867 127.026C60.403 127.084 62.191 126.565 63.6934 125.544C65.1958 124.523 66.3351 123.051 66.9473 121.342C67.1346 120.704 67.2307 120.043 67.2325 119.378V113.469Z" fill="white"/>
<path d="M90.2578 80.9282H96.4569V130.82H90.2578V80.9282Z" fill="#231F20"/>
<path d="M144.699 113.544C144.699 126.126 135.903 131.539 127.753 131.539C118.612 131.539 111.437 124.791 111.437 114.039C111.437 102.732 118.942 96.0439 128.308 96.0439C138.095 96.1189 144.699 103.212 144.699 113.544ZM117.681 113.889C117.681 121.387 121.914 126.966 127.963 126.966C134.012 126.966 138.29 121.402 138.29 113.754C138.29 107.996 135.408 100.753 128.098 100.753C120.788 100.753 117.756 107.501 117.756 113.889H117.681Z" fill="white"/>
<path d="M159.619 106.017C159.619 102.433 159.619 99.6284 159.334 96.8091H164.828L165.173 102.433H165.323C166.451 100.463 168.092 98.8364 170.071 97.7247C172.051 96.6131 174.295 96.0582 176.565 96.1193C181.279 96.1193 188.573 98.9235 188.573 110.59V130.82H182.389V111.22C182.389 105.747 180.348 101.173 174.509 101.173C172.639 101.236 170.835 101.879 169.347 103.013C167.86 104.147 166.763 105.716 166.209 107.501C165.916 108.433 165.774 109.404 165.788 110.38V130.82H159.619V106.017Z" fill="white"/>
</svg>
